<?xml version="1.0" encoding="UTF-8" standalone="no"?>
<!-- Created with Inkscape (http://www.inkscape.org/) -->

<svg
   xmlns:dc="http://purl.org/dc/elements/1.1/"
   xmlns:cc="http://creativecommons.org/ns#"
   xmlns:rdf="http://www.w3.org/1999/02/22-rdf-syntax-ns#"
   xmlns:svg="http://www.w3.org/2000/svg"
   xmlns="http://www.w3.org/2000/svg"
   xmlns:sodipodi="http://sodipodi.sourceforge.net/DTD/sodipodi-0.dtd"
   xmlns:inkscape="http://www.inkscape.org/namespaces/inkscape"
   id="svg2"
   version="1.1"
   inkscape:version="0.48.5 r10040"
   width="670"
   height="738.75"
   xml:space="preserve"
   sodipodi:docname="carriers.svg"><metadata
     id="metadata8"><rdf:RDF><cc:Work
         rdf:about=""><dc:format>image/svg+xml</dc:format><dc:type
           rdf:resource="http://purl.org/dc/dcmitype/StillImage" /><dc:title /></cc:Work></rdf:RDF></metadata><defs
     id="defs6"><clipPath
       clipPathUnits="userSpaceOnUse"
       id="clipPath16"><path
         d="M 0,0 720,0 720,720 0,720 0,0 z"
         id="path18" /></clipPath><clipPath
       clipPathUnits="userSpaceOnUse"
       id="clipPath20"><path
         d="m 144,144 432,0 0,432 -432,0 0,-432 z"
         id="path22" /></clipPath><clipPath
       clipPathUnits="userSpaceOnUse"
       id="clipPath24"><path
         d="m 144,144 432,0 0,432 -432,0 0,-432 z"
         id="path26" /></clipPath><clipPath
       clipPathUnits="userSpaceOnUse"
       id="clipPath28"><path
         d="m 144,144 432,0 0,432 -432,0 0,-432 z"
         id="path30" /></clipPath><clipPath
       clipPathUnits="userSpaceOnUse"
       id="clipPath32"><path
         d="m 144,144 432,0 0,432 -432,0 0,-432 z"
         id="path34" /></clipPath><clipPath
       clipPathUnits="userSpaceOnUse"
       id="clipPath36"><path
         d="M -6,-6 6,-6 6,6 -6,6 -6,-6 z"
         id="path38" /></clipPath><clipPath
       clipPathUnits="userSpaceOnUse"
       id="clipPath40"><path
         d="M -6,-6 6,-6 6,6 -6,6 -6,-6 z"
         id="path42" /></clipPath><clipPath
       clipPathUnits="userSpaceOnUse"
       id="clipPath44"><path
         d="M -6,-6 6,-6 6,6 -6,6 -6,-6 z"
         id="path46" /></clipPath><clipPath
       clipPathUnits="userSpaceOnUse"
       id="clipPath48"><path
         d="M -6,-6 6,-6 6,6 -6,6 -6,-6 z"
         id="path50" /></clipPath><clipPath
       clipPathUnits="userSpaceOnUse"
       id="clipPath52"><path
         d="M -6,-6 6,-6 6,6 -6,6 -6,-6 z"
         id="path54" /></clipPath><clipPath
       clipPathUnits="userSpaceOnUse"
       id="clipPath56"><path
         d="M -6,-6 6,-6 6,6 -6,6 -6,-6 z"
         id="path58" /></clipPath><clipPath
       clipPathUnits="userSpaceOnUse"
       id="clipPath60"><path
         d="M -6,-6 6,-6 6,6 -6,6 -6,-6 z"
         id="path62" /></clipPath><clipPath
       clipPathUnits="userSpaceOnUse"
       id="clipPath64"><path
         d="M -6,-6 6,-6 6,6 -6,6 -6,-6 z"
         id="path66" /></clipPath><clipPath
       clipPathUnits="userSpaceOnUse"
       id="clipPath68"><path
         d="M -6,-6 6,-6 6,6 -6,6 -6,-6 z"
         id="path70" /></clipPath><clipPath
       clipPathUnits="userSpaceOnUse"
       id="clipPath72"><path
         d="M -6,-6 6,-6 6,6 -6,6 -6,-6 z"
         id="path74" /></clipPath><clipPath
       clipPathUnits="userSpaceOnUse"
       id="clipPath76"><path
         d="M -6,-6 6,-6 6,6 -6,6 -6,-6 z"
         id="path78" /></clipPath><clipPath
       clipPathUnits="userSpaceOnUse"
       id="clipPath80"><path
         d="M -6,-6 6,-6 6,6 -6,6 -6,-6 z"
         id="path82" /></clipPath><clipPath
       clipPathUnits="userSpaceOnUse"
       id="clipPath84"><path
         d="M -6,-6 6,-6 6,6 -6,6 -6,-6 z"
         id="path86" /></clipPath><clipPath
       clipPathUnits="userSpaceOnUse"
       id="clipPath88"><path
         d="M -6,-6 6,-6 6,6 -6,6 -6,-6 z"
         id="path90" /></clipPath><clipPath
       clipPathUnits="userSpaceOnUse"
       id="clipPath92"><path
         d="M -6,-6 6,-6 6,6 -6,6 -6,-6 z"
         id="path94" /></clipPath><clipPath
       clipPathUnits="userSpaceOnUse"
       id="clipPath96"><path
         d="m 144,144 432,0 0,432 -432,0 0,-432 z"
         id="path98" /></clipPath><clipPath
       clipPathUnits="userSpaceOnUse"
       id="clipPath100"><path
         d="M -6,-6 6,-6 6,6 -6,6 -6,-6 z"
         id="path102" /></clipPath><clipPath
       clipPathUnits="userSpaceOnUse"
       id="clipPath104"><path
         d="M -6,-6 6,-6 6,6 -6,6 -6,-6 z"
         id="path106" /></clipPath><clipPath
       clipPathUnits="userSpaceOnUse"
       id="clipPath108"><path
         d="M -6,-6 6,-6 6,6 -6,6 -6,-6 z"
         id="path110" /></clipPath><clipPath
       clipPathUnits="userSpaceOnUse"
       id="clipPath112"><path
         d="M -6,-6 6,-6 6,6 -6,6 -6,-6 z"
         id="path114" /></clipPath><clipPath
       clipPathUnits="userSpaceOnUse"
       id="clipPath116"><path
         d="M -6,-6 6,-6 6,6 -6,6 -6,-6 z"
         id="path118" /></clipPath><clipPath
       clipPathUnits="userSpaceOnUse"
       id="clipPath120"><path
         d="M -6,-6 6,-6 6,6 -6,6 -6,-6 z"
         id="path122" /></clipPath><clipPath
       clipPathUnits="userSpaceOnUse"
       id="clipPath124"><path
         d="M -6,-6 6,-6 6,6 -6,6 -6,-6 z"
         id="path126" /></clipPath><clipPath
       clipPathUnits="userSpaceOnUse"
       id="clipPath128"><path
         d="M -6,-6 6,-6 6,6 -6,6 -6,-6 z"
         id="path130" /></clipPath><clipPath
       clipPathUnits="userSpaceOnUse"
       id="clipPath132"><path
         d="M -6,-6 6,-6 6,6 -6,6 -6,-6 z"
         id="path134" /></clipPath><clipPath
       clipPathUnits="userSpaceOnUse"
       id="clipPath136"><path
         d="M -6,-6 6,-6 6,6 -6,6 -6,-6 z"
         id="path138" /></clipPath><clipPath
       clipPathUnits="userSpaceOnUse"
       id="clipPath140"><path
         d="M -6,-6 6,-6 6,6 -6,6 -6,-6 z"
         id="path142" /></clipPath><clipPath
       clipPathUnits="userSpaceOnUse"
       id="clipPath144"><path
         d="M -6,-6 6,-6 6,6 -6,6 -6,-6 z"
         id="path146" /></clipPath><clipPath
       clipPathUnits="userSpaceOnUse"
       id="clipPath148"><path
         d="M -6,-6 6,-6 6,6 -6,6 -6,-6 z"
         id="path150" /></clipPath><clipPath
       clipPathUnits="userSpaceOnUse"
       id="clipPath152"><path
         d="M -6,-6 6,-6 6,6 -6,6 -6,-6 z"
         id="path154" /></clipPath><clipPath
       clipPathUnits="userSpaceOnUse"
       id="clipPath156"><path
         d="M -6,-6 6,-6 6,6 -6,6 -6,-6 z"
         id="path158" /></clipPath><clipPath
       clipPathUnits="userSpaceOnUse"
       id="clipPath160"><path
         d="m 144,144 432,0 0,432 -432,0 0,-432 z"
         id="path162" /></clipPath><clipPath
       clipPathUnits="userSpaceOnUse"
       id="clipPath164"><path
         d="M -6,-6 6,-6 6,6 -6,6 -6,-6 z"
         id="path166" /></clipPath><clipPath
       clipPathUnits="userSpaceOnUse"
       id="clipPath168"><path
         d="M -6,-6 6,-6 6,6 -6,6 -6,-6 z"
         id="path170" /></clipPath><clipPath
       clipPathUnits="userSpaceOnUse"
       id="clipPath172"><path
         d="M -6,-6 6,-6 6,6 -6,6 -6,-6 z"
         id="path174" /></clipPath><clipPath
       clipPathUnits="userSpaceOnUse"
       id="clipPath176"><path
         d="M -6,-6 6,-6 6,6 -6,6 -6,-6 z"
         id="path178" /></clipPath><clipPath
       clipPathUnits="userSpaceOnUse"
       id="clipPath180"><path
         d="M -6,-6 6,-6 6,6 -6,6 -6,-6 z"
         id="path182" /></clipPath><clipPath
       clipPathUnits="userSpaceOnUse"
       id="clipPath184"><path
         d="M -6,-6 6,-6 6,6 -6,6 -6,-6 z"
         id="path186" /></clipPath><clipPath
       clipPathUnits="userSpaceOnUse"
       id="clipPath188"><path
         d="M -6,-6 6,-6 6,6 -6,6 -6,-6 z"
         id="path190" /></clipPath><clipPath
       clipPathUnits="userSpaceOnUse"
       id="clipPath192"><path
         d="M -6,-6 6,-6 6,6 -6,6 -6,-6 z"
         id="path194" /></clipPath><clipPath
       clipPathUnits="userSpaceOnUse"
       id="clipPath196"><path
         d="M -6,-6 6,-6 6,6 -6,6 -6,-6 z"
         id="path198" /></clipPath><clipPath
       clipPathUnits="userSpaceOnUse"
       id="clipPath200"><path
         d="M -6,-6 6,-6 6,6 -6,6 -6,-6 z"
         id="path202" /></clipPath><clipPath
       clipPathUnits="userSpaceOnUse"
       id="clipPath204"><path
         d="M -6,-6 6,-6 6,6 -6,6 -6,-6 z"
         id="path206" /></clipPath><clipPath
       clipPathUnits="userSpaceOnUse"
       id="clipPath208"><path
         d="M -6,-6 6,-6 6,6 -6,6 -6,-6 z"
         id="path210" /></clipPath><clipPath
       clipPathUnits="userSpaceOnUse"
       id="clipPath212"><path
         d="M -6,-6 6,-6 6,6 -6,6 -6,-6 z"
         id="path214" /></clipPath><clipPath
       clipPathUnits="userSpaceOnUse"
       id="clipPath216"><path
         d="M -6,-6 6,-6 6,6 -6,6 -6,-6 z"
         id="path218" /></clipPath><clipPath
       clipPathUnits="userSpaceOnUse"
       id="clipPath220"><path
         d="M -6,-6 6,-6 6,6 -6,6 -6,-6 z"
         id="path222" /></clipPath><clipPath
       clipPathUnits="userSpaceOnUse"
       id="clipPath224"><path
         d="M -6,-6 6,-6 6,6 -6,6 -6,-6 z"
         id="path226" /></clipPath></defs><sodipodi:namedview
     pagecolor="#ffffff"
     bordercolor="#666666"
     borderopacity="1"
     objecttolerance="10"
     gridtolerance="10"
     guidetolerance="10"
     inkscape:pageopacity="0"
     inkscape:pageshadow="2"
     inkscape:window-width="1871"
     inkscape:window-height="1056"
     id="namedview4"
     showgrid="false"
     inkscape:snap-bbox="true"
     inkscape:bbox-paths="true"
     inkscape:bbox-nodes="true"
     inkscape:snap-bbox-edge-midpoints="true"
     inkscape:snap-bbox-midpoints="true"
     inkscape:object-paths="true"
     inkscape:snap-intersection-paths="true"
     inkscape:object-nodes="true"
     inkscape:snap-smooth-nodes="true"
     inkscape:snap-midpoints="true"
     inkscape:snap-object-midpoints="true"
     inkscape:snap-center="true"
     inkscape:snap-global="false"
     inkscape:zoom="2.8284272"
     inkscape:cx="293.86746"
     inkscape:cy="486.42688"
     inkscape:window-x="49"
     inkscape:window-y="24"
     inkscape:window-maximized="1"
     inkscape:current-layer="g8210" /><g
     id="g10"
     inkscape:groupmode="layer"
     inkscape:label="carriers"
     transform="matrix(1.25,0,0,-1.25,0,738.75)"><g
       id="g8118"
       transform="translate(915.91329,-164.69869)"
       style="stroke-width:1.6;stroke-miterlimit:10;stroke-dasharray:none"><rect
         transform="matrix(0.8,0,0,-0.8,0,591)"
         y="-112.75366"
         x="-1033.6416"
         height="540"
         width="540"
         id="rect7348"
         style="fill:none;stroke:#000000;stroke-width:2;stroke-linecap:butt;stroke-linejoin:miter;stroke-miterlimit:10;stroke-opacity:1;stroke-dasharray:none" /><path
         d="m -740.5133,249.20293 0,8"
         style="fill:#000000;fill-opacity:1;fill-rule:nonzero;stroke:#000000;stroke-width:1.6;stroke-linecap:butt;stroke-linejoin:round;stroke-miterlimit:10;stroke-opacity:1;stroke-dasharray:none"
         id="path632-6"
         inkscape:connector-curvature="0" /><path
         d="m -654.1133,249.20293 0,8"
         style="fill:#000000;fill-opacity:1;fill-rule:nonzero;stroke:#000000;stroke-width:1.6;stroke-linecap:butt;stroke-linejoin:round;stroke-miterlimit:10;stroke-opacity:1;stroke-dasharray:none"
         id="path638-3"
         inkscape:connector-curvature="0" /><path
         d="m -567.7133,249.20293 0,8"
         style="fill:#000000;fill-opacity:1;fill-rule:nonzero;stroke:#000000;stroke-width:1.6;stroke-linecap:butt;stroke-linejoin:round;stroke-miterlimit:10;stroke-opacity:1;stroke-dasharray:none"
         id="path644-4"
         inkscape:connector-curvature="0" /><path
         d="m -481.3133,249.20293 0,8"
         style="fill:#000000;fill-opacity:1;fill-rule:nonzero;stroke:#000000;stroke-width:1.6;stroke-linecap:butt;stroke-linejoin:round;stroke-miterlimit:10;stroke-opacity:1;stroke-dasharray:none"
         id="path650-9"
         inkscape:connector-curvature="0" /><path
         d="m -826.9133,372.6315 8,0"
         style="fill:#000000;fill-opacity:1;fill-rule:nonzero;stroke:#000000;stroke-width:1.6;stroke-linecap:butt;stroke-linejoin:round;stroke-miterlimit:10;stroke-opacity:1;stroke-dasharray:none"
         id="path674-2"
         inkscape:connector-curvature="0" /><path
         d="m -394.9133,372.6315 -8,0"
         style="fill:#000000;fill-opacity:1;fill-rule:nonzero;stroke:#000000;stroke-width:1.6;stroke-linecap:butt;stroke-linejoin:round;stroke-miterlimit:10;stroke-opacity:1;stroke-dasharray:none"
         id="path676-6"
         inkscape:connector-curvature="0" /><path
         d="m -826.9133,496.06007 8,0"
         style="fill:#000000;fill-opacity:1;fill-rule:nonzero;stroke:#000000;stroke-width:1.6;stroke-linecap:butt;stroke-linejoin:round;stroke-miterlimit:10;stroke-opacity:1;stroke-dasharray:none"
         id="path682-7"
         inkscape:connector-curvature="0" /><path
         d="m -394.9133,496.06007 -8,0"
         style="fill:#000000;fill-opacity:1;fill-rule:nonzero;stroke:#000000;stroke-width:1.6;stroke-linecap:butt;stroke-linejoin:round;stroke-miterlimit:10;stroke-opacity:1;stroke-dasharray:none"
         id="path684-3"
         inkscape:connector-curvature="0" /><path
         d="m -826.9133,619.48864 8,0"
         style="fill:#000000;fill-opacity:1;fill-rule:nonzero;stroke:#000000;stroke-width:1.6;stroke-linecap:butt;stroke-linejoin:round;stroke-miterlimit:10;stroke-opacity:1;stroke-dasharray:none"
         id="path690-9"
         inkscape:connector-curvature="0" /><path
         d="m -394.9133,619.48864 -8,0"
         style="fill:#000000;fill-opacity:1;fill-rule:nonzero;stroke:#000000;stroke-width:1.6;stroke-linecap:butt;stroke-linejoin:round;stroke-miterlimit:10;stroke-opacity:1;stroke-dasharray:none"
         id="path692-5"
         inkscape:connector-curvature="0" /><path
         d="m -695.07736,681.20293 0,-8"
         style="fill:#000000;fill-opacity:1;fill-rule:nonzero;stroke:#000000;stroke-width:1.6;stroke-linecap:butt;stroke-linejoin:round;stroke-miterlimit:10;stroke-opacity:1;stroke-dasharray:none"
         id="path978-3"
         inkscape:connector-curvature="0" /><path
         d="m -563.24143,681.20293 0,-8"
         style="fill:#000000;fill-opacity:1;fill-rule:nonzero;stroke:#000000;stroke-width:1.6;stroke-linecap:butt;stroke-linejoin:round;stroke-miterlimit:10;stroke-opacity:1;stroke-dasharray:none"
         id="path984-0"
         inkscape:connector-curvature="0" /><path
         d="m -431.40549,681.20293 0,-8"
         style="fill:#000000;fill-opacity:1;fill-rule:nonzero;stroke:#000000;stroke-width:1.6;stroke-linecap:butt;stroke-linejoin:round;stroke-miterlimit:10;stroke-opacity:1;stroke-dasharray:none"
         id="path990-8"
         inkscape:connector-curvature="0" /></g><g
       id="g8150"><path
         sodipodi:nodetypes="cccccccccccccccccccccccccccccccccccccccccccccccccccccccc"
         d="m 89.426385,86.665408 5.627663,-0.04313 6.918922,0.26618 6.91892,0.53661 6.91892,0.80706 6.91892,1.0775 6.91892,1.34793 6.91892,1.61838 6.91892,1.88881 6.91892,2.15925 6.91891,2.42969 6.91892,2.700131 6.91892,2.97057 6.91892,3.24101 6.91892,3.51145 6.91892,3.78189 6.91892,4.05233 6.91892,4.32277 6.91892,4.5932 6.91891,4.86365 6.91892,5.13408 6.91892,5.40453 6.91892,5.67496 6.91892,5.9454 6.91892,6.21584 6.91892,6.48628 6.91892,6.75672 6.91892,7.02716 6.91891,7.2976 6.91892,7.56804 6.91892,7.83848 8.64865,10.1784 8.64865,10.60096 8.64865,11.02352 8.64865,11.44609 8.64865,11.86865 8.64864,12.29121 8.64865,12.71377 8.64865,13.13633 8.64865,13.55889 8.64865,13.98145 8.64865,14.40402 8.64865,14.82657 8.64865,15.24914 8.64864,15.6717 8.64865,16.09426 8.64865,16.51682 8.64865,16.93939 8.64865,17.36194 8.64865,17.78451 10.37838,21.89918 10.37837,22.50768 0.16216,0.36119 0.16216,0.36119 0.16217,0.36119 0.16216,0.36119"
         style="fill:none;stroke:#ff0000;stroke-width:2;stroke-linecap:square;stroke-linejoin:round;stroke-miterlimit:10;stroke-opacity:1;stroke-dasharray:none"
         id="path240"
         inkscape:connector-curvature="0" /><path
         inkscape:connector-curvature="0"
         id="path264"
         style="fill:none;fill-opacity:1;fill-rule:nonzero;stroke:#ff0000;stroke-width:2;stroke-linecap:butt;stroke-linejoin:miter;stroke-miterlimit:10;stroke-opacity:1;stroke-dasharray:none"
         d="m 170.35254,101.27827 10,0 0,10 -10,0 0,-10 z" /><path
         d="m 256.70508,163.47619 10,0 0,10 -10,0 0,-10 z"
         style="fill:none;fill-opacity:1;fill-rule:nonzero;stroke:#ff0000;stroke-width:2;stroke-linecap:butt;stroke-linejoin:miter;stroke-miterlimit:10;stroke-opacity:1;stroke-dasharray:none"
         id="path288"
         inkscape:connector-curvature="0" /><path
         inkscape:connector-curvature="0"
         id="path312"
         style="fill:none;fill-opacity:1;fill-rule:nonzero;stroke:#ff0000;stroke-width:2;stroke-linecap:butt;stroke-linejoin:miter;stroke-miterlimit:10;stroke-opacity:1;stroke-dasharray:none"
         d="m 343.13672,266.74929 10,0 0,10 -10,0 0,-10 z" /><path
         d="m 429.2124,413.12098 10,0 0,10 -10,0 0,-10 z"
         style="fill:none;fill-opacity:1;fill-rule:nonzero;stroke:#ff0000;stroke-width:2;stroke-linecap:butt;stroke-linejoin:miter;stroke-miterlimit:10;stroke-opacity:1;stroke-dasharray:none"
         id="path336"
         inkscape:connector-curvature="0" /><path
         inkscape:connector-curvature="0"
         id="path376"
         style="fill:none;fill-opacity:1;fill-rule:nonzero;stroke:#ff0000;stroke-width:2;stroke-linecap:butt;stroke-linejoin:miter;stroke-miterlimit:10;stroke-opacity:1;stroke-dasharray:none"
         d="m 466.62744,488.69835 10,0 0,10 -10,0 0,-10 z" /></g><g
       id="g8134"><path
         d="m 89.230742,86.693419 30.039528,0.74764 31.13514,0.96202 31.13513,1.17639 31.13514,1.39076 31.13513,1.60513 31.13514,1.81951 31.13513,2.03388 31.13514,2.248241 31.13513,2.46262 31.13514,2.677 31.13513,2.89136 31.13514,3.10574 31.13513,3.32011 c 9.50887,1.0776 18.77656,2.12797 27.33784,3.09817"
         style="fill:none;stroke:#0000ff;stroke-width:2;stroke-linecap:square;stroke-linejoin:round;stroke-miterlimit:10;stroke-opacity:1;stroke-dasharray:none"
         id="path252"
         inkscape:connector-curvature="0"
         sodipodi:nodetypes="ccccccccccccccc" /><path
         inkscape:connector-curvature="0"
         id="path512"
         style="fill:none;fill-opacity:1;fill-rule:nonzero;stroke:#0000ff;stroke-width:2;stroke-linecap:butt;stroke-linejoin:miter;stroke-miterlimit:10;stroke-opacity:1;stroke-dasharray:none"
         d="m 175.35254,94.249039 -5,-10 10,0 -5,10 z" /><path
         d="m 261.67872,98.761382 -5,-9.999999 10,0 -5,9.999999 z"
         style="fill:none;fill-opacity:1;fill-rule:nonzero;stroke:#0000ff;stroke-width:2;stroke-linecap:butt;stroke-linejoin:miter;stroke-miterlimit:10;stroke-opacity:1;stroke-dasharray:none"
         id="path536"
         inkscape:connector-curvature="0" /><path
         inkscape:connector-curvature="0"
         id="path560"
         style="fill:none;fill-opacity:1;fill-rule:nonzero;stroke:#0000ff;stroke-width:2;stroke-linecap:butt;stroke-linejoin:miter;stroke-miterlimit:10;stroke-opacity:1;stroke-dasharray:none"
         d="m 348.12355,104.35373 -5,-10.000005 10,0 -5,10.000005 z" /><path
         d="m 434.37062,112.16902 -5,-10 10,0 -5,10 z"
         style="fill:none;fill-opacity:1;fill-rule:nonzero;stroke:#0000ff;stroke-width:2;stroke-linecap:butt;stroke-linejoin:miter;stroke-miterlimit:10;stroke-opacity:1;stroke-dasharray:none"
         id="path584"
         inkscape:connector-curvature="0" /><path
         inkscape:connector-curvature="0"
         id="path608"
         style="fill:none;fill-opacity:1;fill-rule:nonzero;stroke:#0000ff;stroke-width:2;stroke-linecap:butt;stroke-linejoin:miter;stroke-miterlimit:10;stroke-opacity:1;stroke-dasharray:none"
         d="m 470.1509,115.59642 -5,-10 10,0 -5,10 z" /></g><text
       xml:space="preserve"
       style="font-size:32px;font-style:normal;font-weight:normal;line-height:125%;letter-spacing:0px;word-spacing:0px;fill:#000000;fill-opacity:1;stroke:none;font-family:Sans"
       x="171.8125"
       y="-560.42584"
       id="text3975"
       sodipodi:linespacing="125%"
       transform="scale(1,-1)"><tspan
         sodipodi:role="line"
         id="tspan3977"
         x="171.8125"
         y="-560.42584">carrier count (#)</tspan></text>
<text
       xml:space="preserve"
       style="font-size:32px;font-style:normal;font-weight:normal;line-height:125%;letter-spacing:0px;word-spacing:0px;fill:#000000;fill-opacity:1;stroke:none;font-family:Sans"
       x="217.51987"
       y="33.015636"
       id="text3979"
       sodipodi:linespacing="125%"
       transform="matrix(0,1,1,0,0,0)"><tspan
         sodipodi:role="line"
         id="tspan3981"
         x="217.51987"
         y="33.015636">time (min)</tspan></text>
<g
       id="g7131"
       transform="translate(0,-254.23575)"><text
         transform="scale(1,-1)"
         sodipodi:linespacing="125%"
         id="text3983"
         y="-778.69312"
         x="81.122139"
         style="font-size:32px;font-style:normal;font-weight:normal;line-height:125%;letter-spacing:0px;word-spacing:0px;fill:#000000;fill-opacity:1;stroke:none;font-family:Sans"
         xml:space="preserve"><tspan
           y="-778.69312"
           x="81.122139"
           id="tspan3985"
           sodipodi:role="line">0</tspan></text>
<text
         transform="scale(1,-1)"
         sodipodi:linespacing="125%"
         id="text3987"
         y="-778.69312"
         x="181.72871"
         style="font-size:32px;font-style:normal;font-weight:normal;line-height:125%;letter-spacing:0px;word-spacing:0px;fill:#000000;fill-opacity:1;stroke:none;font-family:Sans"
         xml:space="preserve"><tspan
           y="-778.69312"
           x="181.72871"
           id="tspan3989"
           sodipodi:role="line">1000</tspan></text>
<text
         transform="scale(1,-1)"
         sodipodi:linespacing="125%"
         id="text3991"
         y="-778.69312"
         x="314.18683"
         style="font-size:32px;font-style:normal;font-weight:normal;line-height:125%;letter-spacing:0px;word-spacing:0px;fill:#000000;fill-opacity:1;stroke:none;font-family:Sans"
         xml:space="preserve"><tspan
           y="-778.69312"
           x="314.18683"
           id="tspan3993"
           sodipodi:role="line">2000</tspan></text>
<text
         transform="scale(1,-1)"
         sodipodi:linespacing="125%"
         id="text3995"
         y="-778.69312"
         x="446.01215"
         style="font-size:32px;font-style:normal;font-weight:normal;line-height:125%;letter-spacing:0px;word-spacing:0px;fill:#000000;fill-opacity:1;stroke:none;font-family:Sans"
         xml:space="preserve"><tspan
           y="-778.69312"
           x="446.01215"
           id="tspan3997"
           sodipodi:role="line">3000</tspan></text>
</g><g
       id="g7121"
       transform="translate(191.14517,0)"><text
         transform="scale(1,-1)"
         sodipodi:linespacing="125%"
         id="text3999"
         y="-73.936157"
         x="-137.94986"
         style="font-size:32px;font-style:normal;font-weight:normal;line-height:125%;letter-spacing:0px;word-spacing:0px;fill:#000000;fill-opacity:1;stroke:none;font-family:Sans"
         xml:space="preserve"><tspan
           y="-73.936157"
           x="-137.94986"
           id="tspan4001"
           sodipodi:role="line">0</tspan></text>
<text
         transform="scale(1,-1)"
         sodipodi:linespacing="125%"
         id="text4003"
         y="-320.7933"
         x="-148.84048"
         style="font-size:32px;font-style:normal;font-weight:normal;line-height:125%;letter-spacing:0px;word-spacing:0px;fill:#000000;fill-opacity:1;stroke:none;font-family:Sans"
         xml:space="preserve"><tspan
           y="-320.7933"
           x="-148.84048"
           id="tspan4005"
           sodipodi:role="line">10</tspan></text>
<text
         transform="scale(1,-1)"
         sodipodi:linespacing="125%"
         id="text4007"
         y="-197.36475"
         x="-148.25455"
         style="font-size:32px;font-style:normal;font-weight:normal;line-height:125%;letter-spacing:0px;word-spacing:0px;fill:#000000;fill-opacity:1;stroke:none;font-family:Sans"
         xml:space="preserve"><tspan
           y="-197.36475"
           x="-148.25455"
           id="tspan4009"
           sodipodi:role="line">20</tspan></text>
<text
         transform="scale(1,-1)"
         sodipodi:linespacing="125%"
         id="text4011"
         y="-444.22186"
         x="-148.30142"
         style="font-size:32px;font-style:normal;font-weight:normal;line-height:125%;letter-spacing:0px;word-spacing:0px;fill:#000000;fill-opacity:1;stroke:none;font-family:Sans"
         xml:space="preserve"><tspan
           y="-444.22186"
           x="-148.30142"
           id="tspan4013"
           sodipodi:role="line">30</tspan></text>
</g><g
       id="g7107"
       transform="translate(0,245.03935)"><text
         transform="scale(1,-1)"
         sodipodi:linespacing="125%"
         id="text7079"
         y="191.78511"
         x="81.122139"
         style="font-size:32px;font-style:normal;font-weight:normal;line-height:125%;letter-spacing:0px;word-spacing:0px;fill:#000000;fill-opacity:1;stroke:none;font-family:Sans"
         xml:space="preserve"><tspan
           y="191.78511"
           x="81.122139"
           id="tspan7081"
           sodipodi:role="line">0</tspan></text>
<text
         transform="scale(1,-1)"
         sodipodi:linespacing="125%"
         id="text7083"
         y="191.80074"
         x="167.20778"
         style="font-size:32px;font-style:normal;font-weight:normal;line-height:125%;letter-spacing:0px;word-spacing:0px;fill:#000000;fill-opacity:1;stroke:none;font-family:Sans"
         xml:space="preserve"><tspan
           y="191.80074"
           x="167.20778"
           id="tspan7085"
           sodipodi:role="line">1</tspan></text>
<text
         transform="scale(1,-1)"
         sodipodi:linespacing="125%"
         id="text7087"
         y="192.01167"
         x="254.29343"
         style="font-size:32px;font-style:normal;font-weight:normal;line-height:125%;letter-spacing:0px;word-spacing:0px;fill:#000000;fill-opacity:1;stroke:none;font-family:Sans"
         xml:space="preserve"><tspan
           y="192.01167"
           x="254.29343"
           id="tspan7089"
           sodipodi:role="line">2</tspan></text>
<text
         transform="scale(1,-1)"
         sodipodi:linespacing="125%"
         id="text7091"
         y="191.78511"
         x="340.30096"
         style="font-size:32px;font-style:normal;font-weight:normal;line-height:125%;letter-spacing:0px;word-spacing:0px;fill:#000000;fill-opacity:1;stroke:none;font-family:Sans"
         xml:space="preserve"><tspan
           y="191.78511"
           x="340.30096"
           id="tspan7093"
           sodipodi:role="line">3</tspan></text>
<text
         transform="scale(1,-1)"
         sodipodi:linespacing="125%"
         id="text7095"
         y="191.80074"
         x="426.73032"
         style="font-size:32px;font-style:normal;font-weight:normal;line-height:125%;letter-spacing:0px;word-spacing:0px;fill:#000000;fill-opacity:1;stroke:none;font-family:Sans"
         xml:space="preserve"><tspan
           y="191.80074"
           x="426.73032"
           id="tspan7097"
           sodipodi:role="line">4</tspan></text>
<text
         transform="scale(1,-1)"
         sodipodi:linespacing="125%"
         id="text7099"
         y="191.57417"
         x="513.15192"
         style="font-size:32px;font-style:normal;font-weight:normal;line-height:125%;letter-spacing:0px;word-spacing:0px;fill:#000000;fill-opacity:1;stroke:none;font-family:Sans"
         xml:space="preserve"><tspan
           y="191.57417"
           x="513.15192"
           id="tspan7101"
           sodipodi:role="line">5</tspan></text>
</g><text
       xml:space="preserve"
       style="font-size:32px;font-style:normal;font-weight:normal;line-height:125%;letter-spacing:0px;word-spacing:0px;fill:#000000;fill-opacity:1;stroke:none;font-family:Sans"
       x="104.28125"
       y="-20.488613"
       id="text7103"
       sodipodi:linespacing="125%"
       transform="scale(1,-1)"><tspan
         sodipodi:role="line"
         id="tspan7105"
         x="104.28125"
         y="-20.488613">carrier concentration (%)</tspan></text>
<g
       id="g8403"
       transform="matrix(1.1091502,0,0,1.1091502,-18.083122,-54.226318)"><g
         transform="translate(609.2,-326.4)"
         id="g8206"><path
           inkscape:connector-curvature="0"
           id="path790"
           style="fill:none;stroke:#ff0000;stroke-width:2;stroke-linecap:square;stroke-linejoin:round;stroke-miterlimit:10;stroke-opacity:1;stroke-dasharray:none"
           d="m -486.50424,803.56683 40,0" /><path
           inkscape:connector-curvature="0"
           id="path792"
           style="fill:none;fill-opacity:1;fill-rule:nonzero;stroke:#ff0000;stroke-width:2;stroke-linecap:butt;stroke-linejoin:miter;stroke-miterlimit:10;stroke-opacity:1;stroke-dasharray:none"
           d="m -471.50424,798.56683 10,0 0,10 -10,0 0,-10 z" /></g><g
         transform="translate(609.2,-297.6)"
         id="g8210"><path
           inkscape:connector-curvature="0"
           id="path916"
           style="fill:none;stroke:#0000ff;stroke-width:2;stroke-linecap:square;stroke-linejoin:round;stroke-miterlimit:10;stroke-opacity:1;stroke-dasharray:none"
           d="m -486.50424,742.6405 40,0" /><path
           inkscape:connector-curvature="0"
           id="path918"
           style="fill:none;fill-opacity:1;fill-rule:nonzero;stroke:#0000ff;stroke-width:2;stroke-linecap:butt;stroke-linejoin:miter;stroke-miterlimit:10;stroke-opacity:1;stroke-dasharray:none"
           d="m -466.50424,747.6405 -5,-10 10,0 -5,10 z" /></g><text
         transform="scale(1,-1)"
         sodipodi:linespacing="125%"
         id="text8163"
         y="-471.20001"
         x="170"
         style="font-size:16px;font-style:normal;font-variant:normal;font-weight:normal;font-stretch:normal;line-height:125%;letter-spacing:0px;word-spacing:0px;fill:#000000;fill-opacity:1;stroke:none;font-family:Monospace;-inkscape-font-specification:Monospace"
         xml:space="preserve"><tspan
           style="font-size:16px;font-style:normal;font-variant:normal;font-weight:normal;font-stretch:normal;font-family:Monospace;-inkscape-font-specification:Monospace"
           y="-471.20001"
           x="170"
           id="tspan8165"
           sodipodi:role="line">CPU 1.708x<tspan
   id="tspan8169"
   style="font-size:16px;font-style:normal;font-variant:normal;font-weight:normal;font-stretch:normal;baseline-shift:super;font-family:Monospace;-inkscape-font-specification:Monospace">2</tspan>-0.107x+0.171</tspan></text>
<text
         transform="scale(1,-1)"
         sodipodi:linespacing="125%"
         id="text8163-1"
         y="-440.50772"
         x="170.28906"
         style="font-size:16px;font-style:normal;font-variant:normal;font-weight:normal;font-stretch:normal;line-height:125%;letter-spacing:0px;word-spacing:0px;fill:#000000;fill-opacity:1;stroke:none;font-family:Monospace;-inkscape-font-specification:Monospace"
         xml:space="preserve"><tspan
           style="font-size:16px;font-style:normal;font-variant:normal;font-weight:normal;font-stretch:normal;font-family:Monospace;-inkscape-font-specification:Monospace"
           y="-440.50772"
           x="170.28906"
           id="tspan8165-1"
           sodipodi:role="line">GPU 0.067x<tspan
   id="tspan8169-6"
   style="font-size:16px;font-style:normal;font-variant:normal;font-weight:normal;font-stretch:normal;baseline-shift:super;font-family:Monospace;-inkscape-font-specification:Monospace">2</tspan>-0.145x+0.179</tspan></text>
</g><g
       id="g8382"
       transform="matrix(1.3966827,0,0,1.3966827,-90.589384,-138.63381)"><text
         transform="scale(1,-1)"
         sodipodi:linespacing="125%"
         id="text8244"
         y="-343.75357"
         x="148.5276"
         style="font-size:16px;font-style:normal;font-weight:normal;line-height:125%;letter-spacing:0px;word-spacing:0px;fill:#000000;fill-opacity:1;stroke:none;font-family:Monospace;-inkscape-font-specification:Monospace"
         xml:space="preserve"><tspan
           y="-343.75357"
           x="148.5276"
           id="tspan8246"
           sodipodi:role="line">256<tspan
   id="tspan8262"
   style="font-size:16px;baseline-shift:super;font-family:Monospace;-inkscape-font-specification:Monospace">2</tspan></tspan></text>
<text
         transform="scale(1,-1)"
         sodipodi:linespacing="125%"
         id="text8264"
         y="-346.96451"
         x="198.18727"
         style="font-size:16px;font-style:normal;font-weight:normal;line-height:125%;letter-spacing:0px;word-spacing:0px;fill:#000000;fill-opacity:1;stroke:none;font-family:Monospace;-inkscape-font-specification:Monospace"
         xml:space="preserve"><tspan
           y="-346.96451"
           x="198.18727"
           id="tspan8266"
           sodipodi:role="line">grid size</tspan></text>
<text
         transform="scale(1,-1)"
         sodipodi:linespacing="125%"
         id="text8248"
         y="-318.70581"
         x="162.86354"
         style="font-size:16px;font-style:normal;font-weight:normal;line-height:125%;letter-spacing:0px;word-spacing:0px;fill:#000000;fill-opacity:1;stroke:none;font-family:Monospace;-inkscape-font-specification:Monospace"
         xml:space="preserve"><tspan
           y="-318.70581"
           x="162.86354"
           id="tspan8250"
           sodipodi:role="line">4</tspan></text>
<text
         transform="scale(1,-1)"
         sodipodi:linespacing="125%"
         id="text8268"
         y="-318.93237"
         x="197.62477"
         style="font-size:16px;font-style:normal;font-weight:normal;line-height:125%;letter-spacing:0px;word-spacing:0px;fill:#000000;fill-opacity:1;stroke:none;font-family:Monospace;-inkscape-font-specification:Monospace"
         xml:space="preserve"><tspan
           y="-318.93237"
           x="197.62477"
           id="tspan8270"
           sodipodi:role="line">cores</tspan></text>
<text
         transform="scale(1,-1)"
         sodipodi:linespacing="125%"
         id="text8252"
         y="-290.33304"
         x="153.17995"
         style="font-size:16px;font-style:normal;font-weight:normal;line-height:125%;letter-spacing:0px;word-spacing:0px;fill:#000000;fill-opacity:1;stroke:none;font-family:Monospace;-inkscape-font-specification:Monospace"
         xml:space="preserve"><tspan
           y="-290.33304"
           x="153.17995"
           id="tspan8254"
           sodipodi:role="line">256</tspan></text>
<text
         transform="scale(1,-1)"
         sodipodi:linespacing="125%"
         id="text8272"
         y="-290.33304"
         x="199.14821"
         style="font-size:16px;font-style:normal;font-weight:normal;line-height:125%;letter-spacing:0px;word-spacing:0px;fill:#000000;fill-opacity:1;stroke:none;font-family:Monospace;-inkscape-font-specification:Monospace"
         xml:space="preserve"><tspan
           y="-290.33304"
           x="199.14821"
           id="tspan8274"
           sodipodi:role="line">work size</tspan></text>
<text
         transform="scale(1,-1)"
         sodipodi:linespacing="125%"
         id="text8256"
         y="-259.13919"
         x="152.67604"
         style="font-size:16px;font-style:normal;font-weight:normal;line-height:125%;letter-spacing:0px;word-spacing:0px;fill:#000000;fill-opacity:1;stroke:none;font-family:Monospace;-inkscape-font-specification:Monospace"
         xml:space="preserve"><tspan
           y="-259.13919"
           x="152.67604"
           id="tspan8258"
           sodipodi:role="line">10<tspan
   id="tspan8260"
   style="font-size:16px;baseline-shift:super;font-family:Monospace;-inkscape-font-specification:Monospace">4</tspan></tspan></text>
<text
         transform="scale(1,-1)"
         sodipodi:linespacing="125%"
         id="text8276"
         y="-262.24075"
         x="197.48415"
         style="font-size:16px;font-style:normal;font-weight:normal;line-height:125%;letter-spacing:0px;word-spacing:0px;fill:#000000;fill-opacity:1;stroke:none;font-family:Monospace;-inkscape-font-specification:Monospace"
         xml:space="preserve"><tspan
           y="-262.24075"
           x="197.48415"
           id="tspan8278"
           sodipodi:role="line">steps</tspan></text>
<path
         inkscape:connector-curvature="0"
         id="path8306"
         d="m 191.6,362.8 0,-112.4"
         style="fill:none;stroke:#000000;stroke-width:1.60000002;stroke-linecap:butt;stroke-linejoin:miter;stroke-miterlimit:4;stroke-opacity:1;stroke-dasharray:none" /></g></g></svg>