<?xml version="1.0" encoding="UTF-8" standalone="no"?>
<!-- Created with Inkscape (http://www.inkscape.org/) -->

<svg
   xmlns:dc="http://purl.org/dc/elements/1.1/"
   xmlns:cc="http://creativecommons.org/ns#"
   xmlns:rdf="http://www.w3.org/1999/02/22-rdf-syntax-ns#"
   xmlns:svg="http://www.w3.org/2000/svg"
   xmlns="http://www.w3.org/2000/svg"
   xmlns:sodipodi="http://sodipodi.sourceforge.net/DTD/sodipodi-0.dtd"
   xmlns:inkscape="http://www.inkscape.org/namespaces/inkscape"
   id="svg2"
   version="1.1"
   inkscape:version="0.48.5 r10040"
   width="317.40581"
   height="319.16367"
   xml:space="preserve"
   sodipodi:docname="IVCurveT.pdf"><metadata
     id="metadata8"><rdf:RDF><cc:Work
         rdf:about=""><dc:format>image/svg+xml</dc:format><dc:type
           rdf:resource="http://purl.org/dc/dcmitype/StillImage" /><dc:title></dc:title></cc:Work></rdf:RDF></metadata><defs
     id="defs6" /><sodipodi:namedview
     pagecolor="#ffffff"
     bordercolor="#666666"
     borderopacity="1"
     objecttolerance="10"
     gridtolerance="10"
     guidetolerance="10"
     inkscape:pageopacity="0"
     inkscape:pageshadow="2"
     inkscape:window-width="640"
     inkscape:window-height="480"
     id="namedview4"
     showgrid="false"
     inkscape:zoom="0.73943254"
     inkscape:cx="158.70291"
     inkscape:cy="159.58183"
     inkscape:window-x="49"
     inkscape:window-y="24"
     inkscape:window-maximized="0"
     inkscape:current-layer="g10" /><g
     id="g10"
     inkscape:groupmode="layer"
     inkscape:label="IVCurveT"
     transform="matrix(1.25,0,0,-1.25,0,319.16367)"><g
       id="g12"><path
         d="m 118.762,13.034 c 0.019,-0.09 0.027,-0.141 0.097,-0.426 0.168,-0.691 0.864,-1.113 1.551,-0.945 0.692,0.168 1.113,0.863 0.945,1.555 -0.167,0.687 -0.863,1.113 -1.554,0.941 -0.688,-0.168 -1.113,-0.863 -0.942,-1.551 0.004,-0.015 0.051,-0.226 0.141,-0.547 0.195,-0.683 0.906,-1.078 1.59,-0.882 0.68,0.195 1.078,0.906 0.883,1.589 -0.196,0.684 -0.907,1.079 -1.59,0.883 -0.684,-0.195 -1.078,-0.906 -0.883,-1.59 0.066,-0.238 0.195,-0.734 0.359,-1.214 0.231,-0.672 0.961,-1.032 1.633,-0.801 0.672,0.23 1.031,0.961 0.801,1.633 -0.231,0.671 -0.961,1.027 -1.633,0.8 -0.672,-0.23 -1.031,-0.961 -0.801,-1.632 0.168,-0.485 0.387,-1.02 0.579,-1.528 0.203,-0.535 0.429,-1.109 0.632,-1.66 0.219,-0.578 0.438,-1.148 0.614,-1.676 0.164,-0.5 0.304,-1.035 0.437,-1.515 0.129,-0.473 0.234,-0.914 0.324,-1.286 0.086,-0.351 0.137,-0.644 0.207,-0.945 0.063,-0.273 0.125,-0.504 0.172,-0.68 0.059,-0.207 0.11,-0.363 0.137,-0.445 0.031,-0.097 0.074,-0.238 0.227,-0.539 0.394,-0.59 1.191,-0.75 1.781,-0.355 0.593,0.39 0.754,1.191 0.359,1.781 -0.394,0.59 -1.191,0.75 -1.785,0.359 -0.59,-0.394 -0.75,-1.195 -0.355,-1.785 -0.145,0.34 2.359,0.512 2.347,0.422 0.188,0.684 -0.215,1.395 -0.898,1.582 -0.684,0.188 -1.395,-0.215 -1.582,-0.898 -0.188,-0.688 0.215,-1.395 0.898,-1.582 0.688,-0.188 1.395,0.214 1.582,0.898 0.035,0.156 0.051,0.262 0.078,0.387 0.039,0.16 0.094,0.386 0.16,0.652 0.075,0.297 0.141,0.594 0.239,0.934 0.101,0.347 0.211,0.714 0.363,1.136 0.16,0.453 0.344,0.95 0.563,1.465 0.218,0.516 0.492,1.071 0.792,1.719 0.278,0.609 0.629,1.355 0.918,2.004 0.286,0.652 -0.007,1.41 -0.656,1.699 -0.648,0.289 -1.406,-0.004 -1.695,-0.656 -0.289,-0.649 0.004,-1.406 0.652,-1.695 0.649,-0.29 1.41,0.003 1.699,0.652 0.29,0.656 0.563,1.297 0.813,1.902 0.273,0.656 -0.039,1.406 -0.695,1.676 -0.657,0.273 -1.411,-0.039 -1.68,-0.695 -0.274,-0.657 0.039,-1.41 0.695,-1.68 0.657,-0.27 1.41,0.043 1.68,0.699 0.262,0.629 0.516,1.309 0.695,1.758 0.266,0.656 -0.051,1.406 -0.711,1.672 -0.66,0.266 -1.406,-0.055 -1.672,-0.711 -0.265,-0.66 0.051,-1.41 0.711,-1.676 0.661,-0.265 1.407,0.055 1.672,0.715 0.36,0.887 0.629,1.539 0.949,2.316 0.266,0.657 -0.046,1.411 -0.707,1.676 -0.656,0.27 -1.406,-0.047 -1.675,-0.703 -0.313,-0.769 -0.59,-1.43 -0.95,-2.328 -0.195,-0.481 -0.445,-1.152 -0.687,-1.738 -0.242,-0.586 -0.504,-1.2 -0.789,-1.84 -0.277,-0.621 -0.621,-1.356 -0.902,-1.973 -0.286,-0.617 -0.575,-1.199 -0.825,-1.785 -0.242,-0.574 -0.453,-1.141 -0.621,-1.613 -0.168,-0.481 -0.301,-0.918 -0.406,-1.278 -0.117,-0.41 -0.199,-0.761 -0.266,-1.027 -0.07,-0.277 -0.129,-0.527 -0.168,-0.707 -0.05,-0.211 -0.074,-0.367 -0.054,-0.273 -0.063,-0.282 2.472,-0.102 2.273,0.32 0.133,-0.274 0.117,-0.219 0.082,-0.109 -0.035,0.117 -0.066,0.207 -0.105,0.347 -0.043,0.16 -0.09,0.34 -0.149,0.582 -0.054,0.238 -0.109,0.551 -0.211,0.965 -0.09,0.379 -0.207,0.856 -0.343,1.363 -0.129,0.473 -0.29,1.067 -0.477,1.637 -0.195,0.598 -0.434,1.211 -0.645,1.773 -0.21,0.571 -0.441,1.157 -0.64,1.68 -0.203,0.531 -0.406,1.035 -0.547,1.442 -0.133,0.382 -0.242,0.812 -0.32,1.089 -0.078,0.266 -0.102,0.391 -0.118,0.45 -0.058,0.242 -0.046,0.203 -0.085,0.382 -0.157,0.692 -0.844,1.125 -1.536,0.969 -0.695,-0.152 -1.129,-0.844 -0.972,-1.535 z"
         style="fill:#000000;fill-opacity:1;fill-rule:nonzero;stroke:none"
         id="path14" /><path
         d="m 2.355,135.554 c 0.18,0.308 0.063,0.148 0.063,0.121 0.484,0.519 0.457,1.332 -0.063,1.816 -0.519,0.484 -1.332,0.457 -1.816,-0.062 -0.484,-0.516 -0.457,-1.332 0.063,-1.817 0.519,-0.484 1.332,-0.457 1.816,0.063 -0.148,-0.129 -0.059,-0.067 0.086,0.039 0.566,0.426 0.684,1.234 0.258,1.801 -0.426,0.57 -1.235,0.683 -1.801,0.257 -0.57,-0.425 -0.684,-1.23 -0.258,-1.8 0.426,-0.567 1.231,-0.684 1.801,-0.258 0.168,0.129 0.34,0.277 0.418,0.32 0.601,0.379 0.785,1.172 0.41,1.773 -0.379,0.602 -1.172,0.786 -1.773,0.411 -0.602,-0.379 -0.786,-1.172 -0.407,-1.774 0.375,-0.601 1.168,-0.785 1.77,-0.41 0.094,0.063 0.18,0.098 0.34,0.168 0.125,0.055 0.179,0.074 0.258,0.094 0.093,0.023 0.093,0.027 0.089,0.019 0.309,0.016 -0.168,0.098 -0.644,0.371 0.473,-0.531 1.285,-0.578 1.816,-0.109 0.531,0.473 0.578,1.285 0.106,1.816 -0.469,0.532 -1.282,0.579 -1.813,0.106 -0.531,-0.469 -0.578,-1.281 -0.109,-1.813 -0.016,0.032 -0.121,0.297 -0.125,0.2 0.027,-0.2 0.023,-0.496 -0.004,-0.95 -0.027,-0.453 -0.102,-1.054 -0.184,-1.707 -0.078,-0.613 -0.187,-1.371 -0.285,-2.047 -0.09,-0.66 -0.215,-1.347 -0.289,-2.05 -0.074,-0.707 -0.109,-1.407 -0.133,-2.051 -0.027,-0.645 -0.031,-1.316 -0.035,-1.856 -0.004,-0.535 -0.035,-1.101 0.004,-1.648 0.043,-0.488 0.133,-1.082 0.313,-1.551 0.144,-0.351 0.593,-1.023 1.246,-1.359 0.472,-0.16 1.375,-0.207 2.078,0.07 0.644,0.297 0.926,1.063 0.625,1.707 -0.301,0.645 -1.063,0.922 -1.707,0.625 -0.645,-0.301 -0.926,-1.066 -0.625,-1.711 0.301,-0.64 1.062,-0.922 1.707,-0.621 0.578,0.289 1.195,0.844 1.629,1.367 0.453,0.547 0.371,1.36 -0.176,1.809 -0.551,0.453 -1.359,0.371 -1.809,-0.176 -0.453,-0.551 -0.371,-1.359 0.176,-1.812 0.547,-0.45 1.359,-0.371 1.809,0.179 0.402,0.493 0.902,1.254 1.211,1.977 0.273,0.652 -0.036,1.406 -0.692,1.68 -0.652,0.273 -1.406,-0.036 -1.679,-0.692 -0.274,-0.656 0.035,-1.406 0.691,-1.679 0.656,-0.274 1.406,0.035 1.68,0.691 0.316,0.789 0.418,1.601 0.57,2.184 0.176,0.687 -0.242,1.386 -0.93,1.562 -0.687,0.172 -1.386,-0.242 -1.562,-0.93 -0.188,-0.754 -0.254,-1.39 -0.449,-1.828 -0.196,-0.488 -0.512,-0.957 -0.825,-1.332 -0.316,-0.387 -0.543,-0.605 -0.726,-0.668 -0.039,-0.07 -0.024,-0.039 -0.086,0.004 0.129,-0.137 0.324,-0.324 0.226,-0.086 -0.07,0.149 -0.097,0.387 -0.132,0.801 -0.032,0.352 0,0.812 0.003,1.41 0.004,0.555 0.008,1.184 0.032,1.774 0.027,0.64 0.054,1.261 0.121,1.894 0.062,0.606 0.179,1.246 0.281,1.957 0.094,0.668 0.211,1.442 0.289,2.09 0.082,0.652 0.164,1.32 0.199,1.855 0.032,0.528 0.032,1.036 -0.007,1.407 -0.063,0.457 -0.325,1 -0.508,1.218 -0.649,0.465 -1.34,0.481 -1.278,0.497 -0.246,-0.008 -0.543,-0.055 -0.738,-0.106 -0.203,-0.055 -0.445,-0.144 -0.633,-0.223 -0.164,-0.074 -0.429,-0.195 -0.679,-0.343 -0.258,-0.168 -0.508,-0.379 -0.598,-0.446 -0.106,-0.078 -0.234,-0.168 -0.426,-0.343 -0.254,-0.301 -0.371,-0.567 -0.32,-0.45 -0.395,-0.589 -0.235,-1.39 0.359,-1.781 0.59,-0.394 1.387,-0.234 1.781,0.356 z"
         style="fill:#000000;fill-opacity:1;fill-rule:nonzero;stroke:none"
         id="path16" /><path
         d="m 1.617,145.475 c 0.082,-0.078 0.16,-0.16 0.238,-0.238 0.504,-0.5 1.317,-0.5 1.821,0 0.5,0.504 0.5,1.317 0,1.82 -0.078,0.079 -0.16,0.157 -0.238,0.239 -0.504,0.5 -1.317,0.5 -1.821,0 -0.5,-0.504 -0.5,-1.317 0,-1.821 z"
         style="fill:#000000;fill-opacity:1;fill-rule:nonzero;stroke:none"
         id="path18" /><path
         d="m 41.336,29.167 0,0.527 c 0,1.332 -1.078,2.41 -2.41,2.41 -1.332,0 -2.41,-1.078 -2.41,-2.41 0,-1.332 1.078,-2.41 2.41,-2.41 1.332,0 2.41,1.078 2.41,2.41 l 0,0.387 c 0,1.332 -1.078,2.41 -2.41,2.41 -1.332,0 -2.41,-1.078 -2.41,-2.41 0,-1.332 1.078,-2.41 2.41,-2.41 1.332,0 2.41,1.078 2.41,2.41 l 0,0.703 c 0,1.332 -1.078,2.41 -2.41,2.41 -1.332,0 -2.41,-1.078 -2.41,-2.41 0,-1.332 1.078,-2.41 2.41,-2.41 1.332,0 2.41,1.078 2.41,2.41 0,0.289 -0.012,0.371 -0.004,0.414 0.012,0.176 0,0.145 0.012,0.16 0,0.028 0.039,0.11 0.125,0.352 0.051,0.14 0.152,0.363 0.273,0.68 0.098,0.257 0.207,0.554 0.305,0.839 0.129,0.371 0.18,0.598 0.242,0.739 0.063,0.164 0.203,0.425 0.387,0.832 0.133,0.293 0.301,0.668 0.469,1.093 0.148,0.387 0.324,0.868 0.476,1.356 0.281,0.91 0.527,1.84 0.781,2.695 0.106,0.36 0.278,0.821 0.438,1.387 0.148,0.555 0.262,1.094 0.371,1.559 0.113,0.472 0.234,0.976 0.355,1.488 0.125,0.551 0.227,1.066 0.34,1.496 0.11,0.445 0.25,0.875 0.403,1.414 0.129,0.445 0.296,0.977 0.441,1.539 0.148,0.598 0.246,1.133 0.355,1.563 0.114,0.464 0.258,0.933 0.411,1.511 0.148,0.555 0.277,1.114 0.41,1.571 0.133,0.468 0.301,0.941 0.472,1.484 0.168,0.527 0.325,1.035 0.489,1.531 0.16,0.496 0.308,0.957 0.476,1.43 0.164,0.473 0.36,0.98 0.559,1.535 0.191,0.539 0.379,1.078 0.57,1.648 0.196,0.575 0.375,1.157 0.555,1.661 0.183,0.523 0.414,1.089 0.621,1.656 0.215,0.578 0.367,1.043 0.551,1.515 0.179,0.465 0.398,0.973 0.617,1.504 0.211,0.516 0.414,1.004 0.637,1.559 0.226,0.562 0.468,1.168 0.707,1.766 0.215,0.535 0.484,1.16 0.726,1.828 0.246,0.672 0.469,1.375 0.668,1.988 0.207,0.656 0.371,1.227 0.567,1.84 0.183,0.59 0.429,1.305 0.64,1.996 0.219,0.73 0.367,1.352 0.559,1.953 0.187,0.617 0.465,1.348 0.703,2.113 0.227,0.746 0.387,1.422 0.559,1.957 0.168,0.543 0.414,1.141 0.632,1.832 0.215,0.684 0.348,1.25 0.508,1.813 0.172,0.598 0.36,1.238 0.551,1.855 0.199,0.645 0.402,1.282 0.613,1.907 0.219,0.648 0.446,1.285 0.676,1.894 0.211,0.563 0.445,1.11 0.688,1.715 0.253,0.633 0.449,1.195 0.664,1.668 0.214,0.48 0.488,0.961 0.808,1.613 0.285,0.586 0.57,1.196 0.844,1.758 0.266,0.543 0.637,1.199 0.957,1.914 0.32,0.738 0.516,1.363 0.738,1.918 0.231,0.582 0.52,1.266 0.77,1.883 0.258,0.648 0.449,1.168 0.687,1.723 0.242,0.574 0.543,1.218 0.828,1.863 0.258,0.586 0.524,1.164 0.789,1.797 0.282,0.668 0.524,1.328 0.766,1.879 0.25,0.578 0.508,1.105 0.82,1.773 0.297,0.649 0.598,1.34 0.883,1.906 0.289,0.578 0.61,1.145 0.942,1.746 0.336,0.61 0.621,1.133 0.957,1.711 0.3,0.52 0.679,1.11 1.058,1.762 0.371,0.641 0.735,1.313 1.082,1.949 0.364,0.668 0.711,1.328 1.067,1.989 0.343,0.644 0.726,1.363 1.05,1.964 0.325,0.598 0.61,1.11 0.922,1.7 0.309,0.582 0.629,1.187 0.942,1.812 0.312,0.625 0.566,1.207 0.844,1.758 0.3,0.598 0.636,1.25 0.953,1.836 0.32,0.598 0.605,1.105 0.945,1.691 0.324,0.555 0.672,1.133 1.019,1.696 0.364,0.589 0.715,1.148 1.075,1.683 0.375,0.555 0.742,1.067 1.136,1.602 0.36,0.488 0.754,0.976 1.164,1.508 0.403,0.515 0.817,1.05 1.204,1.554 0.398,0.52 0.734,0.969 1.125,1.477 0.367,0.48 0.796,1.031 1.191,1.539 0.414,0.539 0.789,1.039 1.172,1.523 0.402,0.504 0.808,1 1.23,1.5 0.418,0.5 0.809,0.969 1.207,1.41 0.407,0.45 0.821,0.875 1.274,1.34 0.429,0.442 0.898,0.887 1.406,1.407 0.488,0.503 0.969,1.027 1.406,1.476 0.407,0.418 0.938,0.891 1.469,1.473 0.535,0.597 0.965,1.183 1.332,1.621 0.387,0.465 0.766,0.906 1.176,1.387 0.449,0.527 0.82,1.007 1.18,1.382 0.386,0.407 0.761,0.739 1.281,1.211 0.469,0.422 1.039,0.914 1.551,1.348 0.5,0.426 0.988,0.805 1.523,1.246 0.535,0.438 1.098,0.899 1.641,1.356 0.496,0.414 1.015,0.847 1.543,1.324 0.562,0.512 1.054,1.027 1.476,1.406 0.461,0.414 0.891,0.77 1.406,1.207 0.508,0.422 0.997,0.844 1.454,1.191 0.457,0.344 0.972,0.672 1.543,1.067 0.566,0.394 1.078,0.766 1.578,1.101 0.472,0.313 0.972,0.618 1.504,0.957 0.527,0.336 1.05,0.668 1.535,0.977 0.511,0.32 0.922,0.578 1.437,0.887 0.492,0.297 1.094,0.64 1.664,0.972 0.578,0.336 1.117,0.657 1.668,0.973 0.582,0.332 1.145,0.66 1.692,0.949 0.527,0.282 1.054,0.535 1.601,0.797 0.551,0.266 1.074,0.508 1.613,0.742 0.508,0.223 1.055,0.426 1.688,0.703 0.625,0.274 1.164,0.555 1.656,0.758 0.516,0.219 1.137,0.434 1.774,0.684 0.648,0.254 1.175,0.484 1.722,0.687 0.547,0.204 1.157,0.411 1.75,0.606 0.559,0.187 1.125,0.351 1.758,0.562 0.645,0.215 1.258,0.446 1.828,0.633 0.543,0.184 1.125,0.352 1.758,0.563 0.645,0.215 1.242,0.437 1.832,0.632 0.625,0.211 1.238,0.407 1.922,0.622 0.609,0.187 1.414,0.402 2.156,0.648 0.774,0.258 1.379,0.523 1.926,0.711 0.563,0.195 1.227,0.367 1.992,0.641 0.766,0.277 1.367,0.57 1.946,0.765 0.617,0.215 1.433,0.422 2.265,0.684 0.836,0.265 1.567,0.535 2.32,0.773 0.704,0.227 1.543,0.461 2.313,0.703 0.805,0.25 1.488,0.493 2.168,0.7 0.723,0.218 1.363,0.414 2.094,0.605 0.687,0.184 1.468,0.359 2.261,0.551 0.797,0.187 1.602,0.383 2.36,0.555 0.734,0.164 1.531,0.304 2.351,0.5 0.836,0.199 1.485,0.421 2.082,0.554 0.633,0.145 1.368,0.246 2.196,0.41 0.816,0.164 1.558,0.344 2.304,0.489 0.723,0.14 1.578,0.273 2.371,0.418 0.809,0.148 1.497,0.3 2.165,0.421 0.707,0.125 1.347,0.223 2.125,0.34 0.734,0.114 1.57,0.235 2.371,0.352 0.793,0.113 1.668,0.223 2.504,0.355 0.859,0.141 1.636,0.305 2.351,0.426 0.668,0.117 1.375,0.211 2.16,0.363 0.813,0.161 1.535,0.364 2.196,0.497 0.707,0.144 1.461,0.265 2.273,0.41 0.785,0.144 1.578,0.308 2.262,0.414 0.687,0.109 1.379,0.176 2.121,0.273 0.73,0.094 1.402,0.188 2.117,0.281 0.672,0.09 1.391,0.176 2.137,0.286 0.761,0.109 1.535,0.242 2.273,0.355 0.774,0.117 1.547,0.242 2.289,0.348 0.719,0.101 1.446,0.195 2.125,0.273 0.699,0.082 1.328,0.149 1.969,0.203 0.617,0.055 1.219,0.078 1.969,0.141 0.679,0.058 1.453,0.137 2.176,0.219 0.773,0.089 1.527,0.207 2.183,0.281 0.684,0.078 1.352,0.133 2.078,0.207 0.676,0.07 1.41,0.141 2.059,0.211 0.64,0.07 1.262,0.133 1.894,0.223 0.66,0.089 1.231,0.195 1.805,0.285 0.625,0.101 1.203,0.211 1.727,0.269 0.55,0.063 1.144,0.094 1.765,0.129 0.606,0.035 1.164,0.055 1.739,0.067 1.332,0.027 2.39,1.128 2.363,2.457 -0.028,1.332 -1.129,2.39 -2.457,2.363 -1.332,-0.028 -2.391,-1.125 -2.364,-2.457 0.028,-1.332 1.129,-2.391 2.458,-2.363 0.527,0.011 1.093,0 1.64,0 1.332,0 2.41,1.078 2.41,2.41 0,1.332 -1.078,2.41 -2.41,2.41 -1.332,0 -2.41,-1.078 -2.41,-2.41 0,-1.332 1.078,-2.41 2.41,-2.41 l 2.887,0 c 1.328,0 2.41,1.078 2.41,2.41 0,1.332 -1.082,2.41 -2.41,2.41 -1.332,0 -2.414,-1.078 -2.414,-2.41 0,-1.332 1.082,-2.41 2.414,-2.41 0.387,0 0.801,-0.012 1.265,0 1.332,0.039 2.379,1.152 2.34,2.48 -0.039,1.332 -1.152,2.379 -2.48,2.34 -1.332,-0.039 -2.379,-1.149 -2.34,-2.481 0.039,-1.332 1.148,-2.379 2.48,-2.339 0.473,0.015 0.915,0.054 1.27,0.074 0.391,0.023 0.754,0.047 1.129,0.07 0.398,0.027 0.789,0.059 1.059,0.066 1.332,0.047 2.374,1.165 2.328,2.493 -0.047,1.332 -1.164,2.375 -2.493,2.328 -1.332,-0.047 -2.371,-1.16 -2.328,-2.492 0.047,-1.332 1.164,-2.372 2.493,-2.329 0.261,0.012 0.507,0 0.832,0 1.332,0 2.41,1.079 2.41,2.411 0,1.332 -1.078,2.41 -2.41,2.41 -1.332,0 -2.411,-1.078 -2.411,-2.41 0,-1.332 1.079,-2.411 2.411,-2.411 l 1.476,0 c 1.332,0 2.414,1.079 2.414,2.411 0,1.332 -1.082,2.41 -2.414,2.41 -1.328,0 -2.41,-1.078 -2.41,-2.41 0,-1.332 1.082,-2.411 2.41,-2.411 0.145,0 0.402,-0.011 0.734,0.008 1.329,0.094 2.329,1.246 2.235,2.574 -0.094,1.329 -1.25,2.329 -2.578,2.235 -1.325,-0.094 -2.325,-1.25 -2.231,-2.578 0.094,-1.328 1.246,-2.328 2.574,-2.231 0.313,0.024 0.75,0.102 1.332,0.317 1.188,0.597 1.672,2.043 1.079,3.234 -0.598,1.191 -2.047,1.676 -3.235,1.078 -1.191,-0.594 -1.676,-2.043 -1.078,-3.234 0.594,-1.192 2.043,-1.672 3.234,-1.078 0.821,0.55 1.29,1.316 0.907,0.734 0.941,0.941 0.941,2.469 0,3.41 -0.942,0.942 -2.469,0.942 -3.41,0 -0.571,-0.769 -0.086,-0.183 0.347,0.168 0.5,0.176 0.504,0.176 0.485,0.18 0.007,-0.004 -0.11,0.004 -0.395,0.004 l -1.476,0 c -0.227,0 -0.571,0.011 -0.997,0 -0.406,-0.016 -0.851,-0.051 -1.195,-0.074 -0.383,-0.024 -0.738,-0.047 -1.117,-0.071 -0.422,-0.023 -0.785,-0.058 -1.121,-0.066 -0.324,-0.012 -0.668,0 -1.125,0 l -2.887,0 c -0.496,0 -1.113,0.012 -1.734,0 -0.621,-0.012 -1.27,-0.035 -1.918,-0.074 -0.61,-0.032 -1.336,-0.075 -2.035,-0.153 -0.707,-0.082 -1.387,-0.207 -1.93,-0.293 -0.645,-0.101 -1.168,-0.199 -1.715,-0.273 -0.547,-0.078 -1.101,-0.133 -1.762,-0.203 -0.625,-0.071 -1.343,-0.141 -2.023,-0.211 -0.684,-0.071 -1.383,-0.129 -2.141,-0.215 -0.758,-0.086 -1.508,-0.203 -2.179,-0.281 -0.688,-0.078 -1.395,-0.149 -2.043,-0.203 -0.641,-0.055 -1.243,-0.079 -1.973,-0.141 -0.684,-0.063 -1.383,-0.133 -2.109,-0.219 -0.711,-0.082 -1.493,-0.183 -2.239,-0.289 -0.789,-0.109 -1.589,-0.238 -2.351,-0.355 -0.774,-0.121 -1.528,-0.246 -2.231,-0.348 -0.691,-0.102 -1.383,-0.187 -2.082,-0.277 -0.722,-0.098 -1.386,-0.188 -2.105,-0.282 -0.668,-0.089 -1.418,-0.164 -2.242,-0.293 -0.801,-0.125 -1.649,-0.296 -2.379,-0.429 -0.766,-0.141 -1.563,-0.27 -2.371,-0.434 -0.825,-0.168 -1.536,-0.367 -2.164,-0.488 -0.629,-0.125 -1.286,-0.207 -2.063,-0.344 -0.793,-0.137 -1.539,-0.293 -2.289,-0.414 -0.742,-0.121 -1.582,-0.226 -2.426,-0.348 -0.797,-0.113 -1.652,-0.238 -2.41,-0.355 -0.777,-0.117 -1.473,-0.223 -2.234,-0.359 -0.77,-0.137 -1.469,-0.289 -2.2,-0.426 -0.714,-0.133 -1.593,-0.266 -2.414,-0.426 -0.855,-0.168 -1.613,-0.352 -2.336,-0.496 -0.679,-0.137 -1.476,-0.246 -2.308,-0.434 -0.844,-0.195 -1.52,-0.425 -2.137,-0.57 -0.676,-0.16 -1.445,-0.297 -2.289,-0.484 -0.801,-0.18 -1.637,-0.383 -2.426,-0.571 -0.761,-0.179 -1.597,-0.371 -2.379,-0.578 -0.8,-0.211 -1.531,-0.429 -2.269,-0.656 -0.766,-0.234 -1.465,-0.481 -2.195,-0.707 -0.696,-0.219 -1.547,-0.461 -2.332,-0.707 -0.848,-0.274 -1.583,-0.539 -2.321,-0.774 -0.687,-0.222 -1.554,-0.441 -2.375,-0.722 -0.84,-0.293 -1.476,-0.602 -1.996,-0.785 -0.57,-0.203 -1.207,-0.371 -1.945,-0.621 -0.731,-0.254 -1.301,-0.508 -1.875,-0.696 -0.582,-0.195 -1.344,-0.394 -2.063,-0.621 -0.703,-0.215 -1.367,-0.43 -2.019,-0.648 -0.664,-0.219 -1.266,-0.446 -1.828,-0.633 -0.551,-0.184 -1.133,-0.352 -1.758,-0.563 -0.649,-0.214 -1.266,-0.445 -1.828,-0.632 -0.551,-0.184 -1.117,-0.348 -1.762,-0.563 -0.594,-0.195 -1.281,-0.426 -1.906,-0.66 -0.672,-0.25 -1.239,-0.5 -1.797,-0.719 -0.543,-0.215 -1.215,-0.445 -1.883,-0.726 -0.668,-0.282 -1.246,-0.579 -1.723,-0.786 -0.515,-0.226 -1.058,-0.429 -1.687,-0.703 -0.574,-0.254 -1.176,-0.527 -1.762,-0.808 -0.566,-0.274 -1.183,-0.574 -1.777,-0.891 -0.625,-0.332 -1.254,-0.691 -1.824,-1.019 -0.59,-0.336 -1.149,-0.672 -1.707,-0.997 -0.547,-0.316 -1.172,-0.675 -1.715,-1 -0.559,-0.335 -1.016,-0.625 -1.52,-0.941 -0.512,-0.32 -1.043,-0.664 -1.558,-0.992 -0.489,-0.309 -1.036,-0.641 -1.59,-1.012 -0.582,-0.387 -1.133,-0.785 -1.66,-1.152 -0.493,-0.344 -1.082,-0.723 -1.696,-1.184 -0.582,-0.441 -1.16,-0.937 -1.64,-1.34 -0.508,-0.425 -1.012,-0.843 -1.547,-1.328 -0.555,-0.504 -1.047,-1.015 -1.477,-1.406 -0.445,-0.402 -0.902,-0.777 -1.414,-1.207 -0.512,-0.434 -1.054,-0.879 -1.594,-1.32 -0.5,-0.41 -1.011,-0.813 -1.574,-1.285 -0.531,-0.454 -1.164,-0.997 -1.683,-1.465 -0.508,-0.461 -1.02,-0.922 -1.536,-1.461 -0.519,-0.555 -0.972,-1.129 -1.351,-1.574 -0.399,-0.469 -0.797,-0.93 -1.211,-1.43 -0.473,-0.567 -0.836,-1.07 -1.203,-1.473 -0.348,-0.387 -0.813,-0.797 -1.344,-1.34 -0.5,-0.511 -0.976,-1.035 -1.41,-1.476 -0.441,-0.457 -0.91,-0.903 -1.406,-1.41 -0.453,-0.461 -0.934,-0.957 -1.399,-1.473 -0.465,-0.512 -0.91,-1.051 -1.328,-1.547 -0.433,-0.516 -0.879,-1.059 -1.305,-1.594 -0.425,-0.539 -0.82,-1.062 -1.214,-1.574 -0.391,-0.504 -0.821,-1.058 -1.2,-1.555 -0.406,-0.527 -0.742,-0.976 -1.129,-1.476 -0.375,-0.488 -0.785,-1.016 -1.187,-1.539 -0.379,-0.492 -0.809,-1.02 -1.23,-1.59 -0.418,-0.566 -0.848,-1.168 -1.254,-1.773 -0.407,-0.602 -0.805,-1.239 -1.176,-1.836 -0.367,-0.594 -0.75,-1.231 -1.094,-1.821 -0.352,-0.613 -0.68,-1.191 -1.019,-1.824 -0.336,-0.621 -0.704,-1.332 -1.02,-1.965 -0.328,-0.656 -0.582,-1.238 -0.844,-1.758 -0.285,-0.574 -0.582,-1.129 -0.886,-1.707 -0.293,-0.547 -0.571,-1.047 -0.911,-1.675 -0.328,-0.61 -0.711,-1.332 -1.054,-1.973 -0.364,-0.676 -0.703,-1.32 -1.047,-1.957 -0.352,-0.637 -0.688,-1.258 -1.028,-1.848 -0.32,-0.551 -0.695,-1.133 -1.054,-1.754 -0.36,-0.625 -0.676,-1.199 -1.012,-1.808 -0.312,-0.571 -0.68,-1.219 -1.027,-1.91 -0.344,-0.692 -0.672,-1.446 -0.946,-2.036 -0.289,-0.621 -0.574,-1.207 -0.867,-1.882 -0.297,-0.68 -0.547,-1.356 -0.785,-1.918 -0.242,-0.575 -0.488,-1.118 -0.758,-1.723 -0.265,-0.602 -0.582,-1.281 -0.859,-1.938 -0.274,-0.652 -0.481,-1.207 -0.719,-1.792 -0.234,-0.586 -0.527,-1.286 -0.777,-1.915 -0.285,-0.714 -0.449,-1.25 -0.668,-1.742 -0.215,-0.492 -0.543,-1.07 -0.875,-1.742 -0.301,-0.617 -0.582,-1.226 -0.844,-1.762 -0.258,-0.523 -0.57,-1.078 -0.879,-1.761 C 58.242,98.436 58.012,97.788 57.793,97.241 57.57,96.682 57.316,96.093 57.07,95.44 56.824,94.784 56.57,94.073 56.34,93.393 56.113,92.722 55.891,92.018 55.688,91.362 55.484,90.702 55.285,90.018 55.109,89.417 54.918,88.741 54.801,88.233 54.637,87.714 54.484,87.222 54.234,86.62 54.004,85.886 53.781,85.171 53.621,84.491 53.438,83.909 53.246,83.284 52.969,82.554 52.734,81.796 52.504,81.054 52.348,80.413 52.168,79.811 51.984,79.21 51.746,78.518 51.539,77.866 51.328,77.194 51.168,76.636 50.98,76.05 50.781,75.425 50.586,74.811 50.379,74.241 50.188,73.714 49.945,73.155 49.703,72.55 49.461,71.948 49.223,71.35 49,70.8 48.785,70.265 48.586,69.788 48.371,69.261 48.172,68.772 47.938,68.222 47.723,67.671 47.5,67.097 47.336,66.597 47.148,66.089 46.961,65.585 46.723,64.987 46.504,64.37 46.289,63.765 46.102,63.159 45.93,62.655 45.742,62.1 45.562,61.593 45.379,61.069 45.203,60.577 45,60.054 44.809,59.507 c -0.18,-0.524 -0.348,-1.032 -0.508,-1.528 -0.172,-0.527 -0.332,-1.047 -0.496,-1.562 -0.153,-0.477 -0.34,-1.016 -0.512,-1.61 -0.168,-0.585 -0.309,-1.191 -0.434,-1.664 -0.132,-0.5 -0.289,-1.007 -0.433,-1.586 -0.145,-0.589 -0.238,-1.113 -0.348,-1.535 -0.109,-0.433 -0.258,-0.898 -0.406,-1.41 -0.133,-0.469 -0.289,-0.969 -0.438,-1.543 -0.144,-0.566 -0.257,-1.133 -0.363,-1.597 -0.113,-0.489 -0.234,-0.981 -0.351,-1.465 -0.129,-0.543 -0.219,-1.004 -0.329,-1.399 -0.097,-0.355 -0.25,-0.761 -0.41,-1.285 -0.277,-0.933 -0.515,-1.84 -0.765,-2.652 -0.114,-0.367 -0.235,-0.688 -0.368,-1.035 -0.113,-0.297 -0.234,-0.555 -0.378,-0.879 -0.102,-0.239 -0.282,-0.571 -0.458,-0.996 -0.167,-0.438 -0.257,-0.778 -0.32,-0.95 -0.086,-0.25 -0.172,-0.484 -0.258,-0.707 -0.066,-0.183 -0.175,-0.422 -0.289,-0.726 -0.074,-0.199 -0.203,-0.543 -0.297,-0.914 -0.082,-0.383 -0.117,-0.774 -0.128,-0.965 -0.016,-0.344 -0.004,-0.578 -0.004,-0.715 l 0,-1.617 c 0,-1.332 1.078,-2.41 2.41,-2.41 1.332,0 2.41,1.078 2.41,2.41 z"
         style="fill:#ed3624;fill-opacity:1;fill-rule:nonzero;stroke:none"
         id="path20" /><path
         d="m 27.441,25.542 c 0.672,0.238 0.164,0.086 0.2,0.07 1.32,0.172 2.25,1.383 2.078,2.703 -0.172,1.321 -1.383,2.25 -2.703,2.078 -1.321,-0.171 -2.25,-1.382 -2.078,-2.703 0.171,-1.32 1.382,-2.25 2.703,-2.078 -0.157,-0.012 -0.043,-0.008 0.293,-0.004 1.332,0.008 2.406,1.09 2.398,2.422 -0.008,1.332 -1.094,2.406 -2.426,2.399 -1.332,-0.008 -2.406,-1.094 -2.398,-2.426 0.008,-1.332 1.094,-2.403 2.426,-2.395 0.347,0 0.738,-0.004 1.605,-0.004 1.332,0.004 2.406,1.09 2.402,2.418 -0.003,1.332 -1.086,2.41 -2.418,2.407 -1.332,-0.008 -2.406,-1.09 -2.402,-2.418 0.004,-1.332 1.086,-2.411 2.418,-2.407 1.668,0.008 3.773,-0.015 6.051,0.028 1.176,0.019 2.758,0.109 4.129,0.152 1.426,0.051 2.843,0.094 4.394,0.133 1.473,0.039 3.075,0.062 4.739,0.113 1.707,0.051 3.425,0.129 5.269,0.18 1.895,0.055 3.77,0.101 5.988,0.133 2.168,0.031 4.688,0.058 7.161,0.05 2.492,-0.007 5.132,-0.058 7.804,-0.097 2.719,-0.039 5.43,-0.102 8.375,-0.133 2.801,-0.031 5.824,-0.027 8.809,-0.055 3.101,-0.027 6.176,-0.093 9.558,-0.105 3.418,-0.016 6.973,0.047 10.739,0.027 3.625,-0.015 7.644,-0.101 11.582,-0.137 4.023,-0.035 8.222,-0.027 12.23,-0.07 4.121,-0.043 8.059,-0.101 12.211,-0.18 3.942,-0.074 8.133,-0.187 12.106,-0.277 4.066,-0.094 8.05,-0.18 12.011,-0.269 4.035,-0.094 7.95,-0.184 12.008,-0.274 3.902,-0.086 8.125,-0.187 11.906,-0.262 3.868,-0.082 7.52,-0.148 11.055,-0.207 3.574,-0.062 7.102,-0.125 10.316,-0.156 3.086,-0.035 6.008,-0.062 8.629,-0.043 2.692,0.02 5.254,0.102 7.262,0.16 2.047,0.063 3.59,0.117 5.027,0.207 1.332,0.082 2.34,1.227 2.258,2.555 -0.082,1.332 -1.226,2.34 -2.554,2.258 -1.329,-0.082 -2.34,-1.227 -2.258,-2.555 0.082,-1.328 1.226,-2.34 2.554,-2.258 1.442,0.09 2.637,0.254 3.399,0.317 1.324,0.105 2.312,1.269 2.207,2.597 -0.106,1.325 -1.27,2.313 -2.598,2.207 -1.328,-0.105 -2.316,-1.269 -2.207,-2.597 0.106,-1.328 1.27,-2.317 2.598,-2.207 0.754,0.062 1.312,0.051 1.844,0.109 1.316,0.176 2.25,1.383 2.074,2.703 -0.172,1.321 -1.383,2.25 -2.703,2.078 -1.321,-0.172 -2.25,-1.382 -2.078,-2.703 0.175,-1.32 1.386,-2.25 2.707,-2.078 0.894,0.137 1.355,0.375 1.277,0.313 1.285,0.336 2.059,1.652 1.723,2.941 -0.332,1.289 -1.649,2.063 -2.938,1.727 -0.734,-0.231 -0.383,-0.176 -0.691,-0.2 -0.071,-0.019 -0.66,-0.011 -1.606,-0.086 -0.918,-0.074 -2.031,-0.23 -3.304,-0.308 -1.375,-0.086 -2.84,-0.141 -4.875,-0.199 -2.012,-0.059 -4.52,-0.141 -7.153,-0.161 -2.578,-0.019 -5.461,0.012 -8.547,0.043 -3.191,0.032 -6.703,0.094 -10.281,0.157 -3.531,0.058 -7.176,0.125 -11.039,0.207 -3.769,0.074 -7.988,0.175 -11.895,0.261 -4.058,0.09 -7.972,0.18 -12.011,0.274 -3.957,0.09 -7.942,0.176 -12.008,0.269 -3.961,0.09 -8.164,0.204 -12.125,0.278 -4.16,0.078 -8.121,0.136 -12.25,0.179 -4.039,0.043 -8.242,0.039 -12.242,0.075 -3.906,0.031 -7.934,0.117 -11.598,0.132 -3.816,0.02 -7.375,-0.039 -10.742,-0.027 -3.344,0.012 -6.406,0.078 -9.539,0.106 -3.004,0.027 -6.024,0.023 -8.797,0.054 -2.914,0.032 -5.617,0.094 -8.355,0.133 -2.661,0.039 -5.325,0.094 -7.864,0.098 -2.508,0.008 -5.062,-0.02 -7.238,-0.051 -2.242,-0.031 -4.156,-0.078 -6.055,-0.133 -1.89,-0.051 -3.617,-0.133 -5.277,-0.18 -1.633,-0.05 -3.223,-0.074 -4.727,-0.113 -1.558,-0.043 -2.992,-0.086 -4.429,-0.133 -1.426,-0.047 -2.981,-0.132 -4.051,-0.152 -2.211,-0.039 -4.277,-0.02 -5.981,-0.023 -0.839,-0.004 -1.222,0 -1.617,0 -0.39,-0.004 -0.668,-0.012 -0.89,-0.036 -0.625,-0.101 -1.129,-0.336 -0.786,-0.183 -1.289,-0.336 -2.062,-1.653 -1.726,-2.942 0.336,-1.289 1.652,-2.062 2.937,-1.726 z"
         style="fill:#000000;fill-opacity:1;fill-rule:nonzero;stroke:none"
         id="path22" /><path
         d="m 239.43,14.858 c -0.059,-0.058 0.09,0.09 0.297,0.371 0.789,1.075 0.558,2.582 -0.512,3.371 -1.074,0.79 -2.582,0.559 -3.371,-0.515 -0.789,-1.07 -0.559,-2.578 0.515,-3.367 1.071,-0.789 2.579,-0.559 3.368,0.511 0.078,0.11 0.16,0.235 0.285,0.414 0.75,1.098 0.472,2.598 -0.625,3.352 -1.098,0.754 -2.598,0.477 -3.352,-0.621 -0.754,-1.098 -0.473,-2.602 0.625,-3.352 1.098,-0.754 2.598,-0.476 3.352,0.621 0.113,0.168 0.355,0.508 0.578,0.84 0.738,1.11 0.441,2.606 -0.668,3.344 -1.106,0.738 -2.602,0.441 -3.34,-0.664 -0.742,-1.109 -0.441,-2.606 0.664,-3.344 1.109,-0.742 2.606,-0.441 3.344,0.664 0.219,0.328 0.441,0.68 0.68,1.047 0.253,0.399 0.527,0.836 0.789,1.235 0.246,0.378 0.519,0.785 0.804,1.214 0.289,0.442 0.575,0.891 0.828,1.27 0.258,0.387 0.52,0.75 0.809,1.18 0.27,0.402 0.551,0.839 0.773,1.175 0.235,0.352 0.461,0.684 0.637,0.946 0.36,0.523 0.676,0.98 0.988,1.429 0.141,0.207 0.286,0.411 0.43,0.633 0.152,0.242 0.274,0.461 0.332,0.567 0.094,0.168 0.156,0.281 0.172,0.308 0.012,0.024 0.047,0.082 0.285,0.598 0.41,1.265 -0.285,2.625 -1.551,3.035 -1.265,0.41 -2.625,-0.281 -3.035,-1.547 -0.414,-1.269 0.281,-2.629 1.547,-3.039 1.266,-0.41 2.625,0.281 3.039,1.551 -2.203,-1.594 -1.683,3.094 -0.621,2.547 -0.949,0.929 -2.476,0.918 -3.41,-0.035 -0.93,-0.95 -0.918,-2.477 0.035,-3.407 0.949,-0.933 2.477,-0.918 3.406,0.032 0.934,0.949 0.918,2.476 -0.031,3.41 -0.223,0.195 -0.402,0.328 -0.598,0.457 -0.226,0.152 -0.378,0.238 -0.57,0.375 -0.258,0.183 -0.586,0.422 -0.945,0.699 -0.399,0.309 -0.801,0.613 -1.227,0.973 -0.429,0.367 -0.918,0.8 -1.383,1.238 -0.484,0.453 -0.957,0.91 -1.394,1.367 -0.418,0.438 -0.848,0.957 -1.32,1.477 -0.418,0.453 -0.868,0.941 -1.25,1.336 -0.371,0.378 -0.762,0.761 -1.114,1.066 -1.015,0.863 -2.535,0.738 -3.398,-0.273 -0.863,-1.016 -0.742,-2.536 0.273,-3.399 1.012,-0.863 2.535,-0.742 3.399,0.274 0.863,1.011 0.738,2.535 -0.274,3.398 -0.429,0.355 -0.82,0.598 -0.98,0.707 -1.106,0.738 -2.602,0.441 -3.344,-0.664 -0.738,-1.106 -0.441,-2.606 0.664,-3.344 1.106,-0.742 2.606,-0.445 3.344,0.66 0.742,1.11 0.445,2.606 -0.664,3.348 -0.309,0.203 -0.567,0.34 -0.57,0.348 -1.122,0.715 -2.61,0.386 -3.329,-0.739 -0.714,-1.121 -0.386,-2.609 0.739,-3.328 1.121,-0.715 2.609,-0.386 3.328,0.739 0.715,1.121 0.387,2.609 -0.738,3.328 -0.184,0.117 -0.254,0.168 -0.457,0.308 -1.106,0.742 -2.606,0.446 -3.344,-0.66 -0.742,-1.105 -0.449,-2.605 0.66,-3.344 0.129,-0.089 0.269,-0.191 0.551,-0.371 0.218,-0.136 0.375,-0.215 0.48,-0.289 0.281,-0.187 0.387,-0.238 0.535,-0.371 0.203,-0.172 0.442,-0.41 0.793,-0.766 0.325,-0.332 0.719,-0.765 1.137,-1.222 0.395,-0.43 0.859,-0.988 1.398,-1.551 0.5,-0.523 1.063,-1.07 1.575,-1.551 0.511,-0.48 1.086,-0.992 1.566,-1.398 0.52,-0.438 1.012,-0.817 1.399,-1.113 0.406,-0.313 0.808,-0.61 1.101,-0.817 0.352,-0.25 0.613,-0.402 0.672,-0.441 0.105,-0.071 0.117,-0.082 -0.09,0.101 1.223,-0.711 1.656,4.121 -0.594,2.379 0.235,0.504 0.176,0.414 0.106,0.285 -0.071,-0.121 -0.106,-0.195 -0.156,-0.277 -0.086,-0.156 -0.145,-0.266 -0.215,-0.371 -0.074,-0.117 -0.176,-0.258 -0.34,-0.496 -0.297,-0.434 -0.621,-0.895 -0.992,-1.442 -0.188,-0.273 -0.426,-0.628 -0.668,-0.992 -0.246,-0.371 -0.524,-0.801 -0.766,-1.16 -0.25,-0.371 -0.516,-0.742 -0.812,-1.187 -0.289,-0.434 -0.582,-0.895 -0.848,-1.297 -0.262,-0.399 -0.543,-0.813 -0.82,-1.235 -0.289,-0.445 -0.567,-0.894 -0.801,-1.257 -0.242,-0.375 -0.445,-0.692 -0.633,-0.977 -0.18,-0.27 -0.402,-0.578 -0.547,-0.789 -0.144,-0.215 -0.246,-0.367 -0.191,-0.285 -0.082,-0.117 0.047,0.043 -0.168,-0.207 -0.836,-1.039 -0.672,-2.555 0.367,-3.391 1.035,-0.836 2.555,-0.672 3.387,0.367 z"
         style="fill:#000000;fill-opacity:1;fill-rule:nonzero;stroke:none"
         id="path24" /><path
         d="m 29.055,28.643 c -0.348,0.704 -0.391,0.618 -0.493,1.012 -0.402,1.27 -1.757,1.973 -3.027,1.574 -1.269,-0.402 -1.973,-1.757 -1.57,-3.027 0.398,-1.27 1.754,-1.973 3.023,-1.57 1.27,0.402 1.973,1.754 1.574,3.023 0.032,-0.176 0,0.113 -0.093,0.785 -0.18,1.321 -1.395,2.242 -2.715,2.063 -1.32,-0.184 -2.242,-1.399 -2.059,-2.719 0.18,-1.316 1.395,-2.238 2.715,-2.059 1.32,0.18 2.242,1.399 2.059,2.715 -0.098,0.707 -0.289,1.7 -0.332,2.512 -0.082,1.332 -1.227,2.34 -2.555,2.258 -1.332,-0.082 -2.34,-1.227 -2.258,-2.555 0.082,-1.328 1.227,-2.34 2.555,-2.258 1.328,0.082 2.34,1.227 2.258,2.555 -0.059,0.871 -0.016,1.664 -0.012,3.063 0.004,2.687 -0.008,5.601 0.039,8.867 0.024,1.601 0.106,3.672 0.168,5.855 l 0.207,7.281 0.242,8.461 0.274,9.532 0.316,11.031 0.344,11.996 c 0.117,4.199 0.262,8.625 0.371,12.969 0.105,4.406 0.211,8.707 0.269,13.312 0.059,4.449 0.067,9.254 0.075,13.852 0.008,4.691 -0.016,9.465 -0.028,14.051 -0.007,4.656 -0.019,9.179 -0.035,13.722 -0.015,4.379 -0.015,8.867 -0.055,13.094 -0.039,4.258 -0.117,8.531 -0.183,12.352 -0.07,3.968 -0.141,7.449 -0.219,11.058 -0.078,3.473 -0.18,7.024 -0.246,10.188 -0.07,3.218 -0.129,6.187 -0.172,8.992 -0.043,2.859 -0.07,5.582 -0.09,8.027 -0.019,2.371 -0.031,4.527 -0.031,6.41 0,1.875 0.027,3.5 0.035,4.922 0.004,1.473 -0.015,2.625 -0.004,3.625 0.016,1.332 -1.054,2.426 -2.382,2.438 -1.332,0.015 -2.426,-1.051 -2.438,-2.383 -0.016,-1.332 1.051,-2.422 2.383,-2.438 1.332,-0.015 2.422,1.055 2.437,2.383 0.008,0.953 0.051,1.738 0.071,2.422 0.035,1.332 -1.012,2.441 -2.344,2.481 -1.328,0.035 -2.438,-1.012 -2.477,-2.344 -0.039,-1.328 1.008,-2.438 2.34,-2.477 1.332,-0.039 2.442,1.008 2.481,2.34 0.019,0.785 -0.024,1.094 0.011,1.188 0.211,1.316 -0.683,2.55 -2,2.761 -1.316,0.211 -2.55,-0.683 -2.761,-2 -0.207,-1.316 0.687,-2.551 2,-2.761 1.316,-0.211 2.55,0.687 2.761,2 -0.05,-0.036 -0.007,-0.098 0.235,0.507 0.457,1.25 -0.188,2.637 -1.438,3.094 -1.25,0.457 -2.636,-0.187 -3.093,-1.437 0.011,-0.032 -0.282,-0.543 -0.465,-1.403 -0.094,-0.718 -0.051,-1.261 -0.071,-1.812 -0.019,-0.625 -0.058,-1.465 -0.07,-2.504 -0.012,-1.074 0.008,-2.235 0,-3.664 -0.004,-1.387 -0.031,-3.024 -0.031,-4.938 0,-1.894 0.008,-4.074 0.031,-6.453 0.02,-2.445 0.047,-5.183 0.09,-8.058 0.043,-2.817 0.101,-5.801 0.172,-9.024 0.07,-3.18 0.168,-6.73 0.246,-10.187 0.078,-3.606 0.148,-7.075 0.219,-11.036 0.066,-3.824 0.144,-8.078 0.183,-12.312 0.039,-4.207 0.039,-8.684 0.055,-13.066 0.015,-4.543 0.023,-9.063 0.035,-13.719 0.012,-4.594 0.035,-9.356 0.027,-14.031 -0.007,-4.594 -0.015,-9.375 -0.074,-13.797 -0.058,-4.578 -0.164,-8.852 -0.269,-13.258 -0.106,-4.32 -0.25,-8.738 -0.371,-12.949 L 24.551,87.182 24.234,76.151 23.965,66.616 23.723,58.159 23.512,50.874 c -0.059,-2.156 -0.145,-4.25 -0.168,-5.926 -0.047,-3.305 -0.035,-6.25 -0.039,-8.922 -0.004,-1.308 -0.047,-2.25 0.019,-3.371 0.074,-1.129 0.293,-2.312 0.371,-2.871 0.086,-0.641 0.145,-1.121 0.27,-1.582 0.328,-0.977 0.664,-1.426 0.719,-1.594 0.558,-1.207 1.992,-1.73 3.199,-1.168 1.207,0.563 1.734,1.996 1.172,3.203 z"
         style="fill:#000000;fill-opacity:1;fill-rule:nonzero;stroke:none"
         id="path26" /><path
         d="m 38.344,239.507 c -2.996,-3.418 0.199,-0.36 0.793,-0.594 -0.891,0.992 -2.414,1.078 -3.407,0.191 -0.992,-0.886 -1.078,-2.41 -0.191,-3.406 0.887,-0.992 2.41,-1.078 3.402,-0.191 0.997,0.886 1.082,2.41 0.196,3.406 -0.086,0.094 -0.602,0.656 -1.016,1.246 -0.769,1.086 -2.277,1.34 -3.359,0.566 -1.086,-0.769 -1.34,-2.277 -0.571,-3.359 0.774,-1.086 2.278,-1.34 3.364,-0.57 1.086,0.773 1.34,2.277 0.566,3.363 -0.176,0.238 -0.594,0.949 -0.988,1.586 -0.699,1.129 -2.188,1.48 -3.317,0.781 -1.132,-0.703 -1.484,-2.187 -0.781,-3.32 0.699,-1.133 2.188,-1.481 3.317,-0.781 1.132,0.699 1.484,2.187 0.781,3.32 -0.387,0.625 -0.817,1.309 -1.199,1.957 -0.364,0.609 -0.743,1.32 -1.149,2 -0.41,0.688 -0.828,1.313 -1.101,1.777 -0.278,0.477 -0.485,0.903 -0.774,1.422 -0.277,0.492 -0.547,0.934 -0.711,1.242 -0.16,0.289 -0.289,0.586 -0.484,0.957 -0.207,0.383 -0.375,0.633 -0.403,0.7 -0.015,0.007 -0.023,0.066 -0.144,0.359 -0.137,0.277 -0.395,0.652 -0.258,0.469 -0.707,1.129 -2.195,1.469 -3.324,0.762 -1.129,-0.708 -1.469,-2.192 -0.762,-3.321 0.703,-1.129 2.192,-1.472 3.321,-0.765 1.128,0.707 1.472,2.195 0.765,3.324 -0.047,0.07 -0.172,0.254 -0.234,0.336 -0.801,1.062 -2.313,1.273 -3.375,0.472 -1.067,-0.8 -1.278,-2.312 -0.477,-3.379 0.805,-1.062 2.317,-1.273 3.379,-0.472 1.063,0.805 1.274,2.316 0.473,3.379 -0.004,0 -0.145,0.195 -0.305,0.383 -0.172,0.187 -0.293,0.304 -0.324,0.339 0,-0.004 -0.145,0.196 -0.418,0.485 -0.379,0.336 -0.602,0.465 -0.387,0.312 0.113,-0.117 0.141,-0.136 -0.277,0.266 -1.063,0.805 -2.574,0.598 -3.379,-0.465 -0.805,-1.059 -0.598,-2.57 0.465,-3.375 1.058,-0.805 2.57,-0.598 3.375,0.461 0.804,1.062 0.597,2.574 -0.461,3.379 -0.715,0.406 -2.66,0.211 -0.75,0.387 -1.25,0.457 -2.637,-0.188 -3.094,-1.438 -0.453,-1.25 0.188,-2.633 1.438,-3.09 1.25,-0.457 2.636,0.184 3.093,1.438 0.457,1.25 -0.187,2.633 -1.437,3.09 0.301,-0.133 -0.067,0.035 -0.578,0.164 -0.203,0.023 -0.516,0.035 -0.672,0.031 0.398,-0.035 -0.332,0.023 -1.156,-0.203 -0.219,-0.09 -0.786,-0.387 -1.219,-0.731 -0.246,-0.207 -0.75,-0.648 -1.203,-1.199 -0.414,-0.527 -0.805,-1.152 -1.18,-1.723 -0.375,-0.57 -0.844,-1.304 -1.266,-2.003 -0.441,-0.735 -0.847,-1.493 -1.23,-2.145 -0.406,-0.684 -0.836,-1.379 -1.25,-2.066 -0.395,-0.657 -0.793,-1.325 -1.133,-1.887 -0.344,-0.563 -0.687,-1.109 -0.969,-1.578 -0.289,-0.481 -0.5,-0.848 -0.687,-1.164 -0.184,-0.317 -0.348,-0.59 -0.465,-0.793 -0.672,-1.149 -0.289,-2.625 0.859,-3.297 1.149,-0.676 2.625,-0.289 3.301,0.859 0.672,1.149 0.285,2.625 -0.863,3.297 -1.149,0.676 -2.625,0.289 -3.297,-0.859 -0.117,-0.203 -0.195,-0.332 -0.269,-0.465 -0.657,-1.156 -0.25,-2.629 0.906,-3.285 1.16,-0.657 2.633,-0.25 3.289,0.91 0.656,1.156 0.246,2.629 -0.91,3.285 -1.161,0.656 -2.629,0.25 -3.285,-0.91 -0.094,-0.16 -0.161,-0.297 -0.157,-0.285 -0.629,-1.172 -0.187,-2.633 0.985,-3.262 1.175,-0.629 2.636,-0.191 3.265,0.984 0.629,1.172 0.188,2.633 -0.984,3.262 -1.176,0.629 -2.637,0.192 -3.266,-0.984 -0.051,-0.098 -0.054,-0.106 -0.082,-0.157 -0.629,-1.175 -0.191,-2.636 0.985,-3.265 1.171,-0.629 2.632,-0.188 3.261,0.988 0.032,0.051 0.035,0.059 0.086,0.156 0.043,0.079 0.063,0.125 0.102,0.188 0.047,0.09 0.109,0.191 0.234,0.402 0.117,0.199 0.274,0.469 0.461,0.785 0.199,0.34 0.395,0.68 0.66,1.118 0.254,0.425 0.598,0.972 0.961,1.57 0.356,0.582 0.754,1.254 1.141,1.898 0.398,0.66 0.84,1.375 1.273,2.106 0.434,0.738 0.832,1.48 1.211,2.109 0.383,0.637 0.809,1.301 1.168,1.852 0.399,0.609 0.68,1.066 0.91,1.347 0.176,0.235 0.293,0.313 0.532,0.512 0.043,0.051 -0.164,-0.078 -0.079,-0.043 -0.511,-0.101 -1.019,-0.117 -0.433,-0.144 0.031,0.004 -0.176,0.011 -0.27,0.023 -0.41,0.109 -0.656,0.211 -0.34,0.074 2.055,0.121 0.036,0.02 -0.511,0.301 -0.403,0.387 -0.227,0.176 0.031,-0.066 0.356,-0.274 0.352,-0.25 0.16,-0.102 -0.074,0.094 -0.004,-0.016 0.203,-0.258 0.176,-0.191 0.301,-0.312 0.301,-0.316 0.004,0 0.031,-0.043 0.078,-0.11 0.094,-0.121 -0.047,0.086 0,0.012 0.196,-0.281 -0.031,0.074 -0.031,0.059 -0.055,0.152 0.047,-0.156 0.23,-0.535 0.18,-0.332 0.34,-0.571 0.438,-0.762 0.105,-0.191 0.254,-0.531 0.504,-0.992 0.234,-0.434 0.512,-0.883 0.734,-1.289 0.227,-0.399 0.461,-0.883 0.824,-1.508 0.36,-0.606 0.778,-1.231 1.122,-1.805 0.347,-0.582 0.726,-1.293 1.14,-1.996 0.418,-0.699 0.867,-1.418 1.25,-2.035 0.367,-0.59 0.832,-1.375 1.156,-1.84 0.59,-0.82 1.282,-1.59 1.348,-1.664 1.348,-1.082 4.023,2.734 1.149,-0.727 1.25,-0.457 2.636,0.188 3.093,1.438 0.457,1.25 -0.187,2.637 -1.437,3.094 z"
         style="fill:#000000;fill-opacity:1;fill-rule:nonzero;stroke:none"
         id="path28" /></g></g></svg>