<?xml version="1.0" encoding="UTF-8" standalone="no"?>
<!-- Created with Inkscape (http://www.inkscape.org/) -->

<svg
   xmlns:dc="http://purl.org/dc/elements/1.1/"
   xmlns:cc="http://creativecommons.org/ns#"
   xmlns:rdf="http://www.w3.org/1999/02/22-rdf-syntax-ns#"
   xmlns:svg="http://www.w3.org/2000/svg"
   xmlns="http://www.w3.org/2000/svg"
   xmlns:sodipodi="http://sodipodi.sourceforge.net/DTD/sodipodi-0.dtd"
   xmlns:inkscape="http://www.inkscape.org/namespaces/inkscape"
   id="svg2"
   version="1.1"
   inkscape:version="0.48.5 r10040"
   width="440.19852"
   height="402.96654"
   xml:space="preserve"
   sodipodi:docname="IVCurveS.pdf"><metadata
     id="metadata8"><rdf:RDF><cc:Work
         rdf:about=""><dc:format>image/svg+xml</dc:format><dc:type
           rdf:resource="http://purl.org/dc/dcmitype/StillImage" /><dc:title></dc:title></cc:Work></rdf:RDF></metadata><defs
     id="defs6" /><sodipodi:namedview
     pagecolor="#ffffff"
     bordercolor="#666666"
     borderopacity="1"
     objecttolerance="10"
     gridtolerance="10"
     guidetolerance="10"
     inkscape:pageopacity="0"
     inkscape:pageshadow="2"
     inkscape:window-width="640"
     inkscape:window-height="480"
     id="namedview4"
     showgrid="false"
     inkscape:zoom="0.58565655"
     inkscape:cx="220.09926"
     inkscape:cy="201.48328"
     inkscape:window-x="49"
     inkscape:window-y="24"
     inkscape:window-maximized="0"
     inkscape:current-layer="g10" /><g
     id="g10"
     inkscape:groupmode="layer"
     inkscape:label="IVCurveS"
     transform="matrix(1.25,0,0,-1.25,0,402.96654)"><g
       id="g12"><path
         d="m 99.496,272.342 c 0.02,0.004 -0.207,-0.375 -0.414,-1.078 -0.344,-1.285 0.422,-2.606 1.707,-2.949 1.289,-0.344 2.609,0.422 2.953,1.707 0.34,1.285 -0.422,2.609 -1.711,2.949 -1.285,0.344 -2.605,-0.422 -2.949,-1.707 -0.086,-0.395 -0.121,-0.738 -0.168,-1.121 -0.168,-1.321 0.766,-2.528 2.086,-2.696 1.32,-0.168 2.527,0.766 2.695,2.086 0.168,1.321 -0.765,2.528 -2.086,2.696 -1.32,0.172 -2.527,-0.762 -2.695,-2.086 -0.043,-0.34 -0.18,-1.102 -0.23,-1.879 -0.079,-1.332 0.937,-2.469 2.269,-2.547 1.328,-0.074 2.469,0.941 2.543,2.27 0.078,1.332 -0.941,2.468 -2.269,2.546 -1.329,0.075 -2.469,-0.941 -2.543,-2.269 -0.039,-0.77 -0.004,-1.434 -0.004,-2.176 l 0,-15.965 c 0,-1.89 -0.035,-3.949 0,-6.144 0.035,-2.223 0.125,-4.5 0.215,-7.012 0.085,-2.398 0.164,-5.164 0.324,-7.879 0.164,-2.789 0.433,-5.66 0.644,-8.5 0.219,-2.914 0.426,-5.726 0.645,-8.879 0.207,-3.027 0.465,-6.289 0.64,-9.605 0.176,-3.403 0.286,-6.992 0.426,-10.68 0.145,-3.742 0.281,-7.539 0.43,-11.566 0.137,-3.856 0.285,-8.102 0.426,-12.102 0.144,-4.105 0.304,-8.039 0.429,-12.203 0.125,-4.266 0.211,-8.484 0.321,-13.164 0.105,-4.422 0.215,-9.293 0.32,-14.137 0.109,-5 0.215,-10.246 0.324,-15.426 0.106,-5.277 0.227,-10.476 0.321,-15.957 0.085,-5.246 0.16,-10.945 0.214,-16.269 0.051,-5.473 0.071,-10.914 0.106,-16.168 0.035,-5.313 0.07,-10.485 0.105,-15.539 0.035,-4.899 0.075,-9.965 0.11,-14.36 0.011,-1.332 1.097,-2.402 2.429,-2.39 1.332,0.011 2.403,1.097 2.391,2.429 -0.012,1.332 -1.098,2.403 -2.43,2.391 -1.332,-0.008 -2.402,-1.098 -2.39,-2.43 0.035,-4.461 0.09,-8.488 0.105,-12.207 0.008,-1.328 1.09,-2.402 2.422,-2.398 1.332,0.008 2.406,1.09 2.402,2.422 -0.007,1.332 -1.093,2.406 -2.425,2.398 -1.329,-0.004 -2.403,-1.09 -2.399,-2.422 0.02,-3.808 -0.035,-7.078 0,-10.511 0.016,-1.332 1.106,-2.399 2.438,-2.387 1.332,0.016 2.398,1.105 2.386,2.437 -0.015,1.332 -1.105,2.399 -2.437,2.383 -1.332,-0.011 -2.399,-1.105 -2.387,-2.433 0.035,-3.262 0.145,-6.336 0.215,-9.457 0.031,-1.332 1.137,-2.387 2.465,-2.356 1.332,0.027 2.387,1.133 2.355,2.465 -0.07,3.152 -0.179,6.195 -0.211,9.398 -0.039,3.372 0.016,6.625 0,10.485 -0.019,3.742 -0.074,7.773 -0.109,12.222 -0.035,4.391 -0.07,9.457 -0.105,14.356 -0.04,5.055 -0.075,10.226 -0.11,15.535 -0.035,5.246 -0.051,10.695 -0.105,16.188 -0.055,5.328 -0.129,11.043 -0.215,16.3 -0.09,5.493 -0.215,10.703 -0.32,15.973 -0.11,5.184 -0.215,10.43 -0.325,15.434 -0.105,4.847 -0.215,9.722 -0.32,14.144 -0.109,4.672 -0.195,8.906 -0.32,13.195 -0.125,4.192 -0.285,8.133 -0.43,12.227 -0.141,4 -0.289,8.246 -0.43,12.109 -0.144,4.028 -0.285,7.829 -0.429,11.579 -0.141,3.664 -0.246,7.285 -0.43,10.746 -0.176,3.379 -0.438,6.679 -0.645,9.683 -0.218,3.164 -0.429,5.988 -0.644,8.906 -0.215,2.887 -0.481,5.719 -0.641,8.426 -0.156,2.637 -0.23,5.348 -0.316,7.77 -0.094,2.515 -0.18,4.746 -0.215,6.914 -0.035,2.117 0,4.133 0,6.066 l 0,15.965 c 0,0.867 -0.035,1.406 -0.004,1.899 0.02,0.46 0.133,1.042 0.199,1.546 0.059,0.45 0.075,0.672 0.047,0.489 0.024,0.156 -0.008,-0.012 0.231,0.531 0.492,1.234 -0.11,2.637 -1.344,3.133 -1.238,0.492 -2.641,-0.11 -3.133,-1.344 z"
         style="fill:#000000;fill-opacity:1;fill-rule:nonzero;stroke:none"
         id="path14" /><path
         d="m 313.832,123.084 c 0.07,-0.082 -0.348,0.301 -1.152,0.653 -1.235,0.496 -2.637,-0.106 -3.133,-1.34 -0.492,-1.239 0.109,-2.641 1.344,-3.137 1.238,-0.492 2.64,0.109 3.132,1.344 0.497,1.238 -0.105,2.64 -1.343,3.133 -0.43,0.144 -0.821,0.218 -1.278,0.296 -1.312,0.235 -2.562,-0.64 -2.793,-1.953 -0.23,-1.312 0.645,-2.562 1.953,-2.793 1.313,-0.23 2.563,0.645 2.793,1.953 0.235,1.313 -0.644,2.563 -1.953,2.793 -0.371,0.067 -1.269,0.274 -2.16,0.352 -1.324,0.105 -2.488,-0.887 -2.59,-2.215 -0.105,-1.324 0.887,-2.488 2.211,-2.59 1.328,-0.105 2.489,0.887 2.594,2.211 0.105,1.328 -0.887,2.488 -2.215,2.594 -0.851,0.059 -1.64,0.008 -2.332,0.008 l -9,0 c -1.363,0 -2.84,-0.035 -4.336,0 -1.551,0.035 -3.152,0.121 -4.969,0.211 -1.722,0.086 -3.648,0.179 -5.515,0.316 -1.906,0.141 -3.918,0.375 -5.992,0.535 -2.09,0.164 -4.063,0.285 -6.356,0.434 -2.191,0.137 -4.844,0.32 -7.222,0.43 -2.43,0.109 -4.637,0.144 -7.11,0.214 -2.539,0.075 -5.328,0.161 -8.058,0.215 -2.614,0.055 -5.207,0.074 -7.946,0.11 -2.812,0.035 -5.894,0.089 -8.801,0.105 -2.953,0.02 -5.656,-0.035 -8.664,0 -2.925,0.035 -6.117,0.145 -9.296,0.215 -3.235,0.07 -6.43,0.109 -9.836,0.215 -3.457,0.105 -7.082,0.316 -10.938,0.426 -3.695,0.105 -7.691,0.144 -11.594,0.214 -4,0.075 -8.156,0.18 -12.238,0.215 -4.133,0.039 -8.101,0 -12.344,0 l -25.925,0 c -4.524,0 -9.043,0.02 -13.832,0 -4.567,-0.015 -9.618,-0.035 -14.278,-0.105 -4.777,-0.074 -9.539,-0.164 -14.082,-0.324 -4.633,-0.161 -9,-0.391 -13.449,-0.645 -4.293,-0.246 -8.758,-0.613 -12.758,-0.859 -4.098,-0.25 -7.98,-0.446 -11.66,-0.641 -3.742,-0.195 -7.332,-0.371 -10.598,-0.535 -3.144,-0.156 -6.047,-0.27 -8.707,-0.43 -1.328,-0.082 -2.34,-1.222 -2.258,-2.551 0.082,-1.332 1.223,-2.343 2.551,-2.261 1.332,0.082 2.344,1.222 2.262,2.554 -0.082,1.328 -1.223,2.34 -2.555,2.258 -2.687,-0.164 -5.218,-0.398 -7.199,-0.535 -1.328,-0.094 -2.328,-1.246 -2.234,-2.574 0.089,-1.328 1.242,-2.332 2.57,-2.238 1.328,0.093 2.332,1.246 2.238,2.574 -0.093,1.328 -1.246,2.328 -2.574,2.238 -2.039,-0.145 -3.621,-0.23 -5.027,-0.324 -1.328,-0.086 -2.332,-1.235 -2.246,-2.563 0.089,-1.328 1.234,-2.336 2.566,-2.246 1.328,0.086 2.332,1.235 2.246,2.563 -0.09,1.328 -1.234,2.336 -2.566,2.246 -1.328,-0.086 -2.082,-0.141 -3.114,-0.215 -1.328,-0.09 -2.332,-1.242 -2.238,-2.57 0.09,-1.328 1.242,-2.328 2.57,-2.239 1.04,0.071 1.786,0.129 3.102,0.215 1.371,0.09 2.973,0.176 5.043,0.321 2.043,0.144 4.543,0.375 7.156,0.535 2.602,0.16 5.481,0.269 8.653,0.425 3.261,0.165 6.863,0.34 10.617,0.54 3.668,0.191 7.578,0.39 11.699,0.644 4.051,0.246 8.504,0.613 12.738,0.856 4.434,0.253 8.75,0.476 13.34,0.64 4.504,0.156 9.219,0.246 13.988,0.32 4.629,0.071 9.657,0.09 14.223,0.106 4.77,0.019 9.281,0 13.813,0 l 25.925,0 c 4.262,0 8.211,0.035 12.301,0 4.039,-0.035 8.176,-0.141 12.192,-0.215 3.925,-0.07 7.894,-0.109 11.546,-0.211 3.782,-0.109 7.399,-0.32 10.926,-0.43 3.453,-0.105 6.668,-0.144 9.875,-0.214 3.153,-0.071 6.371,-0.18 9.348,-0.215 3.078,-0.035 5.801,0.019 8.691,0 2.883,-0.02 5.946,-0.071 8.77,-0.106 2.754,-0.035 5.324,-0.054 7.91,-0.109 2.703,-0.055 5.473,-0.141 8.016,-0.215 2.503,-0.07 4.668,-0.105 7.031,-0.211 2.32,-0.105 4.926,-0.285 7.137,-0.426 2.296,-0.144 4.23,-0.265 6.285,-0.425 1.984,-0.157 4.004,-0.387 6.011,-0.539 1.93,-0.141 3.914,-0.239 5.625,-0.325 1.813,-0.09 3.481,-0.179 5.106,-0.215 1.605,-0.035 3.14,0 4.445,0 l 9,0 c 0.86,0 1.481,0.051 1.953,0.004 0.492,-0.027 1.153,-0.191 1.699,-0.289 0.446,-0.078 0.606,-0.105 0.329,-0.027 0.113,-0.012 -0.149,0.094 0.457,-0.309 1.144,-0.687 2.625,-0.316 3.308,0.825 0.688,1.144 0.317,2.625 -0.824,3.308 z"
         style="fill:#000000;fill-opacity:1;fill-rule:nonzero;stroke:none"
         id="path16" /><path
         d="m 3.488,39.147 c 0.707,0.433 0.227,0.195 0.274,0.175 1.273,0.391 1.988,1.739 1.597,3.012 -0.39,1.274 -1.742,1.988 -3.015,1.594 C 1.074,43.537 0.359,42.19 0.75,40.916 1.141,39.643 2.492,38.928 3.762,39.322 3.441,39.252 3.75,39.287 4.145,39.346 c 1.32,0.187 2.234,1.41 2.046,2.726 -0.187,1.321 -1.41,2.235 -2.726,2.047 -1.32,-0.187 -2.235,-1.41 -2.047,-2.726 0.187,-1.321 1.41,-2.235 2.727,-2.047 0.484,0.07 0.953,0.18 1.316,0.195 1.328,0.086 2.336,1.231 2.25,2.559 -0.086,1.332 -1.234,2.34 -2.563,2.254 -1.328,-0.086 -2.336,-1.235 -2.25,-2.563 0.086,-1.328 1.231,-2.336 2.563,-2.25 0.402,0.031 0.926,-0.004 1.664,-0.004 1.332,0 2.41,1.078 2.41,2.41 0,1.332 -1.078,2.411 -2.41,2.411 -1.332,0 -2.41,-1.079 -2.41,-2.411 0,-1.332 1.078,-2.41 2.41,-2.41 l 27.32,0 c 1.332,0 2.414,1.078 2.414,2.41 0,1.332 -1.082,2.411 -2.414,2.411 -1.328,0 -2.41,-1.079 -2.41,-2.411 0,-1.332 1.082,-2.41 2.41,-2.41 1.739,0 3.555,-0.019 5.489,0 1.332,0.012 2.402,1.102 2.386,2.434 -0.011,1.328 -1.101,2.398 -2.433,2.387 -1.328,-0.012 -2.399,-1.102 -2.387,-2.434 0.012,-1.332 1.102,-2.402 2.434,-2.387 1.855,0.016 3.878,0.071 5.808,0.106 1.973,0.035 3.965,0.054 6.02,0.109 2.078,0.055 4.093,0.121 6.355,0.215 2.184,0.086 4.703,0.215 6.977,0.32 2.332,0.11 4.527,0.235 6.836,0.321 2.367,0.089 4.82,0.16 7.25,0.214 2.328,0.051 4.59,0.071 7.05,0.106 2.504,0.035 5.227,0.074 7.821,0.109 2.66,0.035 5.176,0.086 7.914,0.106 1.328,0.008 2.402,1.094 2.394,2.426 -0.011,1.332 -1.097,2.406 -2.429,2.394 -1.328,-0.008 -2.403,-1.094 -2.395,-2.426 0.012,-1.332 1.098,-2.402 2.43,-2.394 2.617,0.015 5.488,0 8.23,0 1.332,0 2.414,1.078 2.414,2.41 0,1.332 -1.082,2.41 -2.414,2.41 -1.328,0 -2.41,-1.078 -2.41,-2.41 0,-1.332 1.082,-2.41 2.41,-2.41 l 59.465,0 c 1.332,0 2.41,1.078 2.41,2.41 0,1.332 -1.078,2.41 -2.41,2.41 -1.332,0 -2.41,-1.078 -2.41,-2.41 0,-1.332 1.078,-2.41 2.41,-2.41 2.477,0 4.762,-0.129 7.305,0.004 1.332,0.07 2.351,1.203 2.281,2.535 -0.07,1.328 -1.203,2.347 -2.531,2.277 -1.332,-0.07 -2.352,-1.203 -2.281,-2.531 0.07,-1.332 1.203,-2.352 2.531,-2.281 2.367,0.125 4.98,0.343 7.387,0.785 2.398,0.449 4.839,1.078 7.148,1.933 2.363,0.879 4.762,2.098 6.863,3.258 2.102,1.164 4.055,2.492 5.895,3.778 1.867,1.304 3.812,2.726 5.547,4.218 1.754,1.512 3.375,3.11 4.922,4.809 1.503,1.648 2.964,3.461 4.343,5.348 1.399,1.91 2.77,3.964 4.094,6.191 1.324,2.23 2.691,4.617 3.973,7.402 1.215,2.645 2.48,5.809 3.523,8.918 1.07,3.196 1.985,6.563 2.844,10.047 0.871,3.539 1.598,7.059 2.383,11.16 0.758,3.965 1.535,8.489 2.261,13.153 0.747,4.761 1.43,9.824 2.153,15.152 0.738,5.453 1.449,11 2.25,17.27 0.769,6.007 1.605,12.621 2.469,19.617 0.882,7.16 1.882,14.801 2.789,22.961 0.918,8.273 1.898,17.031 2.683,26.422 0.11,1.324 -0.875,2.492 -2.203,2.601 -1.324,0.109 -2.492,-0.875 -2.601,-2.203 -0.11,-1.324 0.874,-2.492 2.203,-2.602 1.324,-0.109 2.492,0.875 2.601,2.204 0.754,9.035 1.457,19.281 1.934,28.902 0.066,1.328 -0.957,2.461 -2.289,2.527 -1.328,0.067 -2.461,-0.961 -2.528,-2.289 -0.066,-1.332 0.961,-2.461 2.289,-2.527 1.329,-0.067 2.461,0.957 2.528,2.289 0.488,9.808 0.754,21.226 0.965,29.414 0.035,1.328 -1.016,2.437 -2.344,2.473 -1.332,0.031 -2.438,-1.02 -2.473,-2.348 -0.035,-1.332 1.016,-2.438 2.348,-2.473 1.328,-0.035 2.437,1.016 2.469,2.348 0.218,8.281 0.218,13.402 0.324,20.059 0.019,1.332 -1.039,2.425 -2.371,2.449 -1.332,0.019 -2.43,-1.043 -2.449,-2.371 -0.11,-6.692 -0.106,-11.778 -0.321,-20.012 -0.215,-8.195 -0.48,-19.559 -0.965,-29.301 -0.476,-9.574 -1.171,-19.742 -1.921,-28.742 -0.778,-9.324 -1.754,-18.012 -2.672,-26.289 -0.899,-8.113 -1.899,-15.723 -2.782,-22.902 -0.863,-6.989 -1.695,-13.594 -2.464,-19.594 -0.801,-6.27 -1.508,-11.801 -2.247,-17.235 -0.726,-5.332 -1.402,-10.347 -2.136,-15.058 -0.723,-4.629 -1.489,-9.07 -2.235,-12.988 -0.781,-4.071 -1.48,-7.461 -2.332,-10.914 -0.843,-3.434 -1.703,-6.61 -2.73,-9.668 -0.996,-2.981 -2.172,-5.911 -3.332,-8.438 -1.196,-2.602 -2.434,-4.754 -3.742,-6.953 -1.254,-2.121 -2.5,-3.981 -3.836,-5.809 -1.313,-1.793 -2.61,-3.402 -4.016,-4.941 -1.465,-1.609 -2.871,-3 -4.504,-4.406 -1.586,-1.368 -3.336,-2.641 -5.164,-3.922 -1.816,-1.266 -3.555,-2.457 -5.465,-3.508 -2.027,-1.121 -4.109,-2.184 -6.207,-2.957 -2.078,-0.773 -4.113,-1.297 -6.355,-1.711 -2.157,-0.406 -4.465,-0.594 -6.754,-0.715 -2.293,-0.121 -4.449,0.004 -7.055,0.004 l -59.465,0 c -2.726,0 -5.613,0.02 -8.265,0 -2.766,-0.019 -5.301,-0.07 -7.946,-0.105 -2.589,-0.036 -5.316,-0.075 -7.82,-0.11 -2.453,-0.035 -4.73,-0.054 -7.094,-0.105 -2.441,-0.055 -4.929,-0.125 -7.32,-0.215 -2.355,-0.09 -4.57,-0.215 -6.879,-0.324 -2.289,-0.106 -4.793,-0.235 -6.949,-0.321 -2.25,-0.089 -4.227,-0.16 -6.289,-0.214 -2.012,-0.051 -3.985,-0.071 -5.981,-0.106 -1.949,-0.035 -3.953,-0.09 -5.765,-0.105 -1.887,-0.02 -3.68,0 -5.442,0 l -27.32,0 C 6.523,44.358 5.863,44.393 5.148,44.35 4.414,44.295 3.738,44.154 3.465,44.119 3.117,44.069 2.758,44.026 2.348,43.928 1.559,43.651 1.055,43.24 1.332,43.459 0.141,42.865 -0.34,41.416 0.254,40.225 0.852,39.033 2.297,38.553 3.488,39.147 z"
         style="fill:#1749b3;fill-opacity:1;fill-rule:nonzero;stroke:none"
         id="path18" /><path
         d="m 107.512,43.487 c 0.179,0.031 0.211,0.039 0.254,0.042 1.32,0.168 2.257,1.372 2.093,2.692 -0.168,1.32 -1.371,2.258 -2.691,2.094 -1.324,-0.168 -2.258,-1.371 -2.094,-2.692 0.164,-1.32 1.371,-2.258 2.692,-2.094 0.39,0.071 -0.012,0.028 -0.485,0.047 1.305,-0.254 2.571,0.598 2.824,1.907 0.254,1.304 -0.597,2.57 -1.906,2.824 -1.304,0.254 -2.57,-0.598 -2.824,-1.906 -0.254,-1.305 0.598,-2.571 1.906,-2.825 0.504,-0.066 -0.168,0.141 -1.062,0.789 0.785,-1.074 2.293,-1.312 3.371,-0.531 1.074,0.785 1.312,2.293 0.531,3.367 -0.785,1.078 -2.293,1.317 -3.367,0.536 -1.078,-0.786 -1.316,-2.293 -0.535,-3.372 -0.114,0.223 -0.239,0.637 -0.262,0.668 0.004,-0.25 0.027,-0.308 -0.019,-0.359 -0.079,-0.242 -0.168,-0.426 -0.329,-0.598 -0.144,-0.191 -0.222,-0.254 -0.445,-0.363 -0.102,-0.09 -0.371,-0.129 -0.805,-0.238 -0.359,-0.086 -0.414,-0.106 -0.515,-0.09 -0.164,0 0.047,-0.07 0.308,-0.168 0.149,-0.16 0.516,-0.688 0.493,-0.578 -0.067,0.195 -0.102,0.242 -0.059,0.289 0.027,0.297 -0.012,0.289 0.07,0.332 0.137,0.23 0.289,0.391 0.567,0.535 0.242,0.168 0.589,0.25 1.168,0.379 0.605,0.137 0.992,0.25 0.945,0.188 1.305,-0.266 2.578,0.574 2.844,1.878 0.265,1.305 -0.575,2.579 -1.879,2.844 -1.305,0.27 -2.578,-0.574 -2.844,-1.879 -0.266,-1.304 0.574,-2.578 1.879,-2.843 0.023,0.058 -0.266,0.218 -0.125,0.015 0.168,-0.183 0.223,-0.25 0.203,-0.449 0.055,-0.199 -0.016,-0.555 -0.148,-0.832 -0.086,-0.27 -0.055,-0.234 -0.204,-0.301 -0.023,-0.078 -0.152,-0.07 -0.628,-0.133 -0.348,-0.058 -0.543,-0.062 -0.774,0.02 -0.254,0.047 -0.426,0.148 -0.629,0.328 -0.172,0.113 -0.109,0.055 -0.238,0.336 -0.117,0.219 -0.172,0.406 -0.156,0.551 -0.016,0.242 -0.075,0.054 -0.016,0.082 0.121,0.222 -0.019,0.129 0.133,0.16 0.269,0.152 0.644,0.262 1.058,0.254 1.329,0.035 2.379,1.14 2.344,2.472 -0.035,1.332 -1.144,2.383 -2.472,2.348 -1.332,-0.039 -2.383,-1.144 -2.348,-2.476 0.035,-1.333 1.144,-2.379 2.476,-2.344 0.543,0.023 1.012,-0.02 1.305,-0.188 0.391,-0.144 0.512,-0.246 0.723,-0.59 0.195,-0.214 0.32,-0.644 0.363,-1.082 0.07,-0.332 0.035,-0.507 -0.078,-0.726 -0.051,-0.199 0.152,0.027 0.012,-0.012 0,-0.062 -0.293,-0.078 -0.746,-0.09 -0.383,-0.023 -0.664,0.024 -0.965,0.141 -0.297,0.086 -0.36,0.129 -0.516,0.305 -0.047,-0.02 -0.039,0.062 -0.211,0.472 -0.144,0.328 -0.183,0.399 -0.164,0.496 -0.015,0.383 -0.117,0.094 -0.144,-0.125 -0.079,-0.019 0.015,0.024 0.343,0.188 0.352,0.191 0.672,0.32 0.918,0.32 1.325,0.133 2.289,1.317 2.157,2.641 -0.133,1.324 -1.313,2.289 -2.637,2.16 -1.324,-0.133 -2.293,-1.316 -2.16,-2.641 0.133,-1.324 1.316,-2.293 2.64,-2.16 0.36,0.047 0.442,0.07 0.313,0.059 -0.086,0.136 -0.297,0.433 -0.395,0.566 0.203,-1.316 1.434,-2.219 2.75,-2.015 1.317,0.207 2.219,1.437 2.016,2.753 -0.207,1.317 -1.438,2.215 -2.754,2.012 -1.316,-0.203 -2.215,-1.433 -2.012,-2.75 0.047,0 0.102,0.11 0.102,0.262 -0.828,-1.043 -0.652,-2.563 0.394,-3.387 1.043,-0.828 2.559,-0.648 3.387,0.395 0.824,1.043 0.649,2.562 -0.394,3.386 -1.047,0.825 -2.563,0.649 -3.387,-0.394 0.094,-0.008 -0.156,-0.102 -0.563,-0.227 -1.261,-0.425 -1.937,-1.793 -1.511,-3.054 0.422,-1.262 1.793,-1.942 3.05,-1.516 1.262,0.426 1.942,1.793 1.516,3.055 -0.426,1.261 -1.793,1.937 -3.055,1.515 -0.004,-0.074 -0.363,0.02 -1.234,-0.039 -1.328,-0.117 -2.309,-1.285 -2.195,-2.613 0.117,-1.324 1.285,-2.309 2.609,-2.191 0.324,0.043 1.234,-0.036 2.359,0.273 0.782,0.273 2.012,0.934 2.805,1.805 0.684,1.015 0.981,2.531 0.883,3.468 -0.242,1.039 -1.125,2.317 -2.035,2.911 -0.996,0.464 -2.309,0.597 -3.129,0.527 -0.918,-0.117 -2.004,-0.504 -2.68,-0.852 -0.672,-0.363 -1.597,-1.074 -2.156,-1.847 -0.535,-1.004 -0.637,-2.203 -0.617,-2.703 0.058,-0.766 0.316,-1.622 0.543,-2.161 0.187,-0.441 0.617,-1.324 1.273,-2.031 0.574,-0.543 1.504,-1.121 2.301,-1.414 0.766,-0.254 1.852,-0.422 2.707,-0.406 0.758,0.027 1.984,0.23 2.93,0.691 0.839,0.508 1.738,1.547 2.117,2.41 0.316,0.829 0.508,2.137 0.394,3.184 -0.136,0.914 -0.582,2.273 -1.199,3.215 -0.64,0.867 -1.738,1.769 -2.719,2.226 -1.046,0.426 -2.437,0.614 -3.382,0.598 -1.039,-0.051 -2.305,-0.391 -3.086,-0.762 -0.93,-0.515 -1.774,-1.437 -2.137,-2.031 -0.422,-0.793 -0.649,-1.922 -0.641,-2.656 0.043,-0.805 0.321,-1.832 0.625,-2.496 0.313,-0.633 0.922,-1.469 1.559,-2.012 0.598,-0.465 1.578,-0.992 2.422,-1.234 0.836,-0.2 1.914,-0.231 2.668,-0.137 0.687,0.098 1.832,0.394 2.734,0.961 0.746,0.562 1.531,1.574 1.902,2.433 0.321,0.836 0.551,2.157 0.481,3.157 -0.152,1.051 -0.703,2.246 -1.207,2.914 -0.516,0.633 -1.637,1.453 -2.703,1.734 -1.117,0.156 -2.317,-0.058 -2.965,-0.203 -0.719,-0.164 -1.75,-0.477 -2.586,-0.949 -0.777,-0.488 -1.621,-1.305 -2.09,-1.969 -0.512,-0.832 -0.793,-1.894 -0.863,-2.48 -0.067,-0.864 0.105,-1.821 0.25,-2.289 0.183,-0.551 0.808,-1.508 1.43,-1.989 0.726,-0.406 1.66,-0.609 2.187,-0.636 0.613,-0.008 1.32,0.101 1.828,0.222 0.414,0.102 1.254,0.317 2.008,0.703 0.617,0.352 1.355,0.961 1.824,1.508 0.477,0.602 0.934,1.453 1.156,2.063 0.25,0.789 0.301,1.672 0.297,2.066 -0.039,0.66 -0.339,1.57 -0.656,2.07 -1.109,0.946 -2.187,1.125 -1.922,1.106 -0.703,0.062 -1.281,-0.047 -1.031,0.008 -0.238,-0.032 -0.395,-0.067 -0.449,-0.075 -1.313,-0.218 -2.199,-1.461 -1.981,-2.773 0.219,-1.313 1.461,-2.199 2.774,-1.98 z"
         style="fill:#000000;fill-opacity:1;fill-rule:nonzero;stroke:none"
         id="path20" /><path
         d="m 238.859,125.565 0,0.418 c 0,1.332 -1.078,2.41 -2.41,2.41 -1.332,0 -2.41,-1.078 -2.41,-2.41 0,-1.332 1.078,-2.411 2.41,-2.411 1.332,0 2.41,1.079 2.41,2.411 -0.004,0.164 -0.007,0.156 -0.004,0.129 0.083,1.328 -0.929,2.472 -2.257,2.554 -1.328,0.086 -2.473,-0.926 -2.555,-2.254 -0.082,-1.328 0.926,-2.472 2.254,-2.558 1.332,-0.082 2.476,0.929 2.558,2.258 0.012,0.281 -0.011,0.23 -0.144,-0.336 0.523,1.226 -0.043,2.64 -1.266,3.168 -1.226,0.523 -2.64,-0.043 -3.168,-1.27 -0.523,-1.223 0.043,-2.641 1.27,-3.164 1.223,-0.523 2.641,0.043 3.164,1.266 -0.379,-0.555 -1.137,-1.122 -1.117,-1.114 0.246,0.098 -0.551,-0.047 -1.676,0.196 1.16,-0.653 2.629,-0.243 3.281,0.918 0.653,1.16 0.242,2.632 -0.918,3.285 -1.16,0.652 -2.629,0.238 -3.285,-0.922 -0.652,-1.16 -0.238,-2.629 0.922,-3.281 -0.285,0.218 -0.586,0.582 -0.664,0.687 0.023,-0.031 0.012,0.055 -0.008,0.051 0.012,-0.098 0.004,-0.195 -0.016,-0.199 0.008,-0.028 0.247,0.336 0.325,0.441 0.3,0.16 0.523,0.27 0.281,0.211 -0.106,-0.031 -0.137,-0.035 -0.199,-0.027 -0.098,0 0.039,-0.032 0.097,-0.035 -0.05,0.011 0.348,-0.286 0.598,-0.547 0.121,-0.293 0.207,-0.563 0.195,-0.407 -0.023,0.25 -0.054,0.106 -0.062,-0.074 0.019,0.09 -0.11,-0.094 -0.192,-0.23 -0.039,0.004 -0.125,-0.051 0.102,0.008 0.359,0.105 0.457,0.167 0.336,0.121 1.312,-0.215 2.551,0.675 2.766,1.988 0.218,1.316 -0.672,2.555 -1.989,2.769 -1.312,0.215 -2.554,-0.675 -2.769,-1.988 -0.215,-1.312 0.676,-2.555 1.992,-2.769 0.016,0.035 -0.156,0.125 -0.176,0.093 0.016,0.047 -0.019,0.059 0.059,-0.23 0.074,-0.211 0.094,-0.465 0.062,-0.609 0.024,-0.047 0.176,0.304 0.242,0.433 0.231,0.137 0.727,0.371 0.477,0.336 -0.16,-0.039 -0.48,-0.031 -0.84,0.012 -0.344,0.035 -0.578,0.082 -0.777,0.172 -0.242,0.089 -0.27,0.093 -0.254,0.113 0.066,-0.141 0.234,-0.399 0.121,-0.059 -0.086,0.246 -0.109,0.215 -0.074,0.094 -0.02,0.031 -0.086,-0.148 -0.063,-0.16 0.102,0.152 -0.16,-0.043 -0.144,-0.082 0.168,0.086 0.371,0.152 0.316,0.105 1.32,-0.156 2.52,0.793 2.672,2.114 0.156,1.324 -0.793,2.519 -2.113,2.675 -1.324,0.153 -2.52,-0.793 -2.676,-2.117 -0.152,-1.32 0.793,-2.519 2.117,-2.672 0.145,0.004 -0.183,0.18 -0.246,0.161 0.102,-0.059 0.164,-0.192 0.211,-0.512 0.078,-0.219 0.039,-0.696 -0.027,-1.129 -0.051,-0.391 -0.039,-0.418 -0.004,-0.281 0.324,0.199 0.816,0.464 0.437,0.394 -0.086,-0.031 -0.226,-0.023 -0.418,0.031 -0.218,0.036 -0.265,0.047 -0.297,0.098 -0.113,0.066 0.122,-0.238 0.114,-0.148 -0.075,0.152 -0.11,0.207 -0.067,0.246 -0.008,0.148 0.016,0.199 0.157,0.398 0.203,0.328 0.144,0.324 0.265,0.344 0.16,0.121 0.492,0.219 0.684,0.195 1.332,0.039 2.379,1.149 2.343,2.477 -0.039,1.332 -1.148,2.379 -2.476,2.344 -1.332,-0.04 -2.379,-1.145 -2.344,-2.477 0.039,-1.332 1.145,-2.379 2.477,-2.344 0.34,0.02 0.207,0.129 -0.403,0.469 0.844,-1.031 2.36,-1.188 3.391,-0.344 1.035,0.84 1.188,2.36 0.348,3.391 -0.844,1.031 -2.36,1.187 -3.395,0.344 -1.031,-0.84 -1.183,-2.36 -0.344,-3.391 0.282,-0.27 0.446,-0.73 0.387,-1.047 -0.015,-1.332 1.051,-2.426 2.379,-2.441 1.332,-0.016 2.426,1.047 2.441,2.379 0.02,1.332 -1.046,2.425 -2.378,2.441 -1.333,0.016 -2.422,-1.047 -2.442,-2.379 0.512,1.055 0.422,1.16 -0.043,0.805 -1.051,-0.821 -1.242,-2.332 -0.426,-3.387 0.821,-1.051 2.332,-1.238 3.383,-0.422 1.051,0.821 1.242,2.332 0.426,3.383 -0.82,1.051 -2.332,1.242 -3.383,0.426 0.051,-0.02 -0.105,-0.016 -0.715,-0.305 -1.191,-0.598 -1.672,-2.043 -1.078,-3.234 0.598,-1.192 2.043,-1.676 3.235,-1.078 0.136,0.082 0.765,0.285 1.515,0.808 0.227,0.18 1.387,1.074 1.906,2.942 -0.035,1.316 -0.66,3.086 -1.468,4.156 -1.157,1.012 -2.68,1.316 -3.469,1.305 -0.906,-0.051 -2.152,-0.407 -2.941,-0.829 -0.875,-0.55 -1.618,-1.429 -1.965,-1.976 -0.395,-0.66 -0.762,-1.676 -0.864,-2.481 -0.05,-0.894 0.168,-1.953 0.399,-2.543 0.305,-0.687 0.976,-1.511 1.504,-1.918 0.597,-0.406 1.476,-0.769 2.117,-0.918 0.652,-0.132 1.594,-0.167 2.281,-0.066 0.43,0.074 1.637,0.484 2.481,1.328 0.535,0.758 0.898,1.832 1.019,2.598 0.102,0.703 0.149,1.902 -0.031,2.863 -0.219,0.914 -0.777,2.051 -1.367,2.742 -0.735,0.715 -1.961,1.254 -2.754,1.371 -0.973,0.059 -2.129,-0.203 -2.75,-0.453 -0.805,-0.386 -1.586,-1.129 -1.91,-1.57 -0.391,-0.594 -0.727,-1.535 -0.805,-2.203 -0.027,-0.813 0.172,-1.656 0.297,-2.043 0.109,-0.324 0.465,-1.168 1.047,-1.828 0.519,-0.481 1.304,-0.946 1.886,-1.184 0.614,-0.234 1.418,-0.41 2.012,-0.48 0.621,-0.067 1.492,-0.075 2.129,0.011 0.531,0.09 1.578,0.489 2.246,1.079 0.492,0.574 0.965,1.613 1.078,2.386 0.063,0.707 -0.023,1.731 -0.215,2.457 -0.187,0.629 -0.648,1.602 -1.242,2.278 -0.617,0.582 -1.683,1.132 -2.5,1.3 -0.992,0.098 -2,-0.117 -2.453,-0.246 -0.57,-0.172 -1.387,-0.566 -1.945,-1.019 -0.582,-0.578 -1.051,-1.43 -1.211,-1.903 -0.195,-0.765 -0.18,-1.558 -0.156,-1.839 0.035,-0.364 0.215,-1.149 0.57,-1.801 0.48,-0.613 1.258,-1.133 1.621,-1.285 0.481,-0.18 1.148,-0.301 1.582,-0.317 0.457,-0.008 1.063,0.063 1.473,0.16 0.265,0.063 1.008,0.305 1.672,0.77 0.457,0.418 0.968,1.203 1.164,1.738 0.164,0.547 0.265,1.317 0.261,1.844 -0.035,0.609 -0.218,1.332 -0.378,1.727 -0.266,0.55 -0.872,1.257 -1.407,1.617 -1.371,0.375 -2.461,0.078 -2.418,0.101 -0.179,-0.07 -1.117,-0.718 -1.586,-1.484 -0.226,-0.789 -0.23,-1.297 -0.234,-1.266 -0.012,-0.273 -0.004,-0.5 -0.004,-0.429 l 0,-0.418 c 0,-1.332 1.078,-2.411 2.41,-2.411 1.332,0 2.41,1.079 2.41,2.411 z"
         style="fill:#000000;fill-opacity:1;fill-rule:nonzero;stroke:none"
         id="path22" /><path
         d="m 47.523,238.697 c 0.129,-0.257 0.219,-0.464 0.477,-0.957 0.621,-1.179 2.078,-1.628 3.258,-1.011 1.176,0.621 1.629,2.078 1.008,3.258 -0.618,1.175 -2.078,1.628 -3.254,1.011 -1.18,-0.621 -1.633,-2.078 -1.012,-3.258 0.039,-0.07 0.18,-0.324 0.363,-0.636 0.676,-1.145 2.157,-1.524 3.301,-0.848 1.145,0.676 1.527,2.156 0.848,3.301 -0.676,1.148 -2.153,1.527 -3.301,0.851 -1.145,-0.679 -1.527,-2.156 -0.848,-3.304 0.145,-0.242 0.469,-0.821 0.754,-1.25 0.738,-1.11 2.235,-1.407 3.344,-0.668 1.105,0.738 1.406,2.234 0.668,3.343 -0.738,1.106 -2.234,1.407 -3.344,0.668 -1.109,-0.738 -1.406,-2.234 -0.668,-3.343 0.289,-0.434 0.543,-0.742 0.785,-1.055 0.262,-0.336 0.582,-0.754 0.977,-1.223 0.379,-0.445 0.82,-0.925 1.266,-1.418 0.453,-0.507 0.98,-1.097 1.55,-1.711 0.582,-0.621 1.223,-1.273 1.848,-1.921 0.613,-0.641 1.25,-1.289 1.887,-1.961 0.66,-0.7 1.355,-1.446 2.027,-2.176 0.688,-0.754 1.32,-1.445 2.012,-2.242 0.668,-0.762 1.383,-1.618 2.097,-2.469 0.715,-0.852 1.442,-1.758 2.211,-2.672 0.793,-0.934 1.528,-1.75 2.36,-2.734 0.82,-0.973 1.781,-2.098 2.621,-3.145 0.871,-1.09 1.691,-2.144 2.527,-3.273 0.836,-1.129 1.649,-2.344 2.567,-3.621 0.867,-1.211 1.785,-2.43 2.656,-3.649 0.902,-1.254 1.801,-2.531 2.722,-3.851 0.965,-1.383 1.918,-2.692 2.844,-4.114 0.867,-1.332 1.746,-2.925 2.723,-4.468 0.98,-1.539 2.012,-3.063 2.996,-4.532 1.012,-1.511 1.992,-2.976 3.066,-4.519 1.039,-1.5 2.188,-3.028 3.188,-4.481 1.031,-1.496 1.996,-2.961 3.008,-4.511 1.027,-1.571 2.074,-3.231 3.101,-4.84 0.985,-1.547 1.961,-3.043 2.867,-4.528 0.942,-1.539 1.868,-3.093 2.692,-4.562 0.832,-1.477 1.515,-2.824 2.328,-4.356 0.75,-1.418 1.535,-3.007 2.379,-4.527 0.855,-1.539 1.762,-3.027 2.621,-4.469 0.891,-1.504 1.769,-2.918 2.664,-4.418 0.875,-1.464 1.824,-3.004 2.629,-4.429 0.812,-1.438 1.527,-2.899 2.344,-4.383 0.812,-1.484 1.609,-2.91 2.457,-4.379 0.816,-1.422 1.687,-2.871 2.523,-4.285 0.863,-1.457 1.766,-2.926 2.578,-4.32 0.84,-1.442 1.614,-2.778 2.407,-4.208 0.738,-1.339 1.48,-2.843 2.289,-4.273 0.808,-1.441 1.644,-2.832 2.48,-4.187 0.856,-1.387 1.727,-2.743 2.629,-4.098 0.883,-1.332 1.84,-2.66 2.668,-3.891 0.855,-1.269 1.676,-2.547 2.5,-3.789 0.82,-1.234 1.613,-2.48 2.469,-3.703 0.804,-1.141 1.679,-2.348 2.535,-3.402 0.89,-1.094 1.832,-2.09 2.613,-2.93 0.828,-0.894 1.586,-1.668 2.344,-2.426 0.726,-0.726 1.512,-1.496 2.215,-2.133 0.703,-0.636 1.394,-1.226 2.066,-1.734 0.684,-0.516 1.387,-0.98 2.063,-1.375 0.672,-0.391 1.445,-0.769 2.093,-1.047 0.692,-0.293 1.411,-0.535 2.039,-0.711 0.676,-0.191 1.411,-0.34 2.016,-0.441 0.656,-0.102 1.262,-0.141 1.723,-0.176 0.531,-0.039 1.07,-0.066 1.566,-0.082 0.5,-0.012 0.988,-0.012 1.496,0 1.332,0.035 2.383,1.145 2.348,2.477 -0.039,1.328 -1.145,2.379 -2.477,2.343 -1.332,-0.035 -2.379,-1.144 -2.343,-2.476 0.035,-1.328 1.144,-2.379 2.472,-2.344 0.367,0.012 1.047,-0.008 1.809,0.113 1.308,0.235 2.18,1.489 1.945,2.801 -0.234,1.309 -1.488,2.18 -2.801,1.945 -1.308,-0.234 -2.179,-1.488 -1.945,-2.8 0.234,-1.309 1.488,-2.18 2.801,-1.946 0.5,0.09 1.367,0.282 2.199,0.688 1.172,0.605 2.453,1.406 3.617,2.219 0.676,0.472 1.438,1.144 2.02,1.734 0.633,0.656 1.148,1.344 1.625,1.957 0.488,0.633 1.039,1.379 1.527,2.09 0.508,0.746 0.942,1.461 1.41,2.195 0.492,0.77 1.043,1.606 1.621,2.543 0.559,0.914 1.098,1.883 1.672,2.813 0.582,0.953 1.285,1.984 1.981,3.129 0.687,1.125 1.382,2.308 2.093,3.562 0.684,1.207 1.465,2.563 2.184,3.977 0.719,1.429 1.352,2.929 2.004,4.32 0.695,1.48 1.363,2.91 2.113,4.453 0.727,1.488 1.504,3.031 2.34,4.68 0.84,1.652 1.809,3.414 2.758,5.359 1.851,3.809 3.656,7.805 5.551,11.711 0.945,1.949 1.949,3.949 3,5.926 1.074,2.027 2.16,3.953 3.382,6.094 1.168,2.039 2.442,4.183 3.782,6.421 1.363,2.282 2.875,4.774 4.316,7.122 1.5,2.445 2.817,4.66 4.453,7.167 1.539,2.364 3.399,5.067 5.125,7.54 1.785,2.554 3.446,4.91 5.352,7.464 1.949,2.606 4.117,5.321 6.281,8.094 2.078,2.664 4.184,5.402 6.363,8.106 2.223,2.757 4.524,5.55 6.875,8.312 2.407,2.824 4.836,5.559 7.422,8.481 2.492,2.816 5.16,5.769 7.821,8.73 2.664,2.973 5.445,6.109 8.117,9.031 2.785,3.043 5.418,5.946 8.238,8.84 2.672,2.75 5.609,5.61 8.289,8.141 2.762,2.609 5.496,4.98 8.102,7.34 2.597,2.359 5.062,4.546 7.472,6.789 0.973,0.906 1.028,2.429 0.121,3.406 -0.906,0.976 -2.429,1.031 -3.406,0.125 -0.973,-0.906 -1.031,-2.434 -0.125,-3.406 l 0,-0.004 c 0.906,-0.973 2.434,-1.028 3.41,-0.121 2.321,2.156 4.617,4.422 6.629,6.324 0.965,0.914 1.008,2.437 0.094,3.406 -0.914,0.969 -2.438,1.012 -3.406,0.098 -0.969,-0.914 -1.012,-2.442 -0.098,-3.41 0.914,-0.965 2.441,-1.012 3.41,-0.094 2.086,1.973 4.172,3.91 5.762,5.383 0.976,0.902 1.031,2.429 0.125,3.406 -0.906,0.977 -2.43,1.031 -3.406,0.125 -0.977,-0.902 -1.032,-2.43 -0.129,-3.406 0.906,-0.977 2.433,-1.032 3.41,-0.125 1.566,1.453 2.469,2.265 3.715,3.41 0.98,0.902 1.047,2.426 0.144,3.406 -0.898,0.981 -2.425,1.047 -3.406,0.145 -1.234,-1.133 -2.148,-1.957 -3.734,-3.43 -1.586,-1.473 -3.688,-3.422 -5.793,-5.41 -2.051,-1.938 -4.332,-4.192 -6.602,-6.297 -2.367,-2.203 -4.812,-4.375 -7.43,-6.746 -2.558,-2.328 -5.332,-4.731 -8.168,-7.41 -2.71,-2.559 -5.714,-5.485 -8.437,-8.282 -2.875,-2.953 -5.559,-5.914 -8.336,-8.949 -2.703,-2.949 -5.496,-6.105 -8.152,-9.062 -2.653,-2.957 -5.328,-5.922 -7.84,-8.758 -2.586,-2.918 -5.047,-5.688 -7.481,-8.551 -2.379,-2.793 -4.718,-5.633 -6.961,-8.41 -2.214,-2.75 -4.343,-5.52 -6.41,-8.168 -2.148,-2.75 -4.343,-5.504 -6.34,-8.172 -1.949,-2.605 -3.652,-5.027 -5.445,-7.59 -1.734,-2.488 -3.637,-5.25 -5.211,-7.668 -1.683,-2.586 -3.039,-4.863 -4.523,-7.277 -1.446,-2.359 -2.973,-4.875 -4.348,-7.172 -1.34,-2.242 -2.637,-4.43 -3.824,-6.5 -1.231,-2.156 -2.356,-4.148 -3.457,-6.226 -1.074,-2.024 -2.121,-4.106 -3.082,-6.086 -1.922,-3.961 -3.727,-7.957 -5.547,-11.704 -0.895,-1.839 -1.844,-3.558 -2.719,-5.285 -0.84,-1.656 -1.637,-3.234 -2.375,-4.75 -0.769,-1.582 -1.453,-3.047 -2.144,-4.515 -0.696,-1.481 -1.301,-2.918 -1.946,-4.196 -0.652,-1.297 -1.379,-2.55 -2.074,-3.777 -0.695,-1.223 -1.351,-2.34 -2.016,-3.43 -0.636,-1.047 -1.328,-2.062 -1.968,-3.109 -0.629,-1.02 -1.172,-1.996 -1.676,-2.813 -0.539,-0.878 -1.063,-1.675 -1.574,-2.472 -0.5,-0.785 -0.891,-1.434 -1.324,-2.067 -0.442,-0.644 -0.911,-1.281 -1.364,-1.863 -0.504,-0.652 -0.844,-1.121 -1.261,-1.539 -0.446,-0.461 -0.891,-0.852 -1.329,-1.152 -1.062,-0.742 -2.082,-1.379 -3.07,-1.887 -0.246,-0.152 -0.351,-0.137 -0.84,-0.227 -0.222,-0.054 -0.531,-0.027 -1.086,-0.039 -0.445,-0.011 -0.797,-0.011 -1.238,0 -0.434,0.012 -0.855,0.036 -1.324,0.071 -0.516,0.039 -0.906,0.058 -1.32,0.129 -0.504,0.082 -0.977,0.175 -1.477,0.32 -0.527,0.144 -0.949,0.285 -1.461,0.504 -0.527,0.222 -1.035,0.472 -1.555,0.777 -0.562,0.328 -1.019,0.629 -1.586,1.059 -0.558,0.418 -1.082,0.867 -1.734,1.461 -0.625,0.562 -1.332,1.257 -2.043,1.968 -0.742,0.743 -1.437,1.446 -2.219,2.289 -0.801,0.864 -1.633,1.743 -2.406,2.696 -0.769,0.949 -1.547,2.023 -2.332,3.137 -0.793,1.128 -1.551,2.32 -2.395,3.593 -0.804,1.215 -1.636,2.504 -2.519,3.817 -0.875,1.3 -1.824,2.613 -2.652,3.863 -0.883,1.332 -1.711,2.621 -2.539,3.965 -0.825,1.328 -1.606,2.637 -2.387,4.023 -0.742,1.313 -1.477,2.801 -2.274,4.239 -0.808,1.468 -1.609,2.855 -2.457,4.308 -0.84,1.434 -1.746,2.918 -2.593,4.348 -0.844,1.422 -1.7,2.844 -2.493,4.226 -0.832,1.45 -1.609,2.832 -2.41,4.293 -0.761,1.391 -1.496,2.879 -2.371,4.434 -0.851,1.512 -1.832,3.101 -2.691,4.539 -0.914,1.527 -1.785,2.937 -2.656,4.406 -0.872,1.461 -1.743,2.891 -2.551,4.348 -0.785,1.41 -1.551,2.961 -2.336,4.441 -0.789,1.496 -1.504,2.903 -2.387,4.465 -0.852,1.52 -1.82,3.149 -2.777,4.711 -0.946,1.543 -1.946,3.078 -2.914,4.602 -1.02,1.601 -2.086,3.285 -3.133,4.886 -1.016,1.555 -2.012,3.071 -3.074,4.614 -1.055,1.531 -2.207,3.066 -3.2,4.492 -1.046,1.508 -2.004,2.937 -3.015,4.453 -0.992,1.48 -1.996,2.957 -2.934,4.437 -0.902,1.411 -1.789,3.02 -2.75,4.504 -0.996,1.532 -2,2.907 -2.933,4.25 -0.926,1.325 -1.84,2.625 -2.754,3.903 -0.907,1.261 -1.825,2.484 -2.664,3.648 -0.871,1.211 -1.7,2.453 -2.606,3.676 -0.867,1.176 -1.75,2.308 -2.64,3.422 -0.891,1.105 -1.887,2.277 -2.704,3.242 -0.875,1.031 -1.609,1.852 -2.355,2.734 -0.731,0.868 -1.453,1.766 -2.199,2.657 -0.711,0.847 -1.461,1.742 -2.16,2.543 -0.727,0.832 -1.399,1.57 -2.09,2.324 -0.684,0.75 -1.407,1.523 -2.078,2.234 -0.664,0.703 -1.317,1.367 -1.914,1.988 -0.645,0.668 -1.262,1.301 -1.805,1.879 -0.531,0.567 -1.024,1.121 -1.488,1.637 -0.457,0.508 -0.852,0.941 -1.168,1.316 -0.329,0.383 -0.575,0.707 -0.848,1.063 -0.285,0.363 -0.414,0.512 -0.582,0.769 -0.168,0.247 -0.438,0.727 -0.617,1.028 -0.153,0.258 -0.246,0.433 -0.246,0.43 -0.211,0.402 -0.258,0.519 -0.434,0.867 -0.594,1.191 -2.043,1.672 -3.234,1.078 -1.188,-0.594 -1.672,-2.043 -1.075,-3.235 z"
         style="fill:#ed3624;fill-opacity:1;fill-rule:nonzero;stroke:none"
         id="path24" /><path
         d="m 170.695,72.959 c 0.785,-0.41 0.172,-0.055 -0.254,0.324 0.789,-1.07 2.297,-1.3 3.371,-0.507 1.071,0.789 1.301,2.296 0.508,3.371 -0.789,1.07 -2.297,1.297 -3.371,0.507 -1.07,-0.789 -1.297,-2.296 -0.508,-3.371 -0.355,0.727 -0.339,0.641 -0.265,0.399 0.398,-1.274 1.75,-1.981 3.023,-1.582 1.27,0.398 1.977,1.75 1.578,3.023 -0.398,1.27 -1.75,1.977 -3.023,1.578 -1.27,-0.398 -1.977,-1.75 -1.578,-3.019 0.133,-0.383 0.183,-0.426 0.086,-0.055 0.097,-1.328 1.25,-2.324 2.578,-2.23 1.328,0.093 2.328,1.246 2.23,2.574 -0.093,1.328 -1.246,2.328 -2.574,2.234 -1.328,-0.093 -2.328,-1.25 -2.234,-2.578 0.011,0.098 0.109,0.535 0.379,1.09 0.191,0.152 0.375,0.312 0.156,0.203 0.473,0.145 0.84,0.195 0.758,0.199 -0.086,0 0.527,-0.144 1.078,-0.437 0.269,-0.278 0.594,-0.805 0.629,-0.883 -0.008,0.004 0.004,-0.102 0.015,-0.129 -0.004,0.078 -0.015,0.047 -0.015,-0.004 -0.004,0.008 -0.176,-0.281 -0.282,-0.426 -0.175,-0.125 -0.425,-0.277 -0.375,-0.261 -0.003,0.008 -0.156,-0.02 -0.242,-0.032 1.332,-0.031 2.438,1.02 2.469,2.352 0.031,1.332 -1.023,2.438 -2.352,2.469 -1.332,0.031 -2.437,-1.024 -2.468,-2.356 -0.032,-1.328 1.023,-2.433 2.351,-2.465 0.035,0.004 -0.449,0.137 -0.89,0.36 -0.289,0.32 -0.516,0.676 -0.52,0.66 0,0.047 -0.019,0.219 -0.031,0.324 0.027,0.11 0.148,0.438 0.289,0.696 0.344,0.316 0.844,0.613 0.75,0.582 0.125,0.023 0.215,0.043 0.129,0.043 -0.145,-0.004 0.094,-0.04 0.472,-0.133 0.188,-0.11 0.731,-0.602 0.856,-0.77 0.059,-0.148 0.121,-0.363 0.117,-0.277 -0.019,0.148 -0.031,0.18 -0.023,0.117 -0.012,0.016 -0.067,-0.129 -0.086,-0.191 -0.043,-0.036 -0.426,-0.368 -0.582,-0.473 0.015,0.016 -0.485,-0.035 -1.348,0.113 1.203,-0.57 2.641,-0.058 3.211,1.141 0.574,1.203 0.063,2.64 -1.141,3.215 -1.203,0.57 -2.64,0.058 -3.211,-1.145 -0.574,-1.203 -0.062,-2.64 1.141,-3.211 -0.453,0.356 -0.797,0.793 -0.781,0.719 0.062,-0.148 0.086,-0.168 0.062,-0.234 0.012,-0.106 -0.035,-0.309 -0.086,-0.418 -0.007,-0.067 0.211,0.234 0.289,0.332 0.332,0.144 0.68,0.261 0.543,0.257 0.055,-0.015 0.364,-0.078 0.504,-0.117 0.004,-0.015 0.332,-0.312 0.453,-0.441 -0.015,-0.008 0.028,-0.164 0.059,-0.219 -0.019,0.012 -0.047,-0.101 -0.043,-0.156 -0.035,-0.016 -0.176,-0.184 -0.172,-0.207 -0.094,-0.024 -0.215,-0.078 -0.16,-0.082 1.32,0.172 2.25,1.383 2.074,2.703 -0.172,1.32 -1.383,2.25 -2.703,2.074 -1.32,-0.172 -2.25,-1.383 -2.078,-2.703 0.176,-1.32 1.387,-2.25 2.707,-2.074 -0.105,0.015 -0.422,0.062 -0.609,0.113 1.195,-0.586 2.64,-0.086 3.226,1.109 0.582,1.196 0.086,2.641 -1.109,3.223 -1.199,0.586 -2.641,0.09 -3.227,-1.109 -0.582,-1.196 -0.086,-2.637 1.11,-3.223 -0.36,0.281 -0.707,0.672 -0.688,0.625 0.594,-1.191 2.043,-1.676 3.235,-1.078 1.191,0.594 1.671,2.043 1.078,3.234 -0.598,1.192 -2.043,1.672 -3.235,1.078 -1.191,-0.597 -1.675,-2.042 -1.078,-3.234 -0.125,0.453 -0.179,0.559 -0.105,0.055 0.25,-1.309 1.511,-2.168 2.82,-1.918 1.309,0.25 2.168,1.512 1.918,2.82 0,-0.125 -0.023,0.399 -0.32,1.199 -0.153,0.297 -0.754,1.078 -1.508,1.551 -0.57,0.242 -1.488,0.391 -2.137,0.332 -0.512,-0.078 -1.355,-0.355 -1.965,-0.738 -0.5,-0.375 -1.117,-1.086 -1.425,-1.68 -0.266,-0.621 -0.43,-1.515 -0.422,-2.121 0.058,-0.695 0.339,-1.543 0.601,-2.019 0.391,-0.586 1.117,-1.196 1.547,-1.426 0.551,-0.242 1.391,-0.399 1.922,-0.387 0.363,0.024 1.305,0.227 2.07,0.691 0.5,0.415 1.078,1.208 1.328,1.809 0.2,0.547 0.383,1.422 0.407,2.09 -0.016,0.742 -0.219,1.574 -0.379,2.004 -0.196,0.492 -0.832,1.39 -1.653,1.922 -1.222,0.316 -2.308,0.093 -2.66,-0.055 -0.535,-0.27 -1.215,-0.875 -1.508,-1.289 -0.261,-0.43 -0.531,-1.109 -0.632,-1.613 -0.078,-0.567 -0.055,-1.2 -0.02,-1.516 0.051,-0.394 0.219,-1.027 0.442,-1.48 0.285,-0.465 1.039,-1.141 1.511,-1.368 0.66,-0.211 1.297,-0.246 1.512,-0.242 0.281,0.008 0.816,0.071 1.273,0.203 0.227,0.078 1.024,0.496 1.567,1.078 0.34,0.516 0.609,1.286 0.672,1.786 0.027,0.511 -0.067,1.203 -0.196,1.632 -0.129,0.364 -0.55,1.114 -1.121,1.645 -0.711,0.43 -1.59,0.617 -1.926,0.633 -0.476,-0.008 -1.105,-0.121 -1.496,-0.25 -0.324,-0.121 -0.961,-0.465 -1.414,-0.867 -0.375,-0.414 -0.742,-1.067 -0.882,-1.461 -0.141,-0.465 -0.219,-1.059 -0.231,-1.422 0.004,-0.457 0.094,-1.02 0.18,-1.328 0.125,-0.387 0.57,-1.129 1.008,-1.539 0.726,-0.434 1.574,-0.594 1.73,-0.602 0.164,-0.004 0.863,0.043 1.578,0.309 0.27,0.136 0.981,0.574 1.524,1.183 0.445,0.785 0.613,1.699 0.593,2.18 -0.121,0.754 -0.332,1.238 -0.293,1.152 -0.023,0.067 -0.066,0.254 -0.457,1.024 -0.648,0.679 -1.422,1.007 -0.824,0.734 -1.086,0.773 -2.59,0.523 -3.363,-0.559 -0.774,-1.085 -0.524,-2.589 0.562,-3.363 z"
         style="fill:#000000;fill-opacity:1;fill-rule:nonzero;stroke:none"
         id="path26" /><path
         d="m 174.18,82.615 0,0.247 c 0,1.332 -1.082,2.41 -2.414,2.41 -1.328,0 -2.411,-1.078 -2.411,-2.41 0,-1.333 1.083,-2.411 2.411,-2.411 1.332,0 2.414,1.078 2.414,2.411 l 0,0.218 c 0,1.332 -1.082,2.41 -2.414,2.41 -1.328,0 -2.411,-1.078 -2.411,-2.41 0,-1.332 1.083,-2.41 2.411,-2.41 1.332,0 2.414,1.078 2.414,2.41 -0.004,0.149 -0.008,0.301 -0.004,0.395 0.039,1.332 -1.012,2.441 -2.34,2.476 -1.332,0.039 -2.441,-1.011 -2.481,-2.339 -0.035,-1.333 1.012,-2.442 2.344,-2.477 1.332,-0.039 2.442,1.012 2.477,2.34 0.004,0.137 0.012,0.246 0.023,0.406 0.008,0.125 0.031,0.305 0.051,0.535 0.02,0.207 0.039,0.43 0.055,0.641 0.019,0.219 0.039,0.433 0.054,0.664 0.02,0.219 0.039,0.461 0.055,0.691 0.02,0.219 0.043,0.485 0.059,0.754 0.015,0.258 0.027,0.524 0.031,0.778 0.004,0.265 0,0.511 0,0.703 l 0,0.652 c 0,0.254 -0.004,0.43 0,0.641 0.004,0.195 0.016,0.453 0.027,0.757 0.008,0.293 0.02,0.618 0.028,0.938 0.007,0.312 0.023,0.66 0.027,1.047 0.008,0.367 0,0.762 0,1.094 l 0,10.289 c 0,0.41 0.008,0.851 0,1.281 -0.004,0.441 -0.02,0.836 -0.027,1.23 -0.008,0.371 -0.012,0.789 -0.028,1.203 -0.015,0.422 -0.039,0.844 -0.054,1.208 -0.02,0.378 -0.039,0.718 -0.055,1.07 -0.02,0.359 -0.043,0.683 -0.055,0.98 -0.012,0.325 -0.023,0.625 -0.027,0.946 -0.004,0.296 0.008,0.656 0,1.039 -0.004,0.355 -0.02,0.699 -0.028,0.968 -0.007,0.293 -0.019,0.551 -0.027,0.801 -0.012,0.293 -0.023,0.492 -0.027,0.723 -0.004,0.219 0,0.515 0,0.805 l 0,2.265 c 0,1.328 -1.078,2.41 -2.41,2.41 -1.332,0 -2.41,-1.082 -2.41,-2.41 0,-1.332 1.078,-2.414 2.41,-2.414 1.332,0 2.41,1.082 2.41,2.414 l 0,0.242 c 0,1.332 -1.078,2.414 -2.41,2.414 -1.332,0 -2.41,-1.082 -2.41,-2.414 0,-1.328 1.078,-2.41 2.41,-2.41 1.332,0 2.41,1.082 2.41,2.41 0,0.106 0,0.161 -0.004,0.032 0.09,1.328 -0.914,2.476 -2.246,2.566 -1.328,0.09 -2.477,-0.918 -2.563,-2.246 -0.09,-1.328 0.914,-2.477 2.243,-2.563 1.332,-0.089 2.48,0.914 2.566,2.243 -0.004,-0.036 -0.012,-0.114 0.016,0.082 0.164,1.32 -0.774,2.523 -2.094,2.691 -1.321,0.164 -2.528,-0.773 -2.692,-2.094 0.008,0.047 -0.019,-0.117 -0.039,-0.359 -0.007,-0.191 -0.007,-0.313 -0.007,-0.352 l 0,-2.507 c 0,-0.254 -0.004,-0.586 0,-0.887 0.007,-0.32 0.023,-0.57 0.031,-0.809 0.008,-0.258 0.015,-0.504 0.027,-0.785 0.008,-0.301 0.02,-0.598 0.024,-0.883 0.007,-0.281 -0.004,-0.644 0,-1.035 0.007,-0.355 0.015,-0.723 0.031,-1.078 0.015,-0.367 0.039,-0.719 0.054,-1.035 0.02,-0.356 0.036,-0.684 0.055,-1.059 0.02,-0.375 0.039,-0.765 0.055,-1.136 0.012,-0.36 0.015,-0.75 0.023,-1.149 0.012,-0.418 0.024,-0.781 0.028,-1.172 0.004,-0.375 0,-0.789 0,-1.226 l 0,-10.289 c 0,-0.36 0.004,-0.727 0,-1.032 -0.004,-0.32 -0.016,-0.632 -0.028,-0.972 -0.008,-0.321 -0.015,-0.633 -0.023,-0.922 -0.012,-0.258 -0.024,-0.543 -0.031,-0.821 -0.004,-0.3 0,-0.527 0,-0.73 l 0,-0.652 c 0,-0.243 0.004,-0.438 0,-0.606 -0.004,-0.203 -0.008,-0.379 -0.024,-0.59 -0.008,-0.187 -0.031,-0.41 -0.051,-0.664 -0.015,-0.226 -0.035,-0.457 -0.054,-0.675 -0.016,-0.223 -0.035,-0.43 -0.051,-0.645 -0.02,-0.211 -0.039,-0.422 -0.055,-0.613 -0.015,-0.168 -0.039,-0.379 -0.058,-0.614 -0.016,-0.211 -0.028,-0.437 -0.032,-0.628 -0.007,-0.231 -0.004,-0.454 -0.004,-0.532 l 0,-0.465 c 0,-1.332 1.083,-2.41 2.415,-2.41 1.328,0 2.41,1.078 2.41,2.41 z"
         style="fill:#969696;fill-opacity:1;fill-rule:nonzero;stroke:none"
         id="path28" /><path
         d="m 157.406,76.065 -0.281,0 c -1.332,0 -2.41,-1.082 -2.41,-2.411 0,-1.332 1.078,-2.41 2.41,-2.41 1.332,0 2.41,1.078 2.41,2.41 0,1.329 -1.078,2.411 -2.41,2.411 l -0.227,0 c -1.332,0 -2.41,-1.082 -2.41,-2.411 0,-1.332 1.078,-2.41 2.41,-2.41 1.332,0 2.411,1.078 2.411,2.41 0,1.329 -1.079,2.411 -2.411,2.411 l -0.453,0 c -1.332,0 -2.41,-1.082 -2.41,-2.411 0,-1.332 1.078,-2.41 2.41,-2.41 1.332,0 2.41,1.078 2.41,2.41 0,1.329 -1.078,2.411 -2.41,2.411 l -1.894,0 c -0.239,0 -0.356,-0.012 -0.453,-0.004 -0.125,0.008 -0.289,0.023 -0.5,0.043 -0.18,0.019 -0.387,0.047 -0.625,0.078 -0.207,0.023 -0.45,0.055 -0.703,0.082 -0.223,0.023 -0.469,0.047 -0.711,0.062 -0.262,0.016 -0.504,0.02 -0.696,0.028 -0.195,0.011 -0.433,0.023 -0.718,0.031 -0.293,0.004 -0.547,-0.004 -0.723,0 -0.203,0 -0.438,0.016 -0.703,0.023 -0.254,0.012 -0.492,0.02 -0.746,0.028 -0.223,0.008 -0.496,0.023 -0.793,0.027 -0.297,0.004 -0.578,0 -0.817,0 l -9.867,0 c -0.312,0 -0.59,-0.004 -0.84,0 -0.258,0.004 -0.496,0.012 -0.75,0.024 -0.254,0.015 -0.48,0.031 -0.758,0.05 -0.25,0.02 -0.562,0.055 -0.914,0.082 -0.304,0.02 -0.632,0.043 -0.949,0.055 -0.324,0.016 -0.687,0.023 -0.976,0.031 -0.321,0.004 -0.567,0 -0.813,0 l -17.601,0 c -1.333,0 -2.411,-1.082 -2.411,-2.41 0,-1.332 1.078,-2.414 2.411,-2.414 1.332,0 2.41,1.082 2.41,2.414 0,1.328 -1.078,2.41 -2.41,2.41 l -0.372,0 c -1.332,0 -2.41,-1.082 -2.41,-2.41 0,-1.332 1.078,-2.414 2.41,-2.414 1.332,0 2.411,1.082 2.411,2.414 0,1.328 -1.079,2.41 -2.411,2.41 -0.062,0 -0.226,0.004 -0.535,-0.015 -1.324,-0.149 -2.277,-1.34 -2.129,-2.664 0.149,-1.325 1.34,-2.278 2.664,-2.129 1.325,0.148 2.278,1.34 2.129,2.664 -0.148,1.324 -1.34,2.277 -2.664,2.129 -0.437,-0.071 -0.824,-0.215 -0.531,-0.11 -1.289,-0.324 -2.078,-1.633 -1.754,-2.926 0.324,-1.289 1.633,-2.074 2.922,-1.753 0.437,0.14 0.098,0.043 -0.102,-0.004 -0.226,-0.008 -0.156,-0.016 0,-0.016 l 17.973,0 c 0.289,0 0.492,0.008 0.734,0 0.262,-0.004 0.563,-0.012 0.84,-0.023 0.274,-0.012 0.532,-0.028 0.809,-0.047 0.258,-0.02 0.566,-0.055 0.898,-0.082 0.297,-0.024 0.598,-0.043 0.899,-0.059 0.289,-0.012 0.605,-0.023 0.902,-0.027 0.328,-0.004 0.645,0 0.918,0 l 9.867,0 c 0.282,0 0.52,0.004 0.735,0 0.207,-0.004 0.437,-0.016 0.699,-0.028 0.254,-0.007 0.496,-0.015 0.75,-0.023 0.223,-0.008 0.5,-0.023 0.789,-0.027 0.305,-0.008 0.559,0.004 0.715,0 0.187,-0.004 0.371,-0.016 0.617,-0.028 0.238,-0.008 0.426,-0.011 0.582,-0.023 0.176,-0.012 0.324,-0.024 0.52,-0.047 0.179,-0.016 0.386,-0.043 0.628,-0.074 0.2,-0.024 0.446,-0.059 0.711,-0.086 0.219,-0.02 0.508,-0.051 0.778,-0.063 0.308,-0.011 0.547,0 0.664,0 l 2.855,0 c 1.332,0 2.41,1.078 2.41,2.41 0,1.333 -1.078,2.411 -2.41,2.411 z"
         style="fill:#969696;fill-opacity:1;fill-rule:nonzero;stroke:none"
         id="path30" /><path
         d="m 233.43,114.705 0,-0.269 c 0,-1.332 1.078,-2.41 2.41,-2.41 1.332,0 2.41,1.078 2.41,2.41 0,1.332 -1.078,2.41 -2.41,2.41 -1.332,0 -2.41,-1.078 -2.41,-2.41 l 0,-0.125 c 0,-1.332 1.078,-2.41 2.41,-2.41 1.332,0 2.41,1.078 2.41,2.41 0,1.332 -1.078,2.41 -2.41,2.41 -1.332,0 -2.41,-1.078 -2.41,-2.41 l 0,-0.364 c 0,-1.328 1.078,-2.41 2.41,-2.41 1.332,0 2.41,1.082 2.41,2.41 0,1.332 -1.078,2.411 -2.41,2.411 -1.332,0 -2.41,-1.079 -2.41,-2.411 l 0,-2.886 c 0,-0.117 -0.008,-0.313 0,-0.563 0.011,-0.258 0.035,-0.433 0.043,-0.547 0.011,-0.156 0.023,-0.339 0.035,-0.523 0.012,-0.219 0.027,-0.383 0.031,-0.5 0.004,-0.117 0,-0.266 0,-0.5 l 0,-13.789 c 0,-0.266 0.004,-0.461 0,-0.625 -0.004,-0.199 -0.016,-0.363 -0.031,-0.551 -0.008,-0.144 -0.035,-0.324 -0.063,-0.586 -0.023,-0.199 -0.058,-0.465 -0.082,-0.762 -0.019,-0.269 -0.035,-0.574 -0.043,-0.847 -0.004,-0.324 0.008,-0.567 0,-0.723 -0.004,-0.219 -0.011,-0.41 -0.031,-0.652 -0.016,-0.242 -0.035,-0.469 -0.062,-0.742 -0.024,-0.227 -0.075,-0.559 -0.11,-0.911 -0.035,-0.343 -0.055,-0.652 -0.074,-0.906 -0.023,-0.254 -0.055,-0.539 -0.078,-0.875 -0.02,-0.32 -0.027,-0.625 -0.039,-0.887 -0.012,-0.273 -0.031,-0.605 -0.039,-0.957 -0.004,-0.382 0.008,-0.683 0,-0.941 -0.004,-0.27 -0.02,-0.594 -0.032,-0.93 -0.015,-0.34 -0.019,-0.625 -0.035,-0.89 -0.015,-0.246 -0.05,-0.547 -0.074,-0.938 -0.019,-0.347 -0.027,-0.679 -0.035,-0.988 -0.016,-0.34 -0.027,-0.711 -0.039,-1.051 -0.012,-0.375 -0.016,-0.691 -0.035,-1.008 -0.012,-0.3 -0.043,-0.652 -0.067,-1 -0.023,-0.308 -0.054,-0.636 -0.074,-1.011 -0.019,-0.36 -0.035,-0.743 -0.039,-1.102 -0.008,-0.367 -0.004,-0.719 -0.004,-1.016 l 0,-5.882 c 0,-0.368 0.008,-0.704 0.004,-1.008 -0.008,-0.309 -0.023,-0.629 -0.035,-1.004 -0.012,-0.34 -0.027,-0.703 -0.039,-1.047 -0.012,-0.332 -0.028,-0.703 -0.035,-1.09 -0.008,-0.39 0,-0.734 0,-1.086 0,-0.379 0.004,-0.761 0,-1.121 -0.008,-0.383 -0.02,-0.769 -0.036,-1.156 -0.015,-0.379 -0.042,-0.77 -0.07,-1.188 -0.023,-0.371 -0.054,-0.789 -0.074,-1.179 -0.02,-0.379 -0.031,-0.742 -0.039,-1.086 -0.004,-0.406 0.008,-0.719 0,-0.973 -0.004,-0.273 -0.016,-0.527 -0.031,-0.808 -0.016,-0.293 -0.039,-0.563 -0.067,-0.848 -0.019,-0.246 -0.07,-0.547 -0.105,-0.945 -0.035,-0.336 -0.063,-0.723 -0.082,-1.067 -0.02,-0.348 -0.032,-0.715 -0.039,-1.062 -0.008,-0.379 0,-0.735 0,-1.055 0,-0.352 0.007,-0.684 0,-0.969 -0.004,-0.301 -0.02,-0.625 -0.035,-0.965 -0.012,-0.324 -0.024,-0.632 -0.036,-0.929 -0.011,-0.262 -0.027,-0.571 -0.035,-0.871 -0.008,-0.313 -0.004,-0.582 -0.004,-0.743 0,-1.332 1.082,-2.41 2.414,-2.41 1.329,0 2.411,1.078 2.411,2.41 0,1.332 -1.082,2.411 -2.411,2.411 -1.332,0 -2.414,-1.079 -2.414,-2.411 l 0,-0.507 c 0,-1.329 1.082,-2.411 2.414,-2.411 1.329,0 2.411,1.082 2.411,2.411 0,1.332 -1.082,2.414 -2.411,2.414 -1.332,0 -2.414,-1.082 -2.414,-2.414 0.004,-0.211 0.008,-0.25 0.016,-0.071 -0.141,-1.324 0.82,-2.511 2.144,-2.648 1.325,-0.141 2.512,0.82 2.649,2.144 0.141,1.325 -0.82,2.508 -2.145,2.649 -1.324,0.14 -2.511,-0.821 -2.648,-2.145 0.016,0.067 0.019,0.137 -0.039,-0.14 -0.262,-1.305 0.586,-2.575 1.89,-2.836 1.305,-0.262 2.575,0.586 2.836,1.89 -0.011,-0.035 0.059,0.207 0.106,0.582 0.023,0.325 0.012,0.516 0.016,0.575 l 0,0.507 c 0,0.231 -0.008,0.43 0,0.629 0.003,0.196 0.019,0.473 0.031,0.789 0.015,0.305 0.027,0.621 0.039,0.946 0.012,0.304 0.027,0.675 0.035,1.058 0.008,0.371 0,0.746 0,1.055 0,0.363 -0.004,0.676 0,0.965 0.008,0.304 0.016,0.578 0.035,0.887 0.016,0.296 0.035,0.593 0.063,0.878 0.023,0.254 0.07,0.547 0.109,0.934 0.031,0.336 0.059,0.695 0.078,1.031 0.02,0.321 0.035,0.668 0.039,0.996 0.008,0.395 -0.004,0.707 0,0.977 0.008,0.301 0.02,0.586 0.035,0.934 0.016,0.324 0.047,0.722 0.071,1.128 0.023,0.391 0.054,0.825 0.074,1.27 0.019,0.422 0.031,0.879 0.039,1.297 0.004,0.43 0,0.851 0,1.191 0,0.395 -0.008,0.696 0,1.004 0.004,0.305 0.023,0.633 0.035,1.004 0.012,0.348 0.024,0.707 0.035,1.047 0.012,0.336 0.032,0.695 0.039,1.09 0.004,0.386 0,0.761 0,1.09 l 0,5.882 c 0,0.344 -0.007,0.649 0,0.93 0.004,0.317 0.016,0.613 0.032,0.922 0.015,0.277 0.043,0.566 0.07,0.934 0.023,0.32 0.055,0.714 0.074,1.097 0.02,0.395 0.027,0.754 0.039,1.086 0.012,0.348 0.024,0.711 0.035,1.043 0.012,0.344 0.02,0.625 0.035,0.887 0.012,0.25 0.047,0.555 0.071,0.937 0.019,0.356 0.027,0.688 0.039,0.989 0.012,0.297 0.031,0.664 0.039,1.019 0.004,0.395 -0.008,0.699 0,0.938 0.004,0.254 0.019,0.535 0.031,0.847 0.016,0.309 0.02,0.555 0.035,0.774 0.012,0.23 0.039,0.465 0.067,0.785 0.027,0.305 0.043,0.574 0.07,0.824 0.024,0.231 0.07,0.555 0.106,0.899 0.035,0.312 0.062,0.628 0.082,0.914 0.019,0.285 0.035,0.586 0.039,0.863 0.007,0.332 -0.004,0.574 0,0.723 0.007,0.214 0.015,0.394 0.031,0.593 0.012,0.168 0.039,0.364 0.066,0.614 0.016,0.179 0.051,0.421 0.078,0.714 0.02,0.262 0.036,0.559 0.043,0.817 0.008,0.289 0,0.547 0,0.75 l 0,13.789 c 0,0.156 0.004,0.383 0,0.652 -0.011,0.262 -0.031,0.5 -0.043,0.657 -0.011,0.187 -0.023,0.382 -0.035,0.558 -0.015,0.231 -0.031,0.332 -0.031,0.391 -0.004,0.062 0,0.164 0,0.375 l 0,3.644 c 0,1.332 -1.078,2.414 -2.41,2.414 -1.332,0 -2.41,-1.082 -2.41,-2.414 z"
         style="fill:#969696;fill-opacity:1;fill-rule:nonzero;stroke:none"
         id="path32" /><path
         d="m 114.141,40.881 c -0.024,0.008 0.136,-0.043 0.406,-0.098 1.305,-0.261 2.574,0.586 2.836,1.891 0.258,1.305 -0.586,2.574 -1.895,2.836 -1.304,0.262 -2.574,-0.586 -2.836,-1.891 -0.261,-1.304 0.586,-2.578 1.895,-2.836 0.18,-0.031 0.277,-0.043 0.367,-0.054 1.32,-0.164 2.524,0.773 2.691,2.093 0.165,1.321 -0.773,2.528 -2.093,2.692 -1.321,0.164 -2.528,-0.77 -2.692,-2.094 -0.164,-1.32 0.77,-2.523 2.094,-2.691 0.024,0 0.274,-0.043 0.57,-0.063 1.332,-0.062 2.461,0.961 2.524,2.293 0.062,1.328 -0.961,2.457 -2.293,2.524 -1.328,0.062 -2.457,-0.965 -2.524,-2.293 -0.062,-1.332 0.965,-2.461 2.293,-2.524 0.344,-0.015 0.586,-0.004 0.75,-0.004 l 27.813,0 c 0.355,0 0.66,0.008 0.91,0 1.332,-0.031 2.438,1.02 2.473,2.348 0.035,1.332 -1.016,2.437 -2.348,2.473 -1.332,0.035 -2.437,-1.016 -2.473,-2.348 -0.031,-1.332 1.02,-2.438 2.348,-2.473 0.289,-0.008 0.547,-0.019 0.781,-0.039 0.196,-0.015 0.367,-0.047 0.688,-0.09 0.219,-0.027 0.527,-0.07 0.844,-0.101 0.277,-0.028 0.582,-0.051 0.886,-0.059 1.328,-0.043 2.442,1.004 2.485,2.332 0.039,1.332 -1.004,2.446 -2.336,2.485 -1.332,0.043 -2.442,-1.004 -2.485,-2.332 -0.043,-1.332 1.004,-2.446 2.336,-2.485 0.336,-0.011 0.645,-0.004 0.899,-0.004 l 56.215,0 c 0.367,0 0.734,0.008 1.011,0.004 1.332,-0.035 2.438,1.02 2.469,2.352 0.031,1.332 -1.023,2.433 -2.352,2.469 -1.332,0.031 -2.437,-1.024 -2.468,-2.356 -0.032,-1.332 1.023,-2.434 2.351,-2.465 0.285,-0.008 0.563,-0.031 0.907,-0.047 0.32,-0.015 0.613,-0.031 0.917,-0.05 0.254,-0.012 0.575,-0.039 0.942,-0.051 1.332,-0.035 2.437,1.015 2.476,2.347 0.036,1.329 -1.015,2.438 -2.347,2.473 -1.328,0.035 -2.438,-1.012 -2.473,-2.344 -0.039,-1.332 1.012,-2.441 2.344,-2.476 0.367,-0.008 0.707,0 0.988,0 l 0.973,0 c 0.359,0 0.719,0.008 1.015,0 1.332,-0.031 2.434,1.023 2.465,2.355 0.032,1.332 -1.023,2.434 -2.355,2.465 -1.332,0.031 -2.434,-1.023 -2.465,-2.355 -0.031,-1.332 1.023,-2.434 2.355,-2.465 0.305,-0.004 0.637,-0.028 1.016,-0.047 0.363,-0.016 0.719,-0.031 1.063,-0.047 0.3,-0.016 0.664,-0.039 1.023,-0.051 1.332,-0.035 2.441,1.016 2.477,2.348 0.035,1.328 -1.016,2.437 -2.348,2.473 -1.332,0.035 -2.438,-1.016 -2.473,-2.348 -0.035,-1.332 1.016,-2.438 2.344,-2.473 0.379,-0.008 0.695,0 0.941,0 l 9.774,0 c 0.23,0 0.359,0.008 0.426,0 1.328,-0.058 2.457,0.969 2.515,2.301 0.063,1.328 -0.969,2.457 -2.297,2.516 -1.332,0.062 -2.457,-0.969 -2.519,-2.297 -0.059,-1.332 0.969,-2.457 2.301,-2.52 0.058,0 0.179,-0.019 0.445,-0.043 0.207,-0.015 0.43,-0.031 0.652,-0.05 0.219,-0.016 0.469,-0.032 0.688,-0.047 0.277,-0.02 0.472,-0.024 0.574,-0.039 0.117,-0.012 0.227,-0.036 0.41,-0.071 0.11,-0.019 0.188,-0.039 0.336,-0.078 0.059,-0.012 0.219,-0.058 0.469,-0.113 0.269,-0.047 0.441,-0.063 0.445,-0.067 0.016,0 0.168,-0.035 0.422,-0.066 1.324,-0.133 2.504,0.836 2.637,2.16 0.133,1.324 -0.832,2.508 -2.16,2.637 -1.325,0.133 -2.504,-0.832 -2.637,-2.156 -0.133,-1.325 0.836,-2.508 2.16,-2.641 0.32,-0.019 0.551,-0.004 0.434,-0.012 1.332,0 2.41,1.082 2.41,2.41 0,1.333 -1.078,2.415 -2.41,2.415 -1.332,0 -2.411,-1.082 -2.411,-2.415 0,-1.328 1.079,-2.41 2.411,-2.41 l 0.144,0 c 1.332,0 2.41,1.082 2.41,2.41 0,1.333 -1.078,2.415 -2.41,2.415 -1.332,0 -2.41,-1.082 -2.41,-2.415 0,-1.328 1.078,-2.41 2.41,-2.41 0.289,0.012 0.117,0.012 -0.805,0.196 1.223,-0.524 2.641,0.039 3.168,1.265 0.524,1.223 -0.043,2.641 -1.265,3.164 -1.223,0.528 -2.641,-0.039 -3.164,-1.261 -0.528,-1.223 0.039,-2.641 1.261,-3.168 -0.41,0.25 -0.625,0.418 -0.3,0.14 1.066,-0.797 2.578,-0.582 3.375,0.485 0.8,1.062 0.582,2.574 -0.481,3.375 0.196,-0.18 -0.109,0.109 -0.691,0.433 -0.981,0.207 -1.293,0.18 -1.098,0.196 l -0.144,0 c -0.231,-0.008 -0.114,-0.012 0.043,-0.016 0.093,-0.016 0.027,0.004 -0.164,0.035 -0.208,0.027 -0.254,0.027 -0.235,0.027 0.012,-0.003 -0.09,0.028 -0.308,0.082 -0.122,0.028 -0.313,0.075 -0.539,0.118 -0.161,0.031 -0.45,0.086 -0.758,0.125 -0.313,0.035 -0.602,0.047 -0.785,0.058 -0.227,0.016 -0.469,0.031 -0.676,0.047 -0.223,0.02 -0.426,0.031 -0.61,0.047 -0.121,0.012 -0.328,0.039 -0.625,0.055 -0.285,0.011 -0.523,0.004 -0.644,0.004 l -9.774,0 c -0.316,0 -0.562,-0.008 -0.812,0 -0.242,0.003 -0.563,0.027 -0.922,0.046 -0.355,0.016 -0.715,0.032 -1.074,0.047 -0.324,0.016 -0.711,0.039 -1.125,0.051 -0.406,0.008 -0.821,0 -1.125,0 l -0.973,0 c -0.344,0 -0.621,-0.008 -0.859,0 -0.227,0.004 -0.477,0.027 -0.809,0.047 -0.308,0.016 -0.609,0.031 -0.929,0.047 -0.282,0.015 -0.633,0.043 -1.04,0.051 -0.394,0.011 -0.812,0 -1.128,0 l -56.215,0 c -0.325,0 -0.563,-0.008 -0.75,0 -0.211,0.007 -0.344,0.015 -0.571,0.039 -0.183,0.015 -0.429,0.054 -0.711,0.09 -0.214,0.027 -0.492,0.074 -0.871,0.105 -0.328,0.031 -0.718,0.051 -1.07,0.059 -0.375,0.007 -0.738,0 -1.035,0 l -27.813,0 c -0.293,0 -0.406,-0.012 -0.519,-0.004 0.07,-0.008 -0.031,0.011 -0.203,0.035 -0.106,0.012 -0.192,0.023 -0.024,-0.004 -0.039,0.004 0.039,-0.012 -0.176,0.047 -1.292,0.324 -2.601,-0.461 -2.925,-1.754 -0.325,-1.289 0.461,-2.598 1.754,-2.922 z"
         style="fill:#969696;fill-opacity:1;fill-rule:nonzero;stroke:none"
         id="path34" /><path
         d="m 170.777,125.975 c 0.969,-0.34 0.227,-0.031 -0.418,0.465 0.805,-1.059 2.321,-1.266 3.379,-0.461 1.063,0.804 1.27,2.316 0.465,3.375 -0.805,1.062 -2.316,1.269 -3.379,0.465 -1.058,-0.805 -1.269,-2.317 -0.465,-3.379 -0.359,0.734 -0.367,0.718 -0.297,0.437 0.329,-1.289 1.641,-2.07 2.93,-1.742 1.293,0.328 2.07,1.641 1.742,2.934 -0.328,1.289 -1.64,2.07 -2.929,1.742 -1.289,-0.328 -2.071,-1.641 -1.743,-2.934 0.149,-0.496 0.196,-0.469 0.118,-0.101 -0.047,-1.329 0.988,-2.45 2.32,-2.5 1.332,-0.047 2.449,0.988 2.5,2.32 0.051,1.328 -0.988,2.449 -2.32,2.5 -1.328,0.051 -2.45,-0.988 -2.5,-2.32 0.047,0.144 0.019,0.132 -0.067,-0.071 -0.039,-0.105 0.008,-0.031 -0.035,-0.07 0.047,0.027 0.106,0.09 -0.035,0.004 0.035,0.004 0.152,0.066 0.043,0.031 -0.16,-0.051 0.133,-0.008 0.578,0 0.125,-0.035 0.887,-0.437 1.207,-0.746 0.129,-0.238 0.227,-0.488 0.227,-0.449 -0.028,0.168 -0.043,0.113 -0.032,0.023 -0.004,0.047 -0.039,-0.035 -0.023,-0.043 -0.031,-0.015 -0.223,-0.195 -0.188,-0.187 0.055,0.043 -0.054,0.015 -0.156,-0.028 1.328,0.122 2.305,1.293 2.188,2.618 -0.121,1.328 -1.293,2.304 -2.617,2.187 -1.329,-0.121 -2.305,-1.293 -2.188,-2.617 0.121,-1.324 1.293,-2.305 2.617,-2.188 -0.078,0.02 -0.394,0.079 -0.472,0.09 -0.106,0.09 -0.352,0.317 -0.411,0.364 -0.039,0.128 -0.086,0.246 -0.089,0.199 0.015,0.054 0.035,0.285 0.027,0.293 0.027,0.035 0.297,0.433 0.484,0.633 0.27,0.136 0.504,0.234 0.407,0.222 -0.02,-0.012 0.113,-0.015 0.207,-0.015 0.074,-0.032 0.48,-0.243 0.699,-0.399 0.179,-0.25 0.383,-0.64 0.375,-0.594 -0.028,0.094 -0.02,-0.089 -0.008,-0.183 0,0.047 -0.043,-0.055 -0.066,-0.149 -0.008,0.02 -0.188,-0.164 -0.215,-0.207 -0.004,0.016 -0.129,-0.019 -0.266,-0.066 1.328,0.094 2.332,1.242 2.242,2.57 -0.093,1.328 -1.242,2.332 -2.57,2.242 -1.328,-0.089 -2.332,-1.242 -2.242,-2.57 0.094,-1.328 1.242,-2.332 2.57,-2.242 -0.117,0.023 -0.664,0.176 -0.957,0.324 -0.18,0.215 -0.363,0.508 -0.418,0.598 0.004,0.144 0,0.301 -0.016,0.304 0.036,0.055 0.223,0.364 0.403,0.583 0.351,0.191 0.765,0.328 0.887,0.351 0.203,-0.035 0.792,-0.254 1.046,-0.414 -0.984,0.895 -2.511,0.82 -3.406,-0.164 -0.894,-0.988 -0.82,-2.512 0.168,-3.406 0.984,-0.895 2.512,-0.821 3.406,0.164 0.895,0.988 0.821,2.511 -0.168,3.406 0.129,-0.164 0.329,-0.523 0.407,-0.695 -0.262,1.304 -1.532,2.152 -2.84,1.89 -1.305,-0.261 -2.153,-1.531 -1.891,-2.836 0.262,-1.304 1.531,-2.152 2.836,-1.89 1.309,0.261 2.152,1.531 1.895,2.836 -0.02,0.047 -0.059,-0.133 -0.34,-0.969 0.758,1.098 0.48,2.598 -0.617,3.352 -1.094,0.757 -2.594,0.48 -3.352,-0.618 -0.754,-1.093 -0.48,-2.597 0.617,-3.351 1.098,-0.754 2.598,-0.481 3.352,0.617 -0.399,-0.281 -0.317,-0.371 0.406,0.07 1.102,0.742 1.395,2.242 0.652,3.348 -0.742,1.101 -2.242,1.394 -3.347,0.652 0.027,-0.027 -0.801,-0.355 -1.68,-1.336 -0.519,-1.187 -0.504,-2.257 -0.422,-2.711 0.172,-0.664 0.66,-1.496 1.086,-1.929 0.567,-0.442 1.578,-0.805 2.192,-0.84 0.531,0.023 1.503,0.293 2.207,0.777 0.527,0.508 1,1.34 1.168,1.899 0.125,0.531 0.16,1.414 0.027,2.093 -0.188,0.618 -0.707,1.485 -1.266,2 -0.668,0.442 -1.738,0.719 -2.363,0.707 -0.664,-0.082 -1.484,-0.378 -1.965,-0.66 -0.5,-0.34 -1.078,-0.949 -1.363,-1.398 -0.297,-0.547 -0.516,-1.281 -0.578,-1.723 -0.051,-0.609 0.039,-1.308 0.121,-1.633 0.097,-0.355 0.445,-1.101 0.883,-1.609 0.472,-0.41 1.25,-0.793 1.718,-0.91 0.504,-0.086 1.184,-0.082 1.614,-0.016 0.347,0.063 1.082,0.301 1.683,0.692 0.508,0.441 1,1.211 1.164,1.652 0.137,0.437 0.242,1.203 0.2,1.781 -0.063,0.461 -0.286,1.238 -0.602,1.817 -0.332,0.488 -1.004,1.117 -1.563,1.425 -0.546,0.243 -1.453,0.418 -2.085,0.387 -0.653,-0.09 -1.422,-0.375 -1.86,-0.621 -0.437,-0.273 -1.043,-0.824 -1.379,-1.293 -0.301,-0.488 -0.59,-1.219 -0.703,-1.746 -0.094,-0.652 -0.039,-1.359 0.012,-1.68 0.078,-0.433 0.328,-1.133 0.652,-1.64 0.524,-0.578 1.551,-1.09 1.973,-1.168 0.73,-0.035 1.375,0.113 1.558,0.172 0.227,0.07 0.707,0.261 1.106,0.496 0.234,0.152 0.726,0.519 1.113,0.937 0.285,0.348 0.625,0.899 0.817,1.336 0.136,0.328 0.375,1.047 0.441,1.758 -0.055,0.933 -0.312,1.578 -0.266,1.473 -0.035,0.132 -0.109,0.468 -0.531,1.289 -0.891,0.82 -1.855,1.058 -1.117,0.847 -1.168,0.637 -2.633,0.207 -3.27,-0.961 -0.64,-1.168 -0.207,-2.632 0.961,-3.269 z"
         style="fill:#000000;fill-opacity:1;fill-rule:nonzero;stroke:none"
         id="path36" /><path
         d="m 106.969,73.744 c 0.144,0.047 0.183,0.063 0.265,0.09 1.274,0.391 1.989,1.742 1.594,3.012 -0.39,1.273 -1.738,1.988 -3.012,1.594 -1.273,-0.391 -1.984,-1.739 -1.593,-3.012 0.39,-1.274 1.742,-1.988 3.011,-1.594 0.121,0.035 0.075,0.028 0.121,0.035 1.297,0.293 2.114,1.586 1.821,2.883 -0.297,1.301 -1.586,2.113 -2.887,1.82 -1.297,-0.296 -2.113,-1.585 -1.816,-2.882 0.293,-1.301 1.586,-2.114 2.882,-1.821 0.141,0.032 0.325,0.075 0.422,0.086 1.317,0.199 2.223,1.43 2.024,2.746 -0.203,1.317 -1.43,2.223 -2.746,2.02 -1.317,-0.199 -2.223,-1.43 -2.024,-2.746 0.203,-1.317 1.43,-2.219 2.746,-2.02 0.469,0.09 0.164,0.082 -0.836,0.227 1.219,-0.539 2.641,0.012 3.18,1.23 0.535,1.219 -0.016,2.641 -1.234,3.18 -1.219,0.539 -2.641,-0.016 -3.18,-1.234 -0.535,-1.215 0.016,-2.641 1.234,-3.176 -0.296,0.187 -0.937,0.953 -1.054,1.207 0.019,-0.051 0.027,0.16 0,0.18 -0.028,-0.172 -0.117,-0.43 -0.227,-0.606 -0.105,-0.207 -0.148,-0.262 -0.269,-0.355 0.043,-0.008 0.058,0.031 -0.153,-0.047 -0.058,-0.035 0.246,0.011 0.379,0.019 0.195,-0.054 0.742,-0.32 0.871,-0.406 0.082,-0.113 0.282,-0.461 0.309,-0.492 -0.02,0.019 -0.024,0.09 -0.012,0.18 0.004,0.156 -0.039,0.003 -0.039,-0.055 0.043,0.105 -0.219,-0.199 -0.402,-0.383 -0.11,-0.023 -0.18,-0.055 -0.09,-0.059 1.328,0.09 2.332,1.243 2.238,2.571 -0.094,1.328 -1.246,2.332 -2.574,2.238 -1.328,-0.094 -2.328,-1.246 -2.234,-2.574 0.089,-1.328 1.242,-2.328 2.57,-2.235 0.172,0.016 0.012,0.059 -0.121,0.067 -0.043,0.055 -0.207,0.199 -0.262,0.23 -0.039,0.16 -0.082,0.223 -0.074,0.075 0.015,-0.04 0.074,0.257 0.137,0.468 0.222,0.266 0.718,0.657 0.851,0.731 0.207,0.023 0.473,0.027 0.52,0.035 0.011,-0.02 0.191,-0.121 0.273,-0.156 0.067,-0.106 0.231,-0.352 0.207,-0.266 -0.027,0.039 -0.031,0.066 -0.023,0.16 -0.012,0.098 -0.032,-0.019 -0.004,0.024 0.039,0.117 -0.133,-0.133 -0.281,-0.332 -0.133,-0.063 -0.372,-0.161 -0.622,-0.231 1.329,0.086 2.34,1.231 2.254,2.559 -0.086,1.328 -1.23,2.336 -2.558,2.254 -1.328,-0.086 -2.336,-1.231 -2.254,-2.559 0.086,-1.328 1.23,-2.336 2.558,-2.254 -0.058,0.016 -0.781,0.262 -1.25,0.578 -0.125,0.227 -0.214,0.489 -0.269,0.641 0.047,0.109 0.008,0.051 -0.09,-0.137 -0.066,-0.156 -0.008,-0.098 0.074,0.012 0.297,0.125 0.801,0.246 1.024,0.254 0.406,-0.156 0.965,-0.547 1.031,-0.598 0.016,-0.058 0.09,-0.269 0.109,-0.266 -0.019,0.09 -0.027,0.114 -0.011,0.067 -0.008,0.043 -0.161,-0.18 -0.211,-0.27 -0.074,-0.019 -0.297,-0.105 -0.477,-0.164 1.332,0.075 2.352,1.207 2.277,2.539 -0.07,1.328 -1.207,2.348 -2.535,2.278 -1.332,-0.075 -2.351,-1.211 -2.277,-2.539 0.07,-1.328 1.207,-2.348 2.535,-2.278 -0.219,0.043 -0.68,0.2 -0.883,0.305 1.004,-0.875 2.528,-0.77 3.403,0.234 0.875,1 0.769,2.524 -0.235,3.399 -1,0.879 -2.523,0.773 -3.398,-0.231 -0.875,-1.004 -0.774,-2.523 0.23,-3.402 0.028,-0.004 -0.16,0.398 -0.34,1.215 -0.136,-1.324 0.825,-2.512 2.149,-2.649 1.324,-0.136 2.512,0.825 2.648,2.149 0.137,1.324 -0.824,2.508 -2.148,2.648 -1.324,0.137 -2.508,-0.824 -2.649,-2.148 0.102,0.047 -0.222,-0.34 -0.593,-1.223 -0.5,-1.23 0.093,-2.637 1.328,-3.137 1.234,-0.5 2.641,0.094 3.141,1.329 0.128,0.371 0.695,1.269 0.921,2.531 -0.117,1.418 -0.875,2.539 -1.289,2.918 -0.632,0.484 -1.754,0.867 -2.543,0.879 -0.777,-0.09 -1.757,-0.5 -2.328,-0.926 -0.535,-0.488 -1.078,-1.324 -1.301,-1.93 -0.195,-0.683 -0.253,-1.57 -0.203,-2.117 0.094,-0.652 0.418,-1.492 0.727,-1.973 0.355,-0.468 1.308,-1.175 2.172,-1.406 0.668,-0.062 1.82,0.16 2.59,0.633 0.574,0.473 1.128,1.23 1.402,1.769 0.23,0.489 0.527,1.407 0.574,2.235 -0.055,0.859 -0.469,1.93 -0.933,2.543 -0.825,0.719 -2.11,1.066 -2.676,1.051 -0.739,-0.102 -1.653,-0.493 -2.184,-0.895 -0.555,-0.539 -0.992,-1.312 -1.14,-1.707 -0.165,-0.492 -0.286,-1.215 -0.286,-1.734 0.016,-0.504 0.137,-1.227 0.309,-1.739 0.172,-0.453 0.605,-1.183 1.062,-1.64 0.481,-0.41 1.25,-0.809 1.79,-0.965 0.562,-0.125 1.472,-0.133 2.136,0.035 0.578,0.215 1.492,0.899 1.942,1.586 0.297,0.645 0.453,1.582 0.422,2.176 -0.04,0.469 -0.247,1.383 -0.645,2.117 -0.406,0.594 -1.187,1.277 -1.828,1.605 -0.754,0.293 -1.695,0.383 -2.211,0.352 -0.582,-0.055 -1.461,-0.293 -2.082,-0.633 -0.68,-0.484 -1.258,-1.281 -1.445,-1.66 -0.243,-0.566 -0.391,-1.312 -0.422,-1.766 -0.016,-0.503 0.054,-1.218 0.179,-1.718 0.168,-0.539 0.606,-1.285 0.977,-1.676 0.422,-0.379 1.336,-0.824 1.961,-0.93 0.555,-0.039 1.355,0.082 1.852,0.258 0.328,0.125 1.058,0.469 1.652,0.949 0.449,0.414 0.972,1.078 1.293,1.637 0.305,0.574 0.601,1.398 0.722,1.957 0.125,0.742 0.043,1.609 -0.046,1.984 -0.231,0.696 -1.094,1.703 -1.672,2.016 -1.258,0.258 -1.953,0.094 -1.832,0.129 -0.282,-0.043 -0.606,-0.113 -0.766,-0.149 -0.246,-0.058 -0.453,-0.125 -0.473,-0.132 -0.187,-0.059 -0.304,-0.102 -0.375,-0.121 -1.261,-0.422 -1.945,-1.79 -1.523,-3.051 0.422,-1.262 1.785,-1.946 3.051,-1.524 z"
         style="fill:#000000;fill-opacity:1;fill-rule:nonzero;stroke:none"
         id="path38" /><path
         d="m 296.652,107.752 c 0.461,0.399 0.16,0.176 0.012,0.059 1.191,0.593 1.676,2.043 1.078,3.234 -0.594,1.188 -2.043,1.672 -3.234,1.078 -1.192,-0.597 -1.672,-2.047 -1.078,-3.234 l 0,-0.004 c 0.597,-1.188 2.043,-1.672 3.234,-1.074 -0.508,-0.18 -0.355,-0.153 -0.066,-0.078 1.285,0.347 2.043,1.671 1.695,2.957 -0.348,1.285 -1.668,2.047 -2.953,1.699 -1.285,-0.348 -2.047,-1.672 -1.699,-2.957 0.347,-1.285 1.668,-2.047 2.957,-1.699 0.371,0.109 0.527,0.183 0.527,0.168 1.316,0.203 2.219,1.433 2.02,2.75 -0.204,1.312 -1.434,2.218 -2.75,2.015 -1.317,-0.203 -2.219,-1.433 -2.016,-2.75 0.199,-1.316 1.43,-2.219 2.746,-2.015 -0.016,0.011 0.18,-0.008 0.578,0.003 1.328,0.047 2.371,1.165 2.324,2.497 -0.05,1.328 -1.168,2.371 -2.496,2.324 -1.332,-0.051 -2.371,-1.168 -2.324,-2.496 0.047,-1.332 1.164,-2.371 2.496,-2.325 0.352,0.012 0.598,0.032 0.832,0.032 0.387,0 0.52,0.023 0.555,0 1.316,-0.219 2.558,0.668 2.777,1.98 0.219,1.317 -0.668,2.559 -1.984,2.778 -1.313,0.218 -2.555,-0.672 -2.774,-1.985 -0.218,-1.312 0.668,-2.555 1.981,-2.773 0.316,-0.051 0.203,0.008 0.16,-0.004 0.168,-0.09 0.152,-0.063 0.309,-0.262 0.175,-0.195 0.355,-0.488 0.597,-0.945 0.262,-0.477 0.489,-0.949 0.684,-1.488 0.203,-0.547 0.351,-1.125 0.523,-1.833 0.16,-0.66 0.305,-1.386 0.407,-2.05 0.097,-0.625 0.136,-1.301 0.203,-1.973 0.066,-0.637 0.121,-1.16 0.156,-1.621 0.031,-0.422 0.043,-0.785 0.059,-1.16 0.015,-0.352 0.023,-0.633 0.027,-0.863 0.008,-0.2 0,-0.336 0,-0.52 0,-0.086 -0.004,-0.23 0.012,-0.504 -0.004,0.246 2,-2.297 4.589,-0.926 0.594,1.192 0.11,2.641 -1.078,3.235 -1.191,0.597 -2.64,0.113 -3.234,-1.078 -0.598,-1.192 -0.113,-2.637 1.078,-3.235 1.188,-0.594 2.637,-0.113 3.234,1.078 0.192,0.469 0.161,0.43 0.262,0.672 0.113,0.278 0.336,0.75 0.68,1.613 0.488,1.239 -0.117,2.637 -1.356,3.129 -1.238,0.489 -2.636,-0.117 -3.129,-1.355 -0.492,-1.234 0.118,-2.637 1.352,-3.129 1.238,-0.488 2.641,0.117 3.133,1.355 0.312,0.793 0.84,2.063 1.304,3.399 0.434,1.258 -0.234,2.633 -1.492,3.066 -1.258,0.434 -2.629,-0.234 -3.066,-1.492 -0.434,-1.258 0.234,-2.629 1.492,-3.066 1.258,-0.434 2.629,0.234 3.066,1.492 0.442,1.277 1.11,3.113 1.469,4.66 0.293,1.301 -0.519,2.59 -1.816,2.887 -1.297,0.297 -2.59,-0.516 -2.887,-1.817 -0.297,-1.297 0.516,-2.589 1.817,-2.882 1.296,-0.297 2.589,0.515 2.886,1.812 0.625,2.77 0.942,5.32 1.387,7.824 0.23,1.313 -0.645,2.563 -1.953,2.793 -1.313,0.235 -2.563,-0.64 -2.797,-1.953 -0.465,-2.629 -0.758,-5.055 -1.34,-7.594 -0.269,-1.211 -0.863,-2.832 -1.324,-4.156 -0.41,-1.195 -0.899,-2.355 -1.231,-3.199 -0.3,-0.758 -0.488,-1.149 -0.656,-1.559 -0.187,-0.465 -0.234,-0.664 -0.113,-0.343 2.516,1.226 4.539,-1.161 4.523,-0.797 0.004,-0.16 0.008,-0.125 0.012,0.07 -0.004,0.105 0.004,0.32 -0.004,0.621 -0.004,0.262 -0.015,0.598 -0.031,0.973 -0.016,0.336 -0.027,0.789 -0.07,1.316 -0.039,0.527 -0.098,1.106 -0.164,1.738 -0.055,0.575 -0.11,1.383 -0.235,2.219 -0.121,0.774 -0.301,1.684 -0.484,2.449 -0.184,0.758 -0.406,1.598 -0.684,2.36 -0.277,0.75 -0.648,1.535 -0.965,2.125 -0.32,0.586 -0.754,1.273 -1.175,1.781 -0.469,0.535 -1.129,1.055 -1.598,1.328 -0.672,0.344 -1.422,0.512 -1.746,0.567 -0.59,0.082 -1.117,0.062 -1.348,0.062 -0.398,0 -0.734,-0.023 -1.004,-0.031 -0.164,-0.012 -0.605,0.008 -1.136,-0.059 -0.583,-0.109 -1.032,-0.281 -1.055,-0.277 -0.098,-0.031 -0.262,-0.059 -0.832,-0.27 -0.59,-0.336 -0.957,-0.718 -0.75,-0.511 -1.063,-0.797 -1.278,-2.309 -0.481,-3.375 0.797,-1.067 2.309,-1.282 3.375,-0.481 z"
         style="fill:#000000;fill-opacity:1;fill-rule:nonzero;stroke:none"
         id="path40" /><path
         d="m 269.867,311.471 c 0.27,-0.16 -0.179,0.121 -0.863,0.308 -1.309,0.25 -2.57,-0.609 -2.82,-1.917 -0.25,-1.305 0.609,-2.567 1.918,-2.817 1.308,-0.25 2.57,0.609 2.82,1.918 0.246,1.305 -0.61,2.566 -1.918,2.816 -0.219,0.036 -0.875,0.059 -1.395,-0.042 -1.293,-0.321 -2.082,-1.625 -1.765,-2.918 0.316,-1.293 1.625,-2.082 2.918,-1.766 1.293,0.32 2.082,1.625 1.765,2.918 -0.32,1.293 -1.625,2.082 -2.918,1.766 -0.039,-0.016 -0.761,-0.18 -1.484,-0.598 -1.102,-0.75 -1.383,-2.25 -0.629,-3.352 0.75,-1.097 2.25,-1.379 3.352,-0.629 1.097,0.754 1.379,2.254 0.625,3.352 -0.75,1.102 -2.25,1.383 -3.348,0.629 -0.473,-0.352 -0.973,-0.891 -1.246,-1.274 -0.297,-0.445 -0.567,-1.015 -0.707,-1.39 -0.137,-0.379 -0.293,-0.973 -0.348,-1.481 -0.023,-0.265 -0.07,-1.062 0.11,-1.863 0.187,-0.644 0.515,-1.32 0.796,-1.844 0.352,-0.648 0.774,-1.246 1.036,-1.718 0.414,-0.731 0.711,-1.086 0.777,-1.415 0.152,-0.468 0.23,-0.976 0.184,-1.355 0.003,-0.328 -0.114,-0.559 -0.325,-0.945 -0.621,-1.176 -0.172,-2.637 1.008,-3.258 1.176,-0.621 2.633,-0.172 3.258,1.008 0.621,1.175 0.168,2.633 -1.008,3.258 -1.176,0.621 -2.637,0.167 -3.258,-1.008 -0.187,-0.371 -0.125,-0.364 0.016,-0.188 -1.191,-0.59 -1.684,-2.035 -1.094,-3.226 0.586,-1.196 2.031,-1.688 3.227,-1.098 1.195,0.586 1.683,2.031 1.097,3.227 -0.589,1.195 -2.035,1.687 -3.23,1.097 0.152,-0.004 0.629,-0.035 1.062,-0.137 -1.097,0.75 -2.597,0.469 -3.351,-0.628 -0.75,-1.102 -0.469,-2.602 0.633,-3.352 1.097,-0.754 2.597,-0.469 3.347,0.629 0.754,1.098 0.469,2.598 -0.629,3.351 -0.332,0.141 -0.785,0.965 -1.628,1.926 -0.887,0.992 -2.411,1.078 -3.403,0.192 -0.992,-0.891 -1.078,-2.414 -0.191,-3.407 0.535,-0.578 1.297,-1.781 2.5,-2.691 1.183,-0.613 2.855,-0.594 3.793,-0.207 0.965,0.578 1.754,1.586 2.117,2.262 0.332,0.64 0.754,1.761 0.863,2.832 0.059,0.972 -0.117,2.25 -0.375,3.125 -0.363,1.078 -0.926,1.89 -1.183,2.363 -0.395,0.699 -0.809,1.281 -0.993,1.641 -0.253,0.472 -0.375,0.691 -0.39,0.816 -0.035,-0.004 0,-0.207 0.035,0.168 0.004,0.113 0,0.07 0.074,0.266 0.067,0.191 0.074,0.226 0.133,0.289 0.07,0.113 0.07,0.125 0.016,0.058 -0.258,-0.097 -0.418,-0.183 -0.086,-0.109 -0.18,-0.016 -0.567,-0.024 -0.66,-0.008 -0.317,0.117 -0.645,0.258 -0.133,-0.008 1.226,-0.523 2.64,0.043 3.168,1.27 0.523,1.222 -0.043,2.64 -1.27,3.164 z"
         style="fill:#000000;fill-opacity:1;fill-rule:nonzero;stroke:none"
         id="path42" /><path
         d="m 264.859,317.537 c 0.121,0.035 0.243,0.071 0.368,0.106 1.281,0.367 2.019,1.703 1.652,2.98 -0.363,1.281 -1.699,2.024 -2.981,1.656 -0.121,-0.035 -0.242,-0.07 -0.367,-0.105 -1.277,-0.367 -2.019,-1.699 -1.652,-2.98 0.367,-1.282 1.699,-2.02 2.98,-1.657 z"
         style="fill:#000000;fill-opacity:1;fill-rule:nonzero;stroke:none"
         id="path44" /><path
         d="m 338.203,278.498 0,-0.367 c 0,-1.332 1.082,-2.41 2.414,-2.41 1.328,0 2.41,1.078 2.41,2.41 0,1.332 -1.082,2.41 -2.41,2.41 -1.332,0 -2.414,-1.078 -2.414,-2.41 l 0,-0.894 c 0,-1.329 1.082,-2.411 2.414,-2.411 1.328,0 2.41,1.082 2.41,2.411 0,1.332 -1.082,2.414 -2.41,2.414 -1.332,0 -2.414,-1.082 -2.414,-2.414 l 0,-2.028 c 0,-1.332 1.082,-2.41 2.414,-2.41 1.328,0 2.41,1.078 2.41,2.41 0,1.332 -1.082,2.41 -2.41,2.41 -1.332,0 -2.414,-1.078 -2.414,-2.41 l 0,-6.859 c 0,-1.332 1.082,-2.41 2.414,-2.41 1.328,0 2.41,1.078 2.41,2.41 0,1.332 -1.082,2.41 -2.41,2.41 -1.332,0 -2.414,-1.078 -2.414,-2.41 l 0,-3.567 c 0,-1.332 1.082,-2.414 2.414,-2.414 1.328,0 2.41,1.082 2.41,2.414 0,1.329 -1.082,2.411 -2.41,2.411 -1.332,0 -2.414,-1.082 -2.414,-2.411 0,-1.058 -0.012,-2.078 0.004,-2.808 0.02,-1.332 1.121,-2.391 2.449,-2.367 1.332,0.023 2.395,1.121 2.371,2.453 -0.023,1.328 -1.121,2.39 -2.453,2.367 -1.332,-0.024 -2.39,-1.121 -2.367,-2.453 0.023,-1.352 0.07,-2.231 0.105,-3.289 0.043,-1.332 1.157,-2.375 2.485,-2.332 1.332,0.043 2.375,1.156 2.332,2.488 -0.035,1.105 -0.082,1.934 -0.102,3.219 -0.011,0.644 0,1.636 0,2.722 l 0,13.715 c 0,1.332 -1.082,2.41 -2.41,2.41 -1.332,0 -2.414,-1.078 -2.414,-2.41 z"
         style="fill:#000000;fill-opacity:1;fill-rule:nonzero;stroke:none"
         id="path46" /><path
         d="m 342.457,277.315 c -0.18,-0.278 0.059,0.078 0.219,0.476 0.449,1.254 -0.207,2.633 -1.461,3.082 -1.254,0.449 -2.633,-0.207 -3.078,-1.461 -0.449,-1.254 0.203,-2.633 1.457,-3.078 1.254,-0.449 2.633,0.203 3.082,1.457 0.125,0.473 0.101,0.41 0.066,0.27 0.453,1.25 -0.191,2.633 -1.441,3.086 -1.254,0.457 -2.637,-0.188 -3.09,-1.442 -0.457,-1.25 0.191,-2.633 1.441,-3.09 1.25,-0.453 2.633,0.192 3.09,1.446 0.051,0.144 0.043,0.152 0.035,0.117 0.661,1.156 0.262,2.629 -0.894,3.289 -1.156,0.66 -2.629,0.258 -3.289,-0.898 -0.66,-1.157 -0.262,-2.629 0.894,-3.29 1.157,-0.66 2.629,-0.257 3.289,0.899 0.11,0.184 -0.004,0.047 -0.097,-0.078 0.136,0.125 -0.059,0.004 0.011,0.019 0.137,0.067 0.317,0.125 0.633,0.192 0.422,0.09 0.699,0.152 1.074,0.156 1.332,0.043 2.375,1.152 2.336,2.484 -0.043,1.332 -1.152,2.375 -2.484,2.336 -1.332,-0.043 -2.375,-1.152 -2.336,-2.484 0.043,-1.332 1.152,-2.375 2.484,-2.336 0.477,0.016 1.004,0 1.422,-0.074 0.512,-0.082 0.797,-0.145 1.09,-0.297 0.465,-0.215 0.453,-0.129 0.332,-0.098 0.125,-0.133 0.149,-0.133 0.098,-0.273 -0.039,-1.328 1.012,-2.438 2.34,-2.477 1.332,-0.039 2.441,1.012 2.476,2.344 0.039,1.328 -1.008,2.437 -2.34,2.477 -1.332,0.035 -2.441,-1.012 -2.476,-2.344 0.031,-0.211 -0.086,-0.473 -0.356,-0.973 -0.621,-1.176 -0.168,-2.637 1.008,-3.258 1.18,-0.617 2.637,-0.168 3.258,1.012 0.621,1.176 0.172,2.633 -1.008,3.254 -1.176,0.621 -2.637,0.172 -3.258,-1.008 -0.25,-0.484 -0.562,-0.976 -0.672,-0.984 -1.082,-0.778 -1.328,-2.281 -0.55,-3.364 0.773,-1.082 2.281,-1.332 3.363,-0.554 1.082,0.777 1.328,2.281 0.551,3.363 -0.774,1.082 -2.281,1.332 -3.364,0.555 -0.632,-0.508 -1.492,-0.656 -2.789,-1.239 -1.207,-0.558 -1.734,-1.992 -1.179,-3.199 0.558,-1.211 1.992,-1.738 3.199,-1.179 0.828,0.394 2.16,0.734 3.582,1.699 0.887,0.707 1.715,1.887 2.125,2.656 0.422,0.813 0.84,2.031 0.906,3.086 -0.015,1.09 -0.465,2.406 -0.953,3.156 -0.723,0.895 -1.742,1.481 -2.258,1.719 -0.726,0.328 -1.629,0.562 -2.34,0.684 -0.757,0.121 -1.699,0.156 -2.355,0.136 -0.75,-0.031 -1.473,-0.164 -1.934,-0.261 -0.546,-0.122 -1.179,-0.325 -1.605,-0.512 -0.555,-0.266 -1.102,-0.688 -1.32,-0.887 -0.414,-0.43 -0.723,-0.926 -0.797,-1.058 -0.199,-0.372 -0.344,-0.75 -0.383,-0.864 -0.129,-0.394 -0.176,-0.699 -0.074,-0.289 0.066,0.133 0.254,0.473 0.008,0.055 -0.594,-1.192 -0.114,-2.637 1.078,-3.234 1.191,-0.594 2.64,-0.114 3.234,1.078 z"
         style="fill:#000000;fill-opacity:1;fill-rule:nonzero;stroke:none"
         id="path48" /></g></g></svg>